<?xml version="1.0" encoding="UTF-8" standalone="no"?>
<!--
	Futó (fehér)
	Eredeti: http://en.wikipedia.org/wiki/File:Chess_blt45.svg
	Felhasználási feltételek: Nevezd meg! - Így add tovább! (Creative Commons)
	Uray M. János
	2013-2018
-->
<!DOCTYPE svg PUBLIC "-//W3C//DTD SVG 1.1//EN" "http://www.w3.org/Graphics/SVG/1.1/DTD/svg11.dtd">
<svg width="128" height="128" viewBox="0 0 467 944" fill="none" xmlns="http://www.w3.org/2000/svg">
	<g clip-path="url(#clip0_12073_5377)">
		<path
			d="M445.29 909.643V915.893H21.0394V909.643C21.0394 845.185 54.1645 785.226 108.706 750.935H357.623C412.206 785.226 445.29 845.185 445.29 909.643Z"
			fill="#E0D8C8" />
		<path
			d="M137.873 750.935C83.3312 785.226 50.2061 845.185 50.2061 909.643V915.893H21.0394V909.643C21.0394 845.185 54.1645 785.226 108.706 750.935H137.873Z"
			fill="#CCC4B4" />
		<path
			d="M416.044 903.389C414.402 849.418 391.456 799.464 352.686 763.447H353.948C401.661 794.764 430.719 846.485 432.698 903.389H416.044Z"
			fill="#FFF7E4" />
		<path
			d="M393.452 780.26C384.427 770.802 374.315 762.272 363.294 754.772H103.048C92.0269 762.272 81.9144 770.802 72.8894 780.26C75.0561 781.66 77.6227 782.493 80.3936 782.493H385.948C388.719 782.493 391.285 781.66 393.452 780.26Z"
			fill="#CCC4B4" />
		<path
			d="M385.948 769.315H80.3936C72.7394 769.315 66.5311 763.111 66.5311 755.452C66.5311 747.798 72.7394 741.594 80.3936 741.594H385.948C393.602 741.594 399.811 747.798 399.811 755.452C399.811 763.111 393.602 769.315 385.948 769.315Z"
			fill="#E0D8C8" />
		<path
			d="M108.198 755.452C108.198 747.798 114.406 741.594 122.06 741.594H80.3936C72.7394 741.594 66.5311 747.798 66.5311 755.452C66.5311 763.111 72.7394 769.315 80.3936 769.315H122.06C114.406 769.315 108.198 763.111 108.198 755.452Z"
			fill="#CCC4B4" />
		<path
			d="M21.0352 909.623V915.89H445.306V909.623C445.306 908.294 445.206 906.981 445.181 905.656H21.1602C21.1352 906.981 21.0352 908.294 21.0352 909.623Z"
			fill="#CCC4B4" />
		<path
			d="M452.473 943.615H13.8644C6.21023 943.615 0.00598145 937.406 0.00598145 929.752C0.00598145 922.098 6.21023 915.89 13.8644 915.89H452.473C460.131 915.89 466.336 922.098 466.336 929.752C466.336 937.406 460.131 943.615 452.473 943.615Z"
			fill="#E0D8C8" />
		<path
			d="M41.6727 929.752C41.6727 922.098 47.8769 915.89 55.5311 915.89H13.8644C6.21023 915.89 0.00598145 922.098 0.00598145 929.752C0.00598145 937.406 6.21023 943.615 13.8644 943.615H55.5311C47.8769 943.615 41.6727 937.406 41.6727 929.752Z"
			fill="#CCC4B4" />
		<path
			d="M311.144 328.531H155.198C147.544 328.531 141.339 322.322 141.339 314.668C141.339 307.014 147.544 300.806 155.198 300.806H311.144C318.798 300.806 325.002 307.014 325.002 314.668C325.002 322.322 318.798 328.531 311.144 328.531Z"
			fill="#E0D8C8" />
		<path
			d="M183.002 314.668C183.002 307.014 189.21 300.806 196.865 300.806H155.198C147.544 300.806 141.335 307.014 141.335 314.668C141.335 322.322 147.544 328.531 155.198 328.531H196.865C189.21 328.531 183.002 322.322 183.002 314.668Z"
			fill="#CCC4B4" />
		<path d="M289.494 284.28H176.848V300.805H289.494V284.28Z" fill="#E0D8C8" />
		<path d="M289.494 296.639H176.848V300.805H289.494V296.639Z" fill="#CCC4B4" />
		<path d="M218.515 284.28H176.848V300.805H218.515V284.28Z" fill="#CCC4B4" />
		<path
			d="M357.623 741.601H108.706C191.706 557.726 182.206 365.726 173.456 328.518H292.873C284.123 365.726 274.665 557.726 357.623 741.601Z"
			fill="#E0D8C8" />
		<path
			d="M137.873 741.601H108.706C191.706 557.726 182.206 365.726 173.456 328.518H202.623C211.373 365.726 220.873 557.726 137.873 741.601Z"
			fill="#CCC4B4" />
		<path
			d="M324.073 729.093C249.065 557.689 255.361 388.226 261.723 341.03H278.044C269.852 403.464 271.636 569.368 338.548 729.093H324.073Z"
			fill="#FFF7E4" />
		<path
			d="M292.873 328.53H173.469C174.227 331.764 174.99 336.239 175.702 341.709H290.64C291.352 336.239 292.115 331.764 292.873 328.53Z"
			fill="#CCC4B4" />
		<path
			d="M325.373 200.935C325.373 231.768 312.956 262.102 289.498 284.268H176.831C140.539 249.893 130.664 195.935 152.498 150.935L186.248 81.3099C189.581 74.4349 196.539 70.1016 204.123 70.1016H262.206C269.831 70.1016 276.748 74.4349 280.081 81.3099L313.873 150.935C321.623 166.893 325.373 183.977 325.373 200.935Z"
			fill="#E0D8C8" />
		<path
			d="M233.165 70.1016C225.623 70.1432 218.748 74.4766 215.414 81.3099L181.665 150.935C159.831 195.935 169.706 249.893 205.998 284.268H176.831C140.539 249.893 130.664 195.935 152.498 150.935L186.248 81.3099C189.581 74.4349 196.539 70.1016 204.123 70.1016H233.165Z"
			fill="#CCC4B4" />
		<path
			d="M274.71 271.78C299.59 234.809 303.548 186.976 283.435 145.501L252.939 82.5967H262.206C265.01 82.5967 267.614 84.2216 268.835 86.7466L302.61 156.405C321.431 195.226 314.015 240.968 284.352 271.78H274.71Z"
			fill="#FFF7E4" />
		<path d="M213.023 0.000976562V13.2052L222.502 70.0927H243.835L253.319 13.2052V0.000976562H213.023Z"
			fill="#E0D8C8" />
		<path d="M244.531 65.9258H222.502V70.0925H243.835L244.531 65.9258Z" fill="#CCC4B4" />
		<path d="M221.356 0.000976562H213.023V13.2052L222.502 70.0927H230.835L221.356 13.2052V0.000976562Z"
			fill="#CCC4B4" />
	</g>
	<defs>
		<clipPath id="clip0_12073_5377">
			<rect width="467" height="944" fill="white" />
		</clipPath>
	</defs>
</svg>