<?xml version="1.0" encoding="UTF-8" standalone="no"?>
<!--
	Futó (fekete)
	Eredeti: http://en.wikipedia.org/wiki/File:Chess_bdt45.svg
	Felhasználási feltételek: Nevezd meg! - Így add tovább! (Creative Commons)
	Uray M. János
	2013-2018
-->
<!DOCTYPE svg PUBLIC "-//W3C//DTD SVG 1.1//EN" "http://www.w3.org/Graphics/SVG/1.1/DTD/svg11.dtd">
<svg width="128" height="128" viewBox="0 0 467 944" fill="none" xmlns="http://www.w3.org/2000/svg">
	<g clip-path="url(#clip0_12073_5371)">
		<path
			d="M445.29 909.648V915.898H21.0394V909.648C21.0394 845.19 54.1645 785.231 108.706 750.939H357.623C412.206 785.231 445.29 845.19 445.29 909.648Z"
			fill="#453C37" />
		<path
			d="M137.873 750.939C83.3312 785.231 50.2061 845.19 50.2061 909.648V915.898H21.0394V909.648C21.0394 845.19 54.1645 785.231 108.706 750.939H137.873Z"
			fill="#141110" />
		<path
			d="M416.044 903.394C414.402 849.419 391.456 799.469 352.686 763.452H353.948C401.661 794.765 430.719 846.486 432.698 903.394H416.044Z"
			fill="#C7B7AE" />
		<path
			d="M393.452 780.265C384.427 770.802 374.315 762.277 363.294 754.777H103.048C92.0269 762.277 81.9144 770.802 72.8894 780.265C75.0561 781.665 77.6227 782.498 80.3936 782.498H385.948C388.719 782.498 391.285 781.665 393.452 780.265Z"
			fill="#141110" />
		<path
			d="M385.948 769.319H80.3936C72.7394 769.319 66.5311 763.11 66.5311 755.456C66.5311 747.802 72.7394 741.594 80.3936 741.594H385.948C393.602 741.594 399.811 747.802 399.811 755.456C399.811 763.11 393.602 769.319 385.948 769.319Z"
			fill="#453C37" />
		<path
			d="M108.198 755.456C108.198 747.802 114.406 741.594 122.06 741.594H80.3936C72.7394 741.594 66.5311 747.802 66.5311 755.456C66.5311 763.11 72.7394 769.319 80.3936 769.319H122.06C114.406 769.319 108.198 763.11 108.198 755.456Z"
			fill="#141110" />
		<path
			d="M21.0352 909.627V915.894H445.306V909.627C445.306 908.298 445.206 906.981 445.181 905.656H21.1602C21.1352 906.981 21.0352 908.298 21.0352 909.627Z"
			fill="#141110" />
		<path
			d="M452.473 943.615H13.8644C6.21023 943.615 0.00598145 937.411 0.00598145 929.757C0.00598145 922.099 6.21023 915.895 13.8644 915.895H452.473C460.131 915.895 466.336 922.099 466.336 929.757C466.336 937.411 460.131 943.615 452.473 943.615Z"
			fill="#453C37" />
		<path
			d="M41.6727 929.757C41.6727 922.099 47.8769 915.895 55.5311 915.895H13.8644C6.21023 915.895 0.00598145 922.099 0.00598145 929.757C0.00598145 937.411 6.21023 943.615 13.8644 943.615H55.5311C47.8769 943.615 41.6727 937.411 41.6727 929.757Z"
			fill="#141110" />
		<path
			d="M311.144 328.531H155.198C147.544 328.531 141.339 322.327 141.339 314.673C141.339 307.015 147.544 300.811 155.198 300.811H311.144C318.798 300.811 325.002 307.015 325.002 314.673C325.002 322.327 318.798 328.531 311.144 328.531Z"
			fill="#453C37" />
		<path
			d="M183.002 314.673C183.002 307.015 189.21 300.811 196.865 300.811H155.198C147.544 300.811 141.335 307.015 141.335 314.673C141.335 322.327 147.544 328.531 155.198 328.531H196.865C189.21 328.531 183.002 322.327 183.002 314.673Z"
			fill="#141110" />
		<path d="M289.494 284.281H176.848V300.81H289.494V284.281Z" fill="#453C37" />
		<path d="M289.494 296.644H176.848V300.81H289.494V296.644Z" fill="#141110" />
		<path d="M218.515 284.281H176.848V300.81H218.515V284.281Z" fill="#141110" />
		<path
			d="M357.623 741.607H108.706C191.706 557.732 182.206 365.732 173.456 328.523H292.873C284.123 365.732 274.665 557.732 357.623 741.607Z"
			fill="#453C37" />
		<path
			d="M137.873 741.607H108.706C191.706 557.732 182.206 365.732 173.456 328.523H202.623C211.373 365.732 220.873 557.732 137.873 741.607Z"
			fill="#141110" />
		<path
			d="M324.073 729.098C249.065 557.69 255.361 388.227 261.723 341.035H278.044C269.852 403.469 271.636 569.369 338.548 729.098H324.073Z"
			fill="#C7B7AE" />
		<path
			d="M292.873 328.531H173.469C174.227 331.769 174.99 336.244 175.702 341.715H290.64C291.352 336.244 292.115 331.769 292.873 328.531Z"
			fill="#141110" />
		<path
			d="M325.373 200.94C325.373 231.773 312.956 262.106 289.498 284.273H176.831C140.539 249.898 130.664 195.94 152.498 150.94L186.248 81.3145C189.581 74.4395 196.539 70.1064 204.123 70.1064H262.206C269.831 70.1064 276.748 74.4395 280.081 81.3145L313.873 150.94C321.623 166.898 325.373 183.981 325.373 200.94Z"
			fill="#453C37" />
		<path
			d="M233.165 70.1064C225.623 70.1481 218.748 74.4812 215.414 81.3145L181.665 150.94C159.831 195.94 169.706 249.898 205.998 284.273H176.831C140.539 249.898 130.664 195.94 152.498 150.94L186.248 81.3145C189.581 74.4395 196.539 70.1064 204.123 70.1064H233.165Z"
			fill="#141110" />
		<path
			d="M274.71 271.785C299.585 234.814 303.548 186.981 283.435 145.506L252.939 82.5977H262.206C265.01 82.5977 267.614 84.2267 268.835 86.7475L302.61 156.41C321.431 195.231 314.015 240.968 284.352 271.785H274.71Z"
			fill="#C7B7AE" />
		<path d="M213.023 0.00195312V13.2102L222.502 70.0978H243.835L253.319 13.2102V0.00195312H213.023Z"
			fill="#453C37" />
		<path d="M244.531 65.9316H222.502V70.0983H243.835L244.531 65.9316Z" fill="#141110" />
		<path d="M221.356 0.00195312H213.023V13.2102L222.502 70.0978H230.835L221.356 13.2102V0.00195312Z"
			fill="#141110" />
	</g>
	<defs>
		<clipPath id="clip0_12073_5371">
			<rect width="467" height="944" fill="white" />
		</clipPath>
	</defs>
</svg>