<?xml version="1.0" encoding="UTF-8" standalone="no"?>
<!--
	Király (fekete)
	Eredeti: http://en.wikipedia.org/wiki/File:Chess_kdt45.svg
	Felhasználási feltételek: Nevezd meg! - Így add tovább! (Creative Commons)
	Uray M. János
	2013-2018
-->
<!DOCTYPE svg PUBLIC "-//W3C//DTD SVG 1.1//EN" "http://www.w3.org/Graphics/SVG/1.1/DTD/svg11.dtd">
<svg width="128" height="128" viewBox="0 0 467 1025" fill="none" xmlns="http://www.w3.org/2000/svg">
	<g clip-path="url(#clip0_12073_5372)">
		<path
			d="M300.667 67.6701C300.667 74.3784 295.25 79.8367 288.542 79.8367H177.5C170.792 79.8367 165.375 74.3784 165.375 67.6701C165.375 60.9617 170.792 55.5449 177.5 55.5449H288.542C291.875 55.5449 294.917 56.9201 297.125 59.0867C299.292 61.2951 300.667 64.3367 300.667 67.6701Z"
			fill="#453C37" />
		<path
			d="M288.533 75.6482H177.5C171.508 75.6482 166.558 71.2982 165.567 65.5898C165.446 66.269 165.354 66.9607 165.354 67.6732C165.354 74.3773 170.792 79.8149 177.5 79.8149H288.533C295.242 79.8149 300.679 74.3773 300.679 67.6732C300.679 66.9607 300.588 66.269 300.467 65.5898C299.475 71.2982 294.525 75.6482 288.533 75.6482Z"
			fill="#141110" />
		<path
			d="M220.867 194.319H245.163V12.1567C245.163 5.44841 239.725 0.0107422 233.017 0.0107422C226.308 0.0107422 220.867 5.44841 220.867 12.1567V194.319Z"
			fill="#453C37" />
		<path
			d="M235.083 0.211212C229.375 1.21121 225.042 6.16953 225.042 12.1695V55.5445H220.875V12.1695C220.875 5.4612 226.292 0.00292969 233 0.00292969C233.75 0.00292969 234.417 0.0862122 235.083 0.211212Z"
			fill="#141110" />
		<path d="M225.042 75.6406H220.875V194.337H225.042V75.6406Z" fill="#141110" />
		<path d="M189.646 48.1279H179.233V87.2195H189.646V48.1279Z" fill="#453C37" />
		<path d="M189.646 48.1279H179.233V87.2195H189.646V48.1279Z" fill="#453C37" />
		<path d="M286.788 48.1279H276.379V87.2195H286.788V48.1279Z" fill="#453C37" />
		<path d="M280.542 75.6406H276.375V87.2116H280.542V75.6406Z" fill="#141110" />
		<path d="M280.542 48.1279H276.375V55.5279H280.542V48.1279Z" fill="#141110" />
		<path d="M189.646 48.1279H179.233V87.2195H189.646V48.1279Z" fill="#453C37" />
		<path d="M183.417 75.6406H179.25V87.2116H183.417V75.6406Z" fill="#141110" />
		<path d="M183.417 48.1279H179.25V55.5279H183.417V48.1279Z" fill="#141110" />
		<path d="M189.625 83.0449H179.25V87.2116H189.625V83.0449Z" fill="#141110" />
		<path d="M286.792 83.0449H276.375V87.2116H286.792V83.0449Z" fill="#141110" />
		<path d="M252.563 13.8906H213.467V24.2992H252.563V13.8906Z" fill="#453C37" />
		<path d="M217.633 13.8906H213.467V24.2992H217.633V13.8906Z" fill="#141110" />
		<path d="M225.042 20.1318H213.467V24.2985H225.042V20.1318Z" fill="#141110" />
		<path d="M252.563 20.1318H245.163V24.2985H252.563V20.1318Z" fill="#141110" />
		<path
			d="M376.417 259.378L296.25 352.545H169.292L89.1666 259.378C75.2916 243.253 68.4165 223.295 68.4165 203.42C68.4165 181.378 76.8332 159.42 93.5415 142.712C109.625 126.587 130.292 117.712 151.375 116.087C177.204 114.087 203.708 122.962 223.458 142.712L232.792 152.045L242.125 142.712C260.042 124.753 283.583 115.795 307.083 115.795C330.583 115.795 354.125 124.753 372.042 142.712C403.792 174.462 405.708 225.337 376.417 259.378Z"
			fill="#453C37" />
		<path
			d="M198.458 352.544H169.292L89.1666 259.378C75.2916 243.253 68.4165 223.294 68.4165 203.419C68.4165 181.377 76.8332 159.419 93.5415 142.711C109.625 126.586 130.292 117.711 151.375 116.086C156.583 116.378 161.75 117.127 166.833 118.294C150.667 122.044 135.292 130.128 122.708 142.711C90.9582 174.461 89.0416 225.336 118.333 259.378L198.458 352.544Z"
			fill="#141110" />
		<path
			d="M344.967 267.544C377.667 229.536 376.204 172.374 342.071 136.053C350.092 139.882 357.484 145.086 363.946 151.544C370.692 158.29 375.85 166.086 379.409 174.44C392.638 205.478 381.075 241.62 353.671 261.299L344.967 267.544Z"
			fill="#C7B7AE" />
		<path
			d="M445.292 990.421V996.712H21.0415V990.421C21.0415 925.962 54.1666 866.046 108.708 831.754H357.625C412.167 866.046 445.292 925.962 445.292 990.421Z"
			fill="#453C37" />
		<path
			d="M416.033 984.191C414.392 930.22 391.446 880.27 352.675 844.249H353.938C401.654 875.566 430.708 927.287 432.688 984.191H416.033Z"
			fill="#C7B7AE" />
		<path
			d="M137.875 831.754C83.3333 866.046 50.2082 925.962 50.2082 990.421V996.712H21.0415V990.421C21.0415 925.962 54.1666 866.046 108.708 831.754H137.875Z"
			fill="#141110" />
		<path
			d="M393.859 861.475C385 852.137 375.088 843.704 364.296 836.258H102.033C91.2417 843.704 81.3251 852.137 72.4709 861.475C74.7168 863.045 77.4376 863.979 80.3876 863.979H385.938C388.888 863.979 391.609 863.045 393.859 861.475Z"
			fill="#141110" />
		<path
			d="M385.938 850.115H80.3874C72.7332 850.115 66.5249 843.911 66.5249 836.257C66.5249 828.599 72.7332 822.395 80.3874 822.395H385.938C393.596 822.395 399.8 828.599 399.8 836.257C399.8 843.911 393.596 850.115 385.938 850.115Z"
			fill="#453C37" />
		<path
			d="M108.192 836.257C108.192 828.599 114.4 822.395 122.054 822.395H80.3874C72.7332 822.395 66.5249 828.599 66.5249 836.257C66.5249 843.911 72.7332 850.115 80.3874 850.115H122.054C114.4 850.115 108.192 843.911 108.192 836.257Z"
			fill="#141110" />
		<path
			d="M452.467 1024.42H13.8583C6.20412 1024.42 0 1018.21 0 1010.55C0 1002.9 6.20412 996.695 13.8583 996.695H452.467C460.121 996.695 466.33 1002.9 466.33 1010.55C466.33 1018.21 460.121 1024.42 452.467 1024.42Z"
			fill="#453C37" />
		<path
			d="M21.0293 990.428V996.695H445.301V990.428C445.301 989.324 445.213 988.237 445.192 987.137H21.1334C21.1126 988.237 21.0293 989.324 21.0293 990.428Z"
			fill="#141110" />
		<path
			d="M41.6667 1010.55C41.6667 1002.9 47.8708 996.695 55.525 996.695H13.8583C6.20412 996.695 0 1002.9 0 1010.55C0 1018.21 6.20412 1024.42 13.8583 1024.42H55.525C47.8708 1024.42 41.6667 1018.21 41.6667 1010.55Z"
			fill="#141110" />
		<path
			d="M311.133 409.332H155.192C147.538 409.332 141.329 403.128 141.329 395.474C141.329 387.815 147.538 381.611 155.192 381.611H311.133C318.792 381.611 324.996 387.815 324.996 395.474C324.996 403.128 318.792 409.332 311.133 409.332Z"
			fill="#453C37" />
		<path
			d="M182.996 395.474C182.996 387.815 189.204 381.611 196.854 381.611H155.192C147.538 381.611 141.329 387.815 141.329 395.474C141.329 403.128 147.538 409.332 155.192 409.332H196.854C189.204 409.332 182.996 403.128 182.996 395.474Z"
			fill="#141110" />
		<path
			d="M311.134 330.753H155.192C153.775 330.753 152.433 331.028 151.146 331.424L169.304 352.536H296.267L314.588 331.24C313.479 330.953 312.334 330.753 311.134 330.753Z"
			fill="#141110" />
		<path
			d="M311.133 364.032H155.192C147.538 364.032 141.329 357.828 141.329 350.17C141.329 342.516 147.538 336.312 155.192 336.312H311.133C318.792 336.312 324.996 342.516 324.996 350.17C324.996 357.828 318.792 364.032 311.133 364.032Z"
			fill="#453C37" />
		<path
			d="M182.996 350.17C182.996 342.516 189.204 336.312 196.854 336.312H155.192C147.538 336.312 141.329 342.516 141.329 350.17C141.329 357.828 147.538 364.032 155.192 364.032H196.854C189.204 364.032 182.996 357.828 182.996 350.17Z"
			fill="#141110" />
		<path d="M289.488 365.082H176.838V381.611H289.488V365.082Z" fill="#453C37" />
		<path
			d="M357.625 822.379H108.708C191.667 638.504 182.209 446.504 173.459 409.337H292.875C284.125 446.504 274.625 638.504 357.625 822.379Z"
			fill="#453C37" />
		<path
			d="M292.867 409.332H173.458C174.254 412.707 175.046 417.39 175.783 423.195H290.542C291.275 417.39 292.075 412.707 292.867 409.332Z"
			fill="#141110" />
		<path
			d="M137.875 822.379H108.708C191.667 638.504 182.209 446.504 173.459 409.337H202.625C211.375 446.504 220.834 638.504 137.875 822.379Z"
			fill="#141110" />
		<path
			d="M324.063 809.895C249.063 638.504 255.355 469.033 261.717 421.837H278.034C269.842 484.262 271.63 650.166 338.542 809.895H324.063Z"
			fill="#C7B7AE" />
	</g>
	<defs>
		<clipPath id="clip0_12073_5372">
			<rect width="467" height="1025" fill="white" />
		</clipPath>
	</defs>
</svg>