<?xml version="1.0" encoding="UTF-8" standalone="no"?>
<!--
	Király (fehér)
	Eredeti: http://en.wikipedia.org/wiki/File:Chess_klt45.svg
	Felhasználási feltételek: Nevezd meg! - Így add tovább! (Creative Commons)
	Uray M. János
	2013-2018
-->
<!DOCTYPE svg PUBLIC "-//W3C//DTD SVG 1.1//EN" "http://www.w3.org/Graphics/SVG/1.1/DTD/svg11.dtd">
<svg width="128" height="128" viewBox="0 0 467 1025" fill="none" xmlns="http://www.w3.org/2000/svg">
	<g clip-path="url(#clip0_12073_5378)">
		<path
			d="M300.667 67.668C300.667 74.3763 295.25 79.8347 288.542 79.8347H177.5C170.792 79.8347 165.375 74.3763 165.375 67.668C165.375 60.9597 170.792 55.543 177.5 55.543H288.542C291.875 55.543 294.917 56.918 297.125 59.0847C299.292 61.293 300.667 64.3347 300.667 67.668Z"
			fill="#E0D8C8" />
		<path
			d="M288.533 75.6513H177.5C171.508 75.6513 166.558 71.3014 165.567 65.5889C165.446 66.268 165.354 66.9597 165.354 67.6722C165.354 74.3805 170.792 79.818 177.5 79.818H288.533C295.242 79.818 300.679 74.3805 300.679 67.6722C300.679 66.9597 300.588 66.268 300.467 65.5889C299.475 71.3014 294.525 75.6513 288.533 75.6513Z"
			fill="#CCC4B4" />
		<path
			d="M220.867 194.322H245.163V12.1556C245.163 5.44724 239.725 0.00976562 233.017 0.00976562C226.308 0.00976562 220.867 5.44724 220.867 12.1556V194.322Z"
			fill="#E0D8C8" />
		<path
			d="M235.083 0.209323C229.375 1.20932 225.042 6.1677 225.042 12.1677V55.5427H220.875V12.1677C220.875 5.45937 226.292 0.000976562 233 0.000976562C233.75 0.000976562 234.417 0.0843227 235.083 0.209323Z"
			fill="#CCC4B4" />
		<path d="M225.042 75.6387H220.875V194.335H225.042V75.6387Z" fill="#CCC4B4" />
		<path d="M189.646 48.126H179.233V87.2177H189.646V48.126Z" fill="#E0D8C8" />
		<path d="M189.646 48.126H179.233V87.2177H189.646V48.126Z" fill="#E0D8C8" />
		<path d="M286.788 48.126H276.379V87.2177H286.788V48.126Z" fill="#E0D8C8" />
		<path d="M280.542 75.6387H276.375V87.2095H280.542V75.6387Z" fill="#CCC4B4" />
		<path d="M280.542 48.126H276.375V55.5302H280.542V48.126Z" fill="#CCC4B4" />
		<path d="M189.646 48.126H179.233V87.2177H189.646V48.126Z" fill="#E0D8C8" />
		<path d="M183.417 75.6387H179.25V87.2095H183.417V75.6387Z" fill="#CCC4B4" />
		<path d="M183.417 48.126H179.25V55.5302H183.417V48.126Z" fill="#CCC4B4" />
		<path d="M189.625 83.043H179.25V87.2096H189.625V83.043Z" fill="#CCC4B4" />
		<path d="M286.792 83.043H276.375V87.2096H286.792V83.043Z" fill="#CCC4B4" />
		<path d="M252.563 13.8887H213.467V24.3012H252.563V13.8887Z" fill="#E0D8C8" />
		<path d="M217.633 13.8887H213.467V24.3012H217.633V13.8887Z" fill="#CCC4B4" />
		<path d="M225.042 20.1348H213.467V24.3014H225.042V20.1348Z" fill="#CCC4B4" />
		<path d="M252.563 20.1348H245.163V24.3014H252.563V20.1348Z" fill="#CCC4B4" />
		<path
			d="M376.417 259.376L296.25 352.543H169.292L89.1666 259.376C75.2916 243.251 68.4165 223.293 68.4165 203.418C68.4165 181.376 76.8332 159.418 93.5415 142.71C109.625 126.585 130.292 117.71 151.375 116.085C177.204 114.085 203.708 122.96 223.458 142.71L232.792 152.043L242.125 142.71C260.042 124.751 283.583 115.793 307.083 115.793C330.583 115.793 354.125 124.751 372.042 142.71C403.792 174.46 405.708 225.335 376.417 259.376Z"
			fill="#E0D8C8" />
		<path
			d="M198.458 352.543H169.292L89.1666 259.376C75.2916 243.251 68.4165 223.292 68.4165 203.417C68.4165 181.376 76.8332 159.417 93.5415 142.709C109.625 126.584 130.292 117.709 151.375 116.084C156.583 116.376 161.75 117.126 166.833 118.292C150.667 122.042 135.292 130.126 122.708 142.709C90.9582 174.459 89.0416 225.334 118.333 259.376L198.458 352.543Z"
			fill="#CCC4B4" />
		<path
			d="M344.967 267.547C377.667 229.538 376.204 172.376 342.071 136.051C350.092 139.88 357.484 145.084 363.946 151.547C370.692 158.292 375.85 166.088 379.409 174.438C392.638 205.48 381.075 241.617 353.671 261.297L344.967 267.547Z"
			fill="#FFF7E4" />
		<path
			d="M445.292 990.419V996.711H21.0415V990.419C21.0415 925.96 54.1666 866.044 108.708 831.752H357.625C412.167 866.044 445.292 925.96 445.292 990.419Z"
			fill="#E0D8C8" />
		<path
			d="M416.033 984.194C414.392 930.223 391.446 880.269 352.675 844.252H353.938C401.654 875.564 430.708 927.29 432.688 984.194H416.033Z"
			fill="#FFF7E4" />
		<path
			d="M137.875 831.752C83.3333 866.044 50.2082 925.96 50.2082 990.419V996.711H21.0415V990.419C21.0415 925.96 54.1666 866.044 108.708 831.752H137.875Z"
			fill="#CCC4B4" />
		<path
			d="M393.859 861.473C385 852.135 375.088 843.702 364.296 836.256H102.033C91.2417 843.702 81.3251 852.135 72.4709 861.473C74.7168 863.043 77.4376 863.977 80.3876 863.977H385.938C388.888 863.977 391.609 863.043 393.859 861.473Z"
			fill="#CCC4B4" />
		<path
			d="M385.938 850.119H80.3874C72.7332 850.119 66.5249 843.91 66.5249 836.256C66.5249 828.602 72.7332 822.394 80.3874 822.394H385.938C393.596 822.394 399.8 828.602 399.8 836.256C399.8 843.91 393.596 850.119 385.938 850.119Z"
			fill="#E0D8C8" />
		<path
			d="M108.192 836.256C108.192 828.602 114.4 822.394 122.054 822.394H80.3874C72.7332 822.394 66.5249 828.602 66.5249 836.256C66.5249 843.91 72.7332 850.119 80.3874 850.119H122.054C114.4 850.119 108.192 843.91 108.192 836.256Z"
			fill="#CCC4B4" />
		<path
			d="M452.467 1024.41H13.8583C6.20412 1024.41 0 1018.21 0 1010.56C0 1002.9 6.20412 996.693 13.8583 996.693H452.467C460.121 996.693 466.33 1002.9 466.33 1010.56C466.33 1018.21 460.121 1024.41 452.467 1024.41Z"
			fill="#E0D8C8" />
		<path
			d="M21.0293 990.427V996.694H445.301V990.427C445.301 989.327 445.213 988.235 445.192 987.14H21.1334C21.1126 988.235 21.0293 989.327 21.0293 990.427Z"
			fill="#CCC4B4" />
		<path
			d="M41.6667 1010.56C41.6667 1002.9 47.8708 996.693 55.525 996.693H13.8583C6.20412 996.693 0 1002.9 0 1010.56C0 1018.21 6.20412 1024.41 13.8583 1024.41H55.525C47.8708 1024.41 41.6667 1018.21 41.6667 1010.56Z"
			fill="#CCC4B4" />
		<path
			d="M311.133 409.334H155.192C147.538 409.334 141.329 403.126 141.329 395.472C141.329 387.818 147.538 381.609 155.192 381.609H311.133C318.792 381.609 324.996 387.818 324.996 395.472C324.996 403.126 318.792 409.334 311.133 409.334Z"
			fill="#E0D8C8" />
		<path
			d="M182.996 395.472C182.996 387.818 189.204 381.609 196.854 381.609H155.192C147.538 381.609 141.329 387.818 141.329 395.472C141.329 403.126 147.538 409.334 155.192 409.334H196.854C189.204 409.334 182.996 403.126 182.996 395.472Z"
			fill="#CCC4B4" />
		<path
			d="M311.134 330.756H155.192C153.775 330.756 152.433 331.031 151.146 331.427L169.304 352.535H296.267L314.588 331.239C313.479 330.956 312.334 330.756 311.134 330.756Z"
			fill="#CCC4B4" />
		<path
			d="M311.133 364.03H155.192C147.538 364.03 141.329 357.826 141.329 350.172C141.329 342.514 147.538 336.31 155.192 336.31H311.133C318.792 336.31 324.996 342.514 324.996 350.172C324.996 357.826 318.792 364.03 311.133 364.03Z"
			fill="#E0D8C8" />
		<path
			d="M182.996 350.172C182.996 342.514 189.204 336.31 196.854 336.31H155.192C147.538 336.31 141.329 342.514 141.329 350.172C141.329 357.826 147.538 364.03 155.192 364.03H196.854C189.204 364.03 182.996 357.826 182.996 350.172Z"
			fill="#CCC4B4" />
		<path d="M289.488 365.085H176.838V381.61H289.488V365.085Z" fill="#E0D8C8" />
		<path
			d="M357.625 822.377H108.708C191.667 638.502 182.209 446.502 173.459 409.335H292.875C284.125 446.502 274.625 638.502 357.625 822.377Z"
			fill="#E0D8C8" />
		<path
			d="M292.867 409.335H173.458C174.254 412.706 175.046 417.393 175.783 423.193H290.542C291.275 417.393 292.075 412.706 292.867 409.335Z"
			fill="#CCC4B4" />
		<path
			d="M137.875 822.377H108.708C191.667 638.502 182.209 446.502 173.459 409.335H202.625C211.375 446.502 220.834 638.502 137.875 822.377Z"
			fill="#CCC4B4" />
		<path
			d="M324.063 809.898C249.063 638.502 255.355 469.031 261.717 421.835H278.034C269.842 484.26 271.63 650.168 338.542 809.898H324.063Z"
			fill="#FFF7E4" />
	</g>
	<defs>
		<clipPath id="clip0_12073_5378">
			<rect width="467" height="1025" fill="white" />
		</clipPath>
	</defs>
</svg>