<?xml version="1.0" encoding="UTF-8" standalone="no"?>
<!--
	Huszár (fehér)
	Eredeti: http://en.wikipedia.org/wiki/File:Chess_nlt45.svg
	Felhasználási feltételek: Nevezd meg! - Így add tovább! (Creative Commons)
	Uray M. János
	2013-2018
-->
<!DOCTYPE svg PUBLIC "-//W3C//DTD SVG 1.1//EN" "http://www.w3.org/Graphics/SVG/1.1/DTD/svg11.dtd">
<svg width="128" height="128" viewBox="0 0 472 831" fill="none" xmlns="http://www.w3.org/2000/svg">
	<g clip-path="url(#clip0_12073_5376)">
		<path
			d="M206.401 58.5144L286.372 117.831C300.134 99.2771 296.247 73.0812 277.697 59.3187L197.726 0.00195312C183.963 18.552 187.847 44.7519 206.401 58.5144Z"
			fill="#E0D8C8" />
		<path
			d="M211.063 53.852C194.297 41.4145 189.559 18.8395 198.951 0.910297L197.726 0.00195312C183.963 18.552 187.847 44.752 206.401 58.5104L286.372 117.831C287.697 116.044 288.809 114.169 289.809 112.26L211.063 53.852Z"
			fill="#CCC4B4" />
		<path
			d="M164.651 87.2562L259.409 117.831C266.501 95.8479 254.43 72.2728 232.443 65.1812L137.684 34.6104C130.593 56.5937 142.663 80.1645 164.651 87.2562Z"
			fill="#E0D8C8" />
		<path
			d="M168.818 83.0895C148.526 76.5437 136.718 55.9604 140.588 35.5437L137.684 34.6104C130.593 56.5937 142.663 80.1645 164.651 87.2562L259.409 117.831C259.955 116.135 260.347 114.431 260.672 112.727L168.818 83.0895Z"
			fill="#CCC4B4" />
		<path
			d="M123.438 117.786L218.197 148.361C225.288 126.373 213.218 102.802 191.23 95.7107L96.4717 65.1357C89.38 87.1191 101.451 110.694 123.438 117.786Z"
			fill="#E0D8C8" />
		<path
			d="M126.563 114.661C105.843 107.973 93.9425 86.6524 98.58 65.8149L96.4717 65.1357C89.38 87.1191 101.451 110.694 123.438 117.786L218.197 148.361C218.601 147.094 218.93 145.823 219.213 144.557L126.563 114.661Z"
			fill="#CCC4B4" />
		<path
			d="M98.98 159.656H198.547C198.547 136.556 179.822 117.831 156.722 117.831H57.1508C57.1508 140.931 75.8799 159.656 98.98 159.656Z"
			fill="#E0D8C8" />
		<path
			d="M102.797 155.839C80.9883 155.839 63.0966 139.139 61.1632 117.831H57.1508C57.1508 140.931 75.8799 159.656 98.98 159.656H198.547C198.547 158.369 198.468 157.098 198.355 155.839H102.797Z"
			fill="#CCC4B4" />
		<path
			d="M75.7925 203.136L173.376 183.361C168.788 160.719 146.713 146.086 124.076 150.673L26.4883 170.448C31.08 193.09 53.1508 207.723 75.7925 203.136Z"
			fill="#E0D8C8" />
		<path
			d="M79.4008 199.527C57.6924 203.927 36.5508 190.631 30.7966 169.577L26.4883 170.448C31.08 193.09 53.1508 207.723 75.7925 203.135L173.376 183.36C173.188 182.427 172.922 181.531 172.676 180.623L79.4008 199.527Z"
			fill="#CCC4B4" />
		<path
			d="M49.3008 253.535L146.884 233.76C142.297 211.119 120.226 196.485 97.5841 201.073L0.000732422 220.848C4.58824 243.489 26.6591 258.123 49.3008 253.535Z"
			fill="#E0D8C8" />
		<path
			d="M52.5217 250.314C30.7133 254.735 9.4799 241.293 3.84239 220.068L0.000732422 220.848C4.58824 243.489 26.6591 258.123 49.3008 253.535L146.884 233.76C146.718 232.927 146.476 232.131 146.259 231.318L52.5217 250.314Z"
			fill="#CCC4B4" />
		<path
			d="M451.097 796.099V802.391H26.9299V796.099C26.9299 731.682 60.0133 671.765 114.597 637.474H363.43C417.972 671.765 451.097 731.682 451.097 796.099Z"
			fill="#E0D8C8" />
		<path
			d="M143.763 637.474C89.18 671.765 56.0966 731.682 56.0966 796.099V802.391H26.9299V796.099C26.9299 731.682 60.0133 671.765 114.597 637.474H143.763Z"
			fill="#CCC4B4" />
		<path
			d="M421.83 789.882C420.184 735.928 397.243 685.982 358.489 649.978H359.751C407.451 681.282 436.501 732.994 438.484 789.882H421.83Z"
			fill="#FFF7E4" />
		<path
			d="M392.551 660.098C385.609 653.528 378.093 647.49 370.105 641.978H107.905C99.9175 647.49 92.4009 653.528 85.4592 660.098C87.2676 665.653 92.4258 669.694 98.58 669.694H379.43C385.584 669.694 390.743 665.653 392.551 660.098Z"
			fill="#CCC4B4" />
		<path
			d="M379.43 655.836H98.58C90.9258 655.836 84.7217 649.632 84.7217 641.977C84.7217 634.327 90.9258 628.119 98.58 628.119H379.43C387.084 628.119 393.289 634.327 393.289 641.977C393.289 649.632 387.084 655.836 379.43 655.836Z"
			fill="#E0D8C8" />
		<path
			d="M126.388 641.977C126.388 634.327 132.593 628.119 140.247 628.119H98.58C90.9258 628.119 84.7217 634.327 84.7217 641.977C84.7217 649.632 90.9258 655.836 98.58 655.836H140.247C132.593 655.836 126.388 649.632 126.388 641.977Z"
			fill="#CCC4B4" />
		<path
			d="M457.664 830.095H20.3466C12.7133 830.095 6.52576 823.907 6.52576 816.274C6.52576 808.641 12.7133 802.453 20.3466 802.453H457.664C465.297 802.453 471.484 808.641 471.484 816.274C471.484 823.907 465.297 830.095 457.664 830.095Z"
			fill="#E0D8C8" />
		<path
			d="M48.1925 816.274C48.1925 808.641 54.38 802.453 62.0133 802.453H20.3466C12.7133 802.453 6.52576 808.641 6.52576 816.274C6.52576 823.907 12.7133 830.095 20.3466 830.095H62.0133C54.38 830.095 48.1925 823.907 48.1925 816.274Z"
			fill="#CCC4B4" />
		<path
			d="M26.9175 796.115V802.378H451.093V796.115C451.093 795.011 451.005 793.919 450.984 792.819H27.0258C27.005 793.919 26.9175 795.011 26.9175 796.115Z"
			fill="#CCC4B4" />
		<path
			d="M463.247 204.277L447.293 241.51C443.076 251.343 431.418 255.548 421.897 250.668L394.222 236.481L344.78 236.002C333.001 235.889 321.309 233.935 310.13 230.214L294.513 225.014C284.513 220.514 272.763 224.473 267.513 234.098C263.055 315.848 302.472 395.056 374.722 459.639C394.138 477.014 402.222 503.764 395.263 528.931L380.055 583.765L372.347 611.514H122.597C114.763 602.556 107.43 593.306 100.638 583.765C49.1382 511.931 26.5132 425.931 26.5132 353.514C26.5132 263.056 39.9298 175.681 144.597 91.6808C174.18 67.9308 216.638 54.0974 258.055 52.8057C283.888 51.9724 309.263 56.0141 330.93 65.5141C331.847 65.9308 332.805 66.3057 333.763 66.7641L372.013 84.4724V109.931L455.722 175.081C464.576 181.973 467.668 193.964 463.247 204.277Z"
			fill="#E0D8C8" />
		<path
			d="M432.934 206.881C434.997 196.368 431.059 185.344 422.343 178.564L340.243 114.664V88.5809L299.572 69.756C298.997 69.4768 298.384 69.2184 297.776 68.9559L296.709 68.4893C295.584 67.9976 294.451 67.5184 293.313 67.0518C303.726 69.1434 313.543 72.1809 322.484 76.1018L323.668 76.6184C324.176 76.8351 324.688 77.056 325.201 77.2977L361.076 93.906V118.739L446.393 185.139C451.351 189.106 451.597 194.569 450.251 198.419C448.876 202.319 444.972 206.881 438.472 206.881H432.934Z"
			fill="#FFF7E4" />
		<path
			d="M331.993 607.349L353.447 530.044C360.83 503.328 352.484 475.161 331.668 456.536C273.976 404.965 247.747 351.077 249.718 285.886C260.505 349.086 296.968 410.628 355.28 462.744C373.718 479.248 381.113 504.182 374.58 527.819L352.513 607.349H331.993Z"
			fill="#FFF7E4" />
		<path d="M269.668 230.91L269.701 230.86L269.676 230.877L269.668 230.91Z" fill="#FFF7E4" />
		<path
			d="M55.6799 353.515C55.6799 425.932 78.3049 511.932 129.805 583.766C136.597 593.307 143.93 602.557 151.763 611.515H122.597C114.763 602.557 107.43 593.307 100.638 583.766C49.1382 511.932 26.5132 425.932 26.5132 353.515C26.5132 263.057 39.9298 175.682 144.597 91.6817C174.18 67.9317 216.638 54.0983 258.055 52.8066C263.055 52.9316 268.013 53.2651 272.888 53.8067C236.18 57.4734 199.93 70.6401 173.763 91.6817C69.0965 175.682 55.6799 263.057 55.6799 353.515Z"
			fill="#CCC4B4" />
		<path d="M246.684 87.71C246.684 49.8224 263.914 17.2641 294.955 9.28906L294.197 76.4057L246.684 87.71Z"
			fill="#E0D8C8" />
		<path
			d="M294.926 12.2015L294.955 9.28906C263.914 17.2599 246.684 49.8224 246.684 87.71L254.972 85.7392C255.505 52.21 269.626 23.2182 294.926 12.2015Z"
			fill="#CCC4B4" />
		<path d="M364.897 611.502H113.113V628.073H364.897V611.502Z" fill="#E0D8C8" />
		<path d="M154.78 611.502H113.113V628.073H154.78V611.502Z" fill="#CCC4B4" />
		<path
			d="M377.747 611.502H100.263C92.6092 611.502 86.405 605.298 86.405 597.644C86.405 589.989 92.6092 583.785 100.263 583.785H377.747C385.401 583.785 391.605 589.989 391.605 597.644C391.605 605.298 385.401 611.502 377.747 611.502Z"
			fill="#E0D8C8" />
		<path d="M364.897 611.502H113.113V617.752H364.897V611.502Z" fill="#CCC4B4" />
		<path
			d="M128.072 597.644C128.072 589.989 134.276 583.785 141.93 583.785H100.263C92.6092 583.785 86.405 589.989 86.405 597.644C86.405 605.298 92.6092 611.502 100.263 611.502H141.93C134.276 611.502 128.072 605.298 128.072 597.644Z"
			fill="#CCC4B4" />
	</g>
	<defs>
		<clipPath id="clip0_12073_5376">
			<rect width="472" height="831" fill="white" />
		</clipPath>
	</defs>
</svg>