<?xml version="1.0" encoding="UTF-8" standalone="no"?>
<!--
	Huszár (fekete)
	Eredeti: http://en.wikipedia.org/wiki/File:Chess_ndt45.svg
	Felhasználási feltételek: Nevezd meg! - Így add tovább! (Creative Commons)
	Uray M. János
	2013-2018
-->
<!DOCTYPE svg PUBLIC "-//W3C//DTD SVG 1.1//EN" "http://www.w3.org/Graphics/SVG/1.1/DTD/svg11.dtd">
<svg width="128" height="128" viewBox="0 0 472 831" fill="none" xmlns="http://www.w3.org/2000/svg">
	<g clip-path="url(#clip0_12073_5370)">
		<path
			d="M206.401 58.5124L286.372 117.833C300.134 99.2791 296.247 73.0834 277.697 59.3209L197.726 0C183.963 18.5542 187.847 44.7499 206.401 58.5124Z"
			fill="#453C37" />
		<path
			d="M211.063 53.8501C194.297 41.4167 189.559 18.8376 198.951 0.908407L197.726 0C183.963 18.5542 187.847 44.7499 206.401 58.5124L286.372 117.829C287.697 116.046 288.809 114.171 289.809 112.263L211.063 53.8501Z"
			fill="#141110" />
		<path
			d="M164.651 87.2586L259.409 117.833C266.501 95.8459 254.43 72.2751 232.443 65.1835L137.684 34.6084C130.593 56.5917 142.663 80.167 164.651 87.2586Z"
			fill="#453C37" />
		<path
			d="M168.818 83.092C148.526 76.5461 136.718 55.9627 140.588 35.5461L137.684 34.6084C130.593 56.5917 142.663 80.167 164.651 87.2586L259.409 117.829C259.955 116.138 260.347 114.434 260.672 112.729L168.818 83.092Z"
			fill="#141110" />
		<path
			d="M123.438 117.788L218.197 148.359C225.288 126.375 213.218 102.804 191.23 95.7084L96.4717 65.1377C89.38 87.121 101.451 110.692 123.438 117.788Z"
			fill="#453C37" />
		<path
			d="M126.563 114.663C105.843 107.975 93.9425 86.6542 98.58 65.8167L96.4717 65.1377C89.38 87.121 101.451 110.692 123.438 117.788L218.197 148.359C218.601 147.096 218.93 145.825 219.213 144.554L126.563 114.663Z"
			fill="#141110" />
		<path
			d="M98.98 159.658H198.547C198.547 136.558 179.822 117.833 156.722 117.833H57.1508C57.1508 140.933 75.8799 159.658 98.98 159.658Z"
			fill="#453C37" />
		<path
			d="M102.797 155.838C80.9883 155.838 63.0966 139.137 61.1632 117.829H57.1508C57.1508 140.929 75.8799 159.658 98.98 159.658H198.547C198.547 158.367 198.468 157.1 198.355 155.838H102.797Z"
			fill="#141110" />
		<path
			d="M75.7925 203.134L173.376 183.359C168.788 160.721 146.713 146.088 124.076 150.675L26.4883 170.45C31.08 193.088 53.1508 207.725 75.7925 203.134Z"
			fill="#453C37" />
		<path
			d="M79.4008 199.529C57.6924 203.925 36.5508 190.634 30.7966 169.575L26.4883 170.45C31.08 193.088 53.1508 207.725 75.7925 203.138L173.376 183.358C173.188 182.429 172.922 181.529 172.676 180.625L79.4008 199.529Z"
			fill="#141110" />
		<path
			d="M49.3008 253.537L146.884 233.762C142.297 211.12 120.226 196.487 97.5841 201.075L0.000732422 220.85C4.58824 243.487 26.6591 258.125 49.3008 253.537Z"
			fill="#453C37" />
		<path
			d="M52.5217 250.317C30.7133 254.734 9.4799 241.296 3.84239 220.071L0.000732422 220.85C4.58824 243.488 26.6591 258.125 49.3008 253.534L146.884 233.759C146.718 232.93 146.476 232.129 146.259 231.321L52.5217 250.317Z"
			fill="#141110" />
		<path
			d="M451.097 796.1V802.392H26.9299V796.1C26.9299 731.684 60.0133 671.767 114.597 637.476H363.43C417.972 671.767 451.097 731.684 451.097 796.1Z"
			fill="#453C37" />
		<path
			d="M143.763 637.476C89.18 671.767 56.0966 731.684 56.0966 796.1V802.392H26.9299V796.1C26.9299 731.684 60.0133 671.767 114.597 637.476H143.763Z"
			fill="#141110" />
		<path
			d="M421.83 789.879C420.184 735.929 397.239 685.983 358.489 649.971H359.751C407.451 681.283 436.501 732.996 438.484 789.879H421.83Z"
			fill="#C7B7AE" />
		<path
			d="M392.551 660.1C385.609 653.529 378.093 647.492 370.105 641.979H107.905C99.9175 647.492 92.4009 653.529 85.4592 660.1C87.2676 665.655 92.4258 669.696 98.58 669.696H379.43C385.584 669.696 390.743 665.655 392.551 660.1Z"
			fill="#141110" />
		<path
			d="M379.43 655.838H98.58C90.9258 655.838 84.7217 649.634 84.7217 641.98C84.7217 634.325 90.9258 628.121 98.58 628.121H379.43C387.084 628.121 393.289 634.325 393.289 641.98C393.289 649.634 387.084 655.838 379.43 655.838Z"
			fill="#453C37" />
		<path
			d="M126.388 641.98C126.388 634.325 132.593 628.121 140.247 628.121H98.58C90.9258 628.121 84.7217 634.325 84.7217 641.98C84.7217 649.634 90.9258 655.838 98.58 655.838H140.247C132.593 655.838 126.388 649.634 126.388 641.98Z"
			fill="#141110" />
		<path
			d="M457.664 830.097H20.3466C12.7133 830.097 6.52576 823.909 6.52576 816.276C6.52576 808.643 12.7133 802.455 20.3466 802.455H457.664C465.297 802.455 471.484 808.643 471.484 816.276C471.484 823.909 465.297 830.097 457.664 830.097Z"
			fill="#453C37" />
		<path
			d="M48.1925 816.276C48.1925 808.643 54.38 802.455 62.0133 802.455H20.3466C12.7133 802.455 6.52576 808.643 6.52576 816.276C6.52576 823.909 12.7133 830.097 20.3466 830.097H62.0133C54.38 830.097 48.1925 823.909 48.1925 816.276Z"
			fill="#141110" />
		<path
			d="M26.9175 796.113V802.38H451.093V796.113C451.093 795.009 451.005 793.922 450.984 792.817H27.0258C27.005 793.922 26.9175 795.009 26.9175 796.113Z"
			fill="#141110" />
		<path
			d="M463.247 204.278L447.293 241.512C443.076 251.345 431.418 255.549 421.897 250.67L394.222 236.479L344.78 236.004C333.001 235.887 321.309 233.933 310.13 230.212L294.513 225.016C284.513 220.516 272.763 224.474 267.513 234.099C263.055 315.849 302.472 395.058 374.722 459.641C394.138 477.016 402.222 503.766 395.263 528.933L380.055 583.766L372.347 611.516H122.597C114.763 602.558 107.43 593.308 100.638 583.766C49.1382 511.933 26.5132 425.933 26.5132 353.516C26.5132 263.058 39.9298 175.683 144.597 91.6825C174.18 67.9325 216.638 54.0993 258.055 52.8076C283.888 51.9743 309.263 56.0159 330.93 65.5159C331.847 65.9326 332.805 66.3076 333.763 66.7659L372.013 84.4742V109.933L455.722 175.083C464.576 181.97 467.668 193.966 463.247 204.278Z"
			fill="#453C37" />
		<path
			d="M432.934 206.884C434.997 196.371 431.059 185.346 422.343 178.567L340.243 114.667V88.5838L299.572 69.7545C298.997 69.4795 298.376 69.2088 297.755 68.9463L296.709 68.4921C295.584 67.9962 294.451 67.5172 293.313 67.0547C303.726 69.1464 313.543 72.1797 322.484 76.1047L323.655 76.6128C324.159 76.8295 324.676 77.0462 325.188 77.2921L361.076 93.9046V118.742L446.393 185.142C451.351 189.109 451.597 194.567 450.251 198.417C448.876 202.321 444.972 206.884 438.472 206.884H432.934Z"
			fill="#C7B7AE" />
		<path
			d="M331.993 607.351L353.447 530.046C360.83 503.33 352.484 475.163 331.668 456.534C273.976 404.967 247.747 351.08 249.718 285.884C260.505 349.084 296.968 410.63 355.28 462.746C373.718 479.25 381.113 504.184 374.58 527.821L352.513 607.351H331.993Z"
			fill="#C7B7AE" />
		<path d="M269.668 230.908L269.701 230.862L269.676 230.879L269.668 230.908Z" fill="#C7B7AE" />
		<path
			d="M55.6799 353.517C55.6799 425.934 78.3049 511.934 129.805 583.767C136.597 593.309 143.93 602.559 151.763 611.517H122.597C114.763 602.559 107.43 593.309 100.638 583.767C49.1382 511.934 26.5132 425.934 26.5132 353.517C26.5132 263.059 39.9298 175.684 144.597 91.6834C174.18 67.9334 216.638 54.1003 258.055 52.8086C263.055 52.9336 268.013 53.2669 272.888 53.8086C236.18 57.4752 199.93 70.6418 173.763 91.6834C69.0965 175.684 55.6799 263.059 55.6799 353.517Z"
			fill="#141110" />
		<path d="M246.684 87.712C246.684 49.8245 263.914 17.2621 294.955 9.28711L294.197 76.4037L246.684 87.712Z"
			fill="#453C37" />
		<path
			d="M294.926 12.2038L294.955 9.28711C263.914 17.2621 246.684 49.8245 246.684 87.712L254.972 85.737C255.505 52.212 269.626 23.2205 294.926 12.2038Z"
			fill="#141110" />
		<path d="M364.897 611.504H113.113V628.075H364.897V611.504Z" fill="#453C37" />
		<path d="M154.78 611.504H113.113V628.075H154.78V611.504Z" fill="#141110" />
		<path
			d="M377.747 611.505H100.263C92.6092 611.505 86.405 605.296 86.405 597.646C86.405 589.992 92.6092 583.788 100.263 583.788H377.747C385.401 583.788 391.605 589.992 391.605 597.646C391.605 605.296 385.401 611.505 377.747 611.505Z"
			fill="#453C37" />
		<path d="M364.897 611.504H113.113V617.754H364.897V611.504Z" fill="#141110" />
		<path
			d="M128.072 597.646C128.072 589.992 134.276 583.788 141.93 583.788H100.263C92.6092 583.788 86.405 589.992 86.405 597.646C86.405 605.296 92.6092 611.505 100.263 611.505H141.93C134.276 611.505 128.072 605.296 128.072 597.646Z"
			fill="#141110" />
	</g>
	<defs>
		<clipPath id="clip0_12073_5370">
			<rect width="472" height="831" fill="white" />
		</clipPath>
	</defs>
</svg>