<?xml version="1.0" encoding="UTF-8" standalone="no"?>
<!--
	Gyalog (fehér)
	Eredeti: http://en.wikipedia.org/wiki/File:Chess_plt45.svg
	Felhasználási feltételek: Nevezd meg! - Így add tovább! (Creative Commons)
	Uray M. János
	2013-2018
-->
<!DOCTYPE svg PUBLIC "-//W3C//DTD SVG 1.1//EN" "http://www.w3.org/Graphics/SVG/1.1/DTD/svg11.dtd">
<svg width="128" height="128" viewBox="0 0 480 768" fill="none" xmlns="http://www.w3.org/2000/svg">
	<g clip-path="url(#clip0_12073_5374)">
		<path
			d="M275.321 216.974H204.55C204.55 216.974 193.713 405.257 179.259 434.811H300.617C286.163 405.257 275.321 216.974 275.321 216.974Z"
			fill="#E0D8C8" />
		<path
			d="M204.55 216.974C204.55 216.974 193.713 405.257 179.259 434.811H204.963C219.417 405.257 230.259 216.974 230.259 216.974H204.55Z"
			fill="#CCC4B4" />
		<path
			d="M366.413 571.474H113.459C57.9962 606.328 24.3378 667.236 24.3378 732.744V739.111H455.538V732.744C455.538 667.236 421.876 606.328 366.413 571.474Z"
			fill="#E0D8C8" />
		<path
			d="M139.163 571.474H113.459C57.9962 606.328 24.3378 667.236 24.3378 732.744V739.111H50.042V732.744C50.042 667.236 83.7004 606.328 139.163 571.474Z"
			fill="#CCC4B4" />
		<path
			d="M314.617 462.986H165.259C132.509 483.566 112.634 519.528 112.634 558.207V561.97H367.238V558.207C367.238 519.528 347.363 483.566 314.617 462.986Z"
			fill="#E0D8C8" />
		<path
			d="M190.963 462.986H165.259C132.509 483.566 112.634 519.528 112.634 558.207V561.97H138.338V558.207C138.338 519.528 158.213 483.566 190.963 462.986Z"
			fill="#CCC4B4" />
		<path
			d="M276.43 426.478C266.484 395.24 257.63 279.419 254.296 225.307H263.301C265.451 260.461 273.513 381.948 284.926 426.478H276.43Z"
			fill="#FFF7E4" />
		<path
			d="M433.988 730.778C433.463 675.969 410.859 625.023 371.917 588.336C416.23 622.278 442.434 674.278 443.026 730.778H433.988Z"
			fill="#FFF7E4" />
		<path
			d="M345.617 553.632C344.48 523.003 331.988 494.561 310.884 473.29C337.217 491.932 353.255 521.34 354.642 553.632H345.617Z"
			fill="#FFF7E4" />
		<path
			d="M403.255 601.686C394.255 592.194 384.176 583.623 373.209 576.057H106.663C95.6962 583.623 85.6171 592.194 76.6171 601.686C78.9004 603.277 81.6671 604.232 84.6629 604.232H395.209C398.205 604.232 400.971 603.277 403.255 601.686Z"
			fill="#CCC4B4" />
		<path
			d="M395.209 590.145H84.6629C76.8837 590.145 70.5754 583.836 70.5754 576.057C70.5754 568.274 76.8837 561.97 84.6629 561.97H395.209C402.988 561.97 409.296 568.274 409.296 576.057C409.296 583.836 402.988 590.145 395.209 590.145Z"
			fill="#E0D8C8" />
		<path
			d="M96.2796 576.057C96.2796 568.274 102.588 561.97 110.367 561.97H84.6629C76.8837 561.97 70.5754 568.274 70.5754 576.057C70.5754 583.836 76.8837 590.145 84.6629 590.145H110.367C102.588 590.145 96.2796 583.836 96.2796 576.057Z"
			fill="#CCC4B4" />
		<path
			d="M323.192 462.986H156.68C148.9 462.986 142.592 456.677 142.592 448.898C142.592 441.115 148.9 434.811 156.68 434.811H323.192C330.976 434.811 337.284 441.115 337.284 448.898C337.284 456.677 330.976 462.986 323.192 462.986Z"
			fill="#E0D8C8" />
		<path
			d="M330.409 475.028C325.546 470.603 320.288 466.549 314.617 462.986H165.259C159.584 466.549 154.33 470.603 149.463 475.028C151.58 476.299 154.03 477.074 156.68 477.074H323.196C325.842 477.074 328.292 476.299 330.409 475.028Z"
			fill="#CCC4B4" />
		<path
			d="M168.296 448.898C168.296 441.115 174.605 434.811 182.384 434.811H156.68C148.9 434.811 142.592 441.115 142.592 448.898C142.592 456.677 148.9 462.986 156.68 462.986H182.384C174.605 462.986 168.296 456.677 168.296 448.898Z"
			fill="#CCC4B4" />
		<path
			d="M465.788 767.286H14.0878C6.30448 767.286 0.000305176 760.982 0.000305176 753.199C0.000305176 745.42 6.30448 739.111 14.0878 739.111H465.788C473.567 739.111 479.876 745.42 479.876 753.199C479.876 760.982 473.567 767.286 465.788 767.286Z"
			fill="#E0D8C8" />
		<path
			d="M24.3378 732.745V739.111H455.538V732.745C455.538 732.007 455.476 731.278 455.467 730.545H24.4087C24.4003 731.278 24.3378 732.007 24.3378 732.745Z"
			fill="#CCC4B4" />
		<path
			d="M25.7045 753.199C25.7045 745.42 32.0087 739.111 39.792 739.111H14.0878C6.30448 739.111 0.000305176 745.42 0.000305176 753.199C0.000305176 760.982 6.30448 767.286 14.0878 767.286H39.792C32.0087 767.286 25.7045 760.982 25.7045 753.199Z"
			fill="#CCC4B4" />
		<path
			d="M285.234 231.061H194.642C186.859 231.061 180.555 224.752 180.555 216.973C180.555 209.194 186.859 202.886 194.642 202.886H285.234C293.013 202.886 299.321 209.194 299.321 216.973C299.321 224.752 293.013 231.061 285.234 231.061Z"
			fill="#E0D8C8" />
		<path
			d="M206.259 216.973C206.259 209.194 212.563 202.886 220.346 202.886H194.642C186.859 202.886 180.555 209.194 180.555 216.973C180.555 224.752 186.859 231.061 194.642 231.061H220.346C212.563 231.061 206.259 224.752 206.259 216.973Z"
			fill="#CCC4B4" />
		<path d="M276.076 175.652H203.796V202.886H276.076V175.652Z" fill="#E0D8C8" />
		<path d="M276.076 198.603H203.796V202.886H276.076V198.603Z" fill="#CCC4B4" />
		<path d="M229.505 175.652H203.796V202.886H229.505V175.652Z" fill="#CCC4B4" />
		<path
			d="M144.18 95.7524C144.18 148.636 187.05 191.507 239.938 191.507C292.821 191.507 335.692 148.636 335.692 95.7524C335.692 42.869 292.821 -0.00195312 239.938 -0.00195312C187.05 -0.00195312 144.18 42.869 144.18 95.7524Z"
			fill="#E0D8C8" />
		<path
			d="M265.501 28.7021C273.467 32.0605 280.971 36.9647 287.542 43.4313C313.755 69.2314 315.492 110.286 292.071 136.711C295.53 134.031 298.759 130.956 301.671 127.452C323.142 101.623 319.605 63.2772 293.771 41.8105C285.342 34.8021 275.576 30.4771 265.501 28.7021Z"
			fill="#FFF7E4" />
		<path
			d="M227.375 0.843674C180.43 6.99785 144.18 47.1271 144.18 95.7521C144.18 144.965 181.313 185.49 229.092 190.877C190.763 177.61 163.209 141.269 163.209 98.4271C163.209 48.8188 200.117 7.85617 247.971 1.43533C243.671 0.856167 239.288 0.53125 234.83 0.53125C232.321 0.53125 229.838 0.656174 227.375 0.843674Z"
			fill="#CCC4B4" />
	</g>
	<defs>
		<clipPath id="clip0_12073_5374">
			<rect width="480" height="768" fill="white" />
		</clipPath>
	</defs>
</svg>