<?xml version="1.0" encoding="UTF-8" standalone="no"?>
<!--
	Gyalog (fekete)
	Eredeti: http://en.wikipedia.org/wiki/File:Chess_pdt45.svg
	Felhasználási feltételek: Nevezd meg! - Így add tovább! (Creative Commons)
	Uray M. János
	2013-2018
-->
<!DOCTYPE svg PUBLIC "-//W3C//DTD SVG 1.1//EN" "http://www.w3.org/Graphics/SVG/1.1/DTD/svg11.dtd">
<svg width="128" height="128" viewBox="0 0 480 768" fill="none" xmlns="http://www.w3.org/2000/svg">
	<g clip-path="url(#clip0_12073_5368)">
		<path
			d="M275.321 216.965H204.55C204.55 216.965 193.713 405.256 179.259 434.84H300.617C286.163 405.256 275.321 216.965 275.321 216.965Z"
			fill="#453C37" />
		<path
			d="M204.55 216.965C204.55 216.965 193.713 405.256 179.259 434.84H204.963C219.417 405.256 230.259 216.965 230.259 216.965H204.55Z"
			fill="#141110" />
		<path
			d="M366.413 571.466H113.459C57.9962 606.341 24.3378 667.257 24.3378 732.757V739.133H455.538V732.757C455.538 667.257 421.876 606.341 366.413 571.466Z"
			fill="#453C37" />
		<path
			d="M139.163 571.466H113.459C57.9962 606.341 24.3378 667.257 24.3378 732.757V739.133H50.042V732.757C50.042 667.257 83.7004 606.341 139.163 571.466Z"
			fill="#141110" />
		<path
			d="M314.617 463.007H165.259C132.509 483.59 112.634 519.549 112.634 558.216V561.965H367.238V558.216C367.238 519.549 347.363 483.59 314.617 463.007Z"
			fill="#453C37" />
		<path
			d="M190.963 463.007H165.259C132.509 483.59 112.634 519.549 112.634 558.216V561.965H138.338V558.216C138.338 519.549 158.213 483.59 190.963 463.007Z"
			fill="#141110" />
		<path
			d="M276.43 426.507C266.484 395.257 257.63 279.424 254.296 225.299H263.301C265.451 260.466 273.513 381.965 284.926 426.507H276.43Z"
			fill="#C7B7AE" />
		<path
			d="M433.988 730.799C433.463 675.966 410.859 625.049 371.917 588.341C416.23 622.299 442.434 674.299 443.026 730.799H433.988Z"
			fill="#C7B7AE" />
		<path
			d="M345.617 553.632C344.48 523.007 331.988 494.591 310.884 473.299C337.217 491.924 353.255 521.34 354.642 553.632H345.617Z"
			fill="#C7B7AE" />
		<path
			d="M403.255 601.716C394.255 592.216 384.176 583.632 373.209 576.049H106.663C95.6962 583.632 85.6171 592.216 76.6171 601.716C78.9004 603.299 81.6671 604.257 84.6629 604.257H395.209C398.205 604.257 400.971 603.299 403.255 601.716Z"
			fill="#141110" />
		<path
			d="M395.209 590.173H84.6629C76.8837 590.173 70.5754 583.84 70.5754 576.048C70.5754 568.298 76.8837 561.965 84.6629 561.965H395.209C402.988 561.965 409.296 568.298 409.296 576.048C409.296 583.84 402.988 590.173 395.209 590.173Z"
			fill="#453C37" />
		<path
			d="M96.2796 576.048C96.2796 568.298 102.588 561.965 110.367 561.965H84.6629C76.8837 561.965 70.5754 568.298 70.5754 576.048C70.5754 583.84 76.8837 590.173 84.6629 590.173H110.367C102.588 590.173 96.2796 583.84 96.2796 576.048Z"
			fill="#141110" />
		<path
			d="M323.192 463.007H156.68C148.9 463.007 142.592 456.673 142.592 448.923C142.592 441.132 148.9 434.84 156.68 434.84H323.192C330.976 434.84 337.284 441.132 337.284 448.923C337.284 456.673 330.976 463.007 323.192 463.007Z"
			fill="#453C37" />
		<path
			d="M330.409 475.049C325.546 470.632 320.288 466.549 314.617 463.007H165.259C159.584 466.549 154.33 470.632 149.463 475.049C151.58 476.299 154.03 477.09 156.68 477.09H323.196C325.842 477.09 328.292 476.299 330.409 475.049Z"
			fill="#141110" />
		<path
			d="M168.296 448.923C168.296 441.132 174.605 434.84 182.384 434.84H156.68C148.9 434.84 142.592 441.132 142.592 448.923C142.592 456.673 148.9 463.007 156.68 463.007H182.384C174.605 463.007 168.296 456.673 168.296 448.923Z"
			fill="#141110" />
		<path
			d="M465.788 767.299H14.0878C6.30448 767.299 0.000305176 761.007 0.000305176 753.215C0.000305176 745.424 6.30448 739.132 14.0878 739.132H465.788C473.567 739.132 479.876 745.424 479.876 753.215C479.876 761.007 473.567 767.299 465.788 767.299Z"
			fill="#453C37" />
		<path
			d="M24.3378 732.757V739.132H455.538V732.757C455.538 732.007 455.476 731.299 455.467 730.549H24.4087C24.4003 731.299 24.3378 732.007 24.3378 732.757Z"
			fill="#141110" />
		<path
			d="M25.7045 753.215C25.7045 745.424 32.0087 739.132 39.792 739.132H14.0878C6.30448 739.132 0.000305176 745.424 0.000305176 753.215C0.000305176 761.007 6.30448 767.299 14.0878 767.299H39.792C32.0087 767.299 25.7045 761.007 25.7045 753.215Z"
			fill="#141110" />
		<path
			d="M285.234 231.09H194.642C186.859 231.09 180.555 224.757 180.555 216.965C180.555 209.215 186.859 202.882 194.642 202.882H285.234C293.013 202.882 299.321 209.215 299.321 216.965C299.321 224.757 293.013 231.09 285.234 231.09Z"
			fill="#453C37" />
		<path
			d="M206.259 216.965C206.259 209.215 212.563 202.882 220.346 202.882H194.642C186.859 202.882 180.555 209.215 180.555 216.965C180.555 224.757 186.859 231.09 194.642 231.09H220.346C212.563 231.09 206.259 224.757 206.259 216.965Z"
			fill="#141110" />
		<path d="M276.076 175.665H203.796V202.882H276.076V175.665Z" fill="#453C37" />
		<path d="M276.076 198.632H203.796V202.882H276.076V198.632Z" fill="#141110" />
		<path d="M229.505 175.661H203.796V202.882H229.505V175.661Z" fill="#141110" />
		<path
			d="M144.18 95.7652C144.18 148.649 187.05 191.52 239.938 191.52C292.821 191.52 335.692 148.649 335.692 95.7652C335.692 42.8777 292.821 0.00683594 239.938 0.00683594C187.05 0.00683594 144.18 42.8777 144.18 95.7652Z"
			fill="#453C37" />
		<path
			d="M265.501 28.7148C273.467 32.0732 280.971 36.9734 287.542 43.4401C313.755 69.2443 315.492 110.298 292.071 136.719C295.53 134.044 298.759 130.969 301.671 127.465C323.142 101.636 319.605 63.2901 293.771 41.8234C285.342 34.8151 275.576 30.4898 265.501 28.7148Z"
			fill="#C7B7AE" />
		<path
			d="M227.375 0.852427C180.43 7.01077 144.18 47.1399 144.18 95.765C144.18 144.978 181.313 185.503 229.092 190.89C190.763 177.623 163.209 141.282 163.209 98.4398C163.209 48.8315 200.117 7.86912 247.971 1.44828C243.671 0.869117 239.288 0.543945 234.83 0.543945C232.321 0.543945 229.838 0.669094 227.375 0.852427Z"
			fill="#141110" />
	</g>
	<defs>
		<clipPath id="clip0_12073_5368">
			<rect width="480" height="768" fill="white" />
		</clipPath>
	</defs>
</svg>