<?xml version="1.0" encoding="UTF-8" standalone="no"?>
<!--
	Vezér (fehér)
	Eredeti: http://en.wikipedia.org/wiki/File:Chess_qlt45.svg
	Felhasználási feltételek: Nevezd meg! - Így add tovább! (Creative Commons)
	Uray M. János
	2013-2018
-->
<!DOCTYPE svg PUBLIC "-//W3C//DTD SVG 1.1//EN" "http://www.w3.org/Graphics/SVG/1.1/DTD/svg11.dtd">
<svg width="128" height="128" viewBox="0 0 467 951" fill="none" xmlns="http://www.w3.org/2000/svg">
	<g clip-path="url(#clip0_12073_5379)">
		<path
			d="M189.855 43.3132C189.855 67.2341 209.243 86.6216 233.164 86.6216C257.085 86.6216 276.472 67.2341 276.472 43.3132C276.472 19.3924 257.085 0.00488281 233.164 0.00488281C209.243 0.00488281 189.855 19.3924 189.855 43.3132Z"
			fill="#E0D8C8" />
		<path
			d="M273.768 58.2637C246.697 59.4928 219.63 59.4928 192.56 58.2637C198.655 74.8054 214.51 86.622 233.164 86.622C251.818 86.622 267.672 74.8054 273.768 58.2637Z"
			fill="#CCC4B4" />
		<path
			d="M221.597 43.3135C221.597 25.001 232.976 9.38016 249.035 3.04682C244.114 1.10516 238.772 0.000976562 233.164 0.000976562C209.243 0.000976562 189.855 19.3927 189.855 43.3135C189.855 67.2344 209.243 86.6219 233.164 86.6219C238.772 86.6219 244.114 85.5219 249.035 83.5802C232.976 77.2469 221.597 61.626 221.597 43.3135Z"
			fill="#CCC4B4" />
		<path
			d="M445.306 916.689V922.981H21.0137V916.689C21.0137 884.439 29.3053 853.356 44.3886 826.023C59.5136 798.731 81.4303 775.189 108.722 758.022H357.597C412.181 792.314 445.306 852.231 445.306 916.689Z"
			fill="#E0D8C8" />
		<path
			d="M416.035 910.464C414.393 856.493 391.447 806.539 352.677 770.522H353.939C401.656 801.835 430.71 853.56 432.689 910.464H416.035Z"
			fill="#FFF7E4" />
		<path
			d="M137.889 758.022C83.3053 792.314 50.1804 852.231 50.1804 916.689V922.981H21.0137V916.689C21.0137 884.439 29.3053 853.356 44.3886 826.023C59.5136 798.731 81.4303 775.189 108.722 758.022H137.889Z"
			fill="#CCC4B4" />
		<path
			d="M393.856 787.743C385.001 778.406 375.085 769.972 364.293 762.526H102.035C91.2429 769.972 81.3261 778.406 72.4719 787.743C74.7178 789.314 77.4387 790.247 80.3887 790.247H385.939C388.889 790.247 391.61 789.314 393.856 787.743Z"
			fill="#CCC4B4" />
		<path
			d="M385.939 776.389H80.3887C72.7304 776.389 66.5261 770.181 66.5261 762.527C66.5261 754.873 72.7304 748.664 80.3887 748.664H385.939C393.597 748.664 399.801 754.873 399.801 762.527C399.801 770.181 393.597 776.389 385.939 776.389Z"
			fill="#E0D8C8" />
		<path
			d="M108.193 762.527C108.193 754.873 114.397 748.664 122.055 748.664H80.3887C72.7304 748.664 66.5261 754.873 66.5261 762.527C66.5261 770.181 72.7304 776.389 80.3887 776.389H122.055C114.397 776.389 108.193 770.181 108.193 762.527Z"
			fill="#CCC4B4" />
		<path
			d="M452.468 950.685H13.8594C6.20526 950.685 -0.00292969 944.481 -0.00292969 936.826C-0.00292969 929.168 6.20526 922.964 13.8594 922.964H452.468C460.123 922.964 466.331 929.168 466.331 936.826C466.331 944.481 460.123 950.685 452.468 950.685Z"
			fill="#E0D8C8" />
		<path d="M21.0303 916.697V922.964H445.297V916.697L445.281 916.102H21.0471L21.0303 916.697Z" fill="#CCC4B4" />
		<path
			d="M41.6638 936.826C41.6638 929.168 47.872 922.964 55.5261 922.964H13.8594C6.20526 922.964 -0.00292969 929.168 -0.00292969 936.826C-0.00292969 944.481 6.20526 950.685 13.8594 950.685H55.5261C47.872 950.685 41.6638 944.481 41.6638 936.826Z"
			fill="#CCC4B4" />
		<path
			d="M311.135 335.606H155.193C147.535 335.606 141.33 329.398 141.33 321.743C141.33 314.089 147.535 307.881 155.193 307.881H311.135C318.789 307.881 324.997 314.089 324.997 321.743C324.997 329.398 318.789 335.606 311.135 335.606Z"
			fill="#E0D8C8" />
		<path
			d="M182.997 321.743C182.997 314.089 189.201 307.881 196.86 307.881H155.193C147.535 307.881 141.33 314.089 141.33 321.743C141.33 329.398 147.535 335.606 155.193 335.606H196.86C189.201 335.606 182.997 329.398 182.997 321.743Z"
			fill="#CCC4B4" />
		<path
			d="M311.135 291.356H155.193C147.535 291.356 141.33 285.148 141.33 277.493C141.33 269.839 147.535 263.631 155.193 263.631H311.135C318.789 263.631 324.997 269.839 324.997 277.493C324.997 285.148 318.789 291.356 311.135 291.356Z"
			fill="#E0D8C8" />
		<path
			d="M182.997 277.493C182.997 269.839 189.201 263.631 196.86 263.631H155.193C147.535 263.631 141.33 269.839 141.33 277.493C141.33 285.148 147.535 291.356 155.193 291.356H196.86C189.201 291.356 182.997 285.148 182.997 277.493Z"
			fill="#CCC4B4" />
		<path d="M308.218 291.355H158.11V307.88H308.218V291.355Z" fill="#E0D8C8" />
		<path d="M199.776 291.355H158.11V307.88H199.776V291.355Z" fill="#CCC4B4" />
		<path d="M308.218 247.102H158.11V263.631H308.218V247.102Z" fill="#E0D8C8" />
		<path d="M199.776 247.102H158.11V263.631H199.776V247.102Z" fill="#CCC4B4" />
		<path
			d="M357.597 748.647H108.722C184.139 581.522 183.139 407.647 175.805 349.48C175.055 343.647 174.264 338.98 173.472 335.605H292.847C292.056 338.98 291.264 343.647 290.514 349.48C283.181 407.647 282.181 581.522 357.597 748.647Z"
			fill="#E0D8C8" />
		<path
			d="M137.889 748.647H108.722C184.139 581.522 183.139 407.647 175.805 349.48C175.055 343.647 174.264 338.98 173.472 335.605H202.639C211.347 372.772 220.847 564.772 137.889 748.647Z"
			fill="#CCC4B4" />
		<path
			d="M292.847 335.605C292.056 338.98 291.264 343.647 290.514 349.48H175.805C175.055 343.647 174.264 338.98 173.472 335.605H292.847Z"
			fill="#CCC4B4" />
		<path d="M347.731 232.085L336.772 247.102H129.556L118.597 232.085H347.731Z" fill="#CCC4B4" />
		<path d="M347.731 232.085L336.772 217.068H129.556L118.597 232.085H347.731Z" fill="#E0D8C8" />
		<path d="M129.556 217.068L118.597 232.085H160.264L171.222 217.068H129.556Z" fill="#CCC4B4" />
		<path
			d="M376.847 116.605L336.764 217.064H129.556L89.4723 116.605C78.5139 89.1468 96.8889 59.9385 124.306 56.1468C127.847 55.6468 131.556 55.5634 135.347 55.9801C200.556 63.1468 265.764 63.1468 330.973 55.9801C364.181 52.3551 389.222 85.6051 376.847 116.605Z"
			fill="#E0D8C8" />
		<path d="M336.772 212.901H129.555L128.48 214.372L129.555 217.068H336.772L337.847 214.372L336.772 212.901Z"
			fill="#CCC4B4" />
		<path
			d="M158.722 217.063H129.556L89.4723 116.605C78.5139 89.1465 96.8889 59.9382 124.306 56.1465C131.306 56.8965 138.389 57.5631 145.389 58.1465C122.639 65.9798 108.806 91.9798 118.639 116.605L158.722 217.063Z"
			fill="#CCC4B4" />
		<path
			d="M324.064 736.168C249.064 564.776 255.351 395.301 261.718 348.105H278.035C269.843 410.531 271.631 576.439 338.543 736.168H324.064Z"
			fill="#FFF7E4" />
		<path
			d="M313.552 204.568L346.789 121.256C352.614 106.651 352.239 90.7931 345.735 76.6015C344.468 73.8431 342.993 71.1973 341.327 68.6973C349.627 70.1681 357.114 74.9931 362.014 82.2181C368.051 91.1306 369.227 101.985 365.231 111.993L328.301 204.568H313.552Z"
			fill="#FFF7E4" />
	</g>
	<defs>
		<clipPath id="clip0_12073_5379">
			<rect width="467" height="951" fill="white" />
		</clipPath>
	</defs>
</svg>