<?xml version="1.0" encoding="UTF-8" standalone="no"?>
<!--
	Vezér (fekete)
	Eredeti: http://en.wikipedia.org/wiki/File:Chess_qdt45.svg
	Felhasználási feltételek: Nevezd meg! - Így add tovább! (Creative Commons)
	Uray M. János
	2013-2018
-->
<!DOCTYPE svg PUBLIC "-//W3C//DTD SVG 1.1//EN" "http://www.w3.org/Graphics/SVG/1.1/DTD/svg11.dtd">
<svg width="128" height="128" viewBox="0 0 467 951" fill="none" xmlns="http://www.w3.org/2000/svg">
	<g clip-path="url(#clip0_12073_5373)">
		<path
			d="M189.855 43.3146C189.855 67.2313 209.243 86.6229 233.164 86.6229C257.085 86.6229 276.472 67.2313 276.472 43.3146C276.472 19.3937 257.085 0.00195312 233.164 0.00195312C209.243 0.00195312 189.855 19.3937 189.855 43.3146Z"
			fill="#453C37" />
		<path
			d="M273.768 58.2646C246.697 59.4938 219.63 59.4938 192.56 58.2646C198.655 74.8063 214.51 86.6229 233.164 86.6229C251.818 86.6229 267.672 74.8063 273.768 58.2646Z"
			fill="#141110" />
		<path
			d="M221.597 43.3146C221.597 25.0021 232.976 9.3813 249.035 3.0438C244.114 1.10629 238.772 0.00195312 233.164 0.00195312C209.243 0.00195312 189.855 19.3937 189.855 43.3146C189.855 67.2313 209.243 86.6229 233.164 86.6229C238.772 86.6229 244.114 85.5229 249.035 83.5813C232.976 77.2438 221.597 61.6229 221.597 43.3146Z"
			fill="#141110" />
		<path
			d="M445.306 916.69V922.982H21.0137V916.69C21.0137 884.44 29.3053 853.357 44.3886 826.024C59.5136 798.732 81.4303 775.19 108.722 758.023H357.597C412.181 792.315 445.306 852.232 445.306 916.69Z"
			fill="#453C37" />
		<path
			d="M416.035 910.461C414.393 856.49 391.447 806.54 352.677 770.52H353.939C401.651 801.836 430.71 853.565 432.689 910.461H416.035Z"
			fill="#C7B7AE" />
		<path
			d="M137.889 758.023C83.3053 792.315 50.1804 852.232 50.1804 916.69V922.982H21.0137V916.69C21.0137 884.44 29.3053 853.357 44.3886 826.024C59.5136 798.732 81.4303 775.19 108.722 758.023H137.889Z"
			fill="#141110" />
		<path
			d="M393.856 787.744C385.001 778.407 375.085 769.973 364.293 762.527H102.035C91.2429 769.973 81.3261 778.407 72.4719 787.744C74.7178 789.311 77.4387 790.248 80.3887 790.248H385.939C388.889 790.248 391.61 789.315 393.856 787.744Z"
			fill="#141110" />
		<path
			d="M385.939 776.386H80.3887C72.7304 776.386 66.5261 770.182 66.5261 762.528C66.5261 754.869 72.7304 748.665 80.3887 748.665H385.939C393.597 748.665 399.801 754.869 399.801 762.528C399.801 770.182 393.597 776.386 385.939 776.386Z"
			fill="#453C37" />
		<path
			d="M108.193 762.528C108.193 754.869 114.397 748.665 122.055 748.665H80.3887C72.7304 748.665 66.5261 754.869 66.5261 762.528C66.5261 770.182 72.7304 776.386 80.3887 776.386H122.055C114.397 776.386 108.193 770.182 108.193 762.528Z"
			fill="#141110" />
		<path
			d="M452.468 950.686H13.8594C6.20526 950.686 -0.00292969 944.481 -0.00292969 936.823C-0.00292969 929.169 6.20526 922.965 13.8594 922.965H452.468C460.123 922.965 466.331 929.169 466.331 936.823C466.331 944.481 460.123 950.686 452.468 950.686Z"
			fill="#453C37" />
		<path d="M21.0303 916.698V922.965H445.297V916.698L445.281 916.103H21.0471L21.0303 916.698Z" fill="#141110" />
		<path
			d="M41.6638 936.823C41.6638 929.169 47.872 922.965 55.5261 922.965H13.8594C6.20526 922.965 -0.00292969 929.169 -0.00292969 936.823C-0.00292969 944.477 6.20526 950.686 13.8594 950.686H55.5261C47.872 950.686 41.6638 944.477 41.6638 936.823Z"
			fill="#141110" />
		<path
			d="M311.135 335.603H155.193C147.535 335.603 141.33 329.398 141.33 321.744C141.33 314.086 147.535 307.882 155.193 307.882H311.135C318.789 307.882 324.997 314.086 324.997 321.744C324.997 329.398 318.789 335.603 311.135 335.603Z"
			fill="#453C37" />
		<path
			d="M182.997 321.744C182.997 314.086 189.201 307.882 196.86 307.882H155.193C147.535 307.882 141.33 314.086 141.33 321.744C141.33 329.398 147.535 335.603 155.193 335.603H196.86C189.201 335.603 182.997 329.398 182.997 321.744Z"
			fill="#141110" />
		<path
			d="M311.135 291.353H155.193C147.535 291.353 141.33 285.148 141.33 277.494C141.33 269.836 147.535 263.632 155.193 263.632H311.135C318.789 263.632 324.997 269.836 324.997 277.494C324.997 285.148 318.789 291.353 311.135 291.353Z"
			fill="#453C37" />
		<path
			d="M182.997 277.494C182.997 269.836 189.201 263.632 196.86 263.632H155.193C147.535 263.632 141.33 269.836 141.33 277.494C141.33 285.148 147.535 291.353 155.193 291.353H196.86C189.201 291.353 182.997 285.148 182.997 277.494Z"
			fill="#141110" />
		<path d="M308.218 291.353H158.11V307.882H308.218V291.353Z" fill="#453C37" />
		<path d="M199.776 291.353H158.11V307.882H199.776V291.353Z" fill="#141110" />
		<path d="M308.218 247.103H158.11V263.632H308.218V247.103Z" fill="#453C37" />
		<path d="M199.776 247.103H158.11V263.632H199.776V247.103Z" fill="#141110" />
		<path
			d="M357.597 748.648H108.722C184.139 581.523 183.139 407.648 175.805 349.481C175.055 343.648 174.264 338.981 173.472 335.606H292.847C292.056 338.981 291.264 343.648 290.514 349.481C283.181 407.648 282.181 581.523 357.597 748.648Z"
			fill="#453C37" />
		<path
			d="M137.889 748.648H108.722C184.139 581.523 183.139 407.648 175.805 349.481C175.055 343.648 174.264 338.981 173.472 335.606H202.639C211.347 372.773 220.847 564.773 137.889 748.648Z"
			fill="#141110" />
		<path
			d="M292.847 335.606C292.056 338.981 291.264 343.648 290.514 349.481H175.805C175.055 343.648 174.264 338.981 173.472 335.606H292.847Z"
			fill="#141110" />
		<path d="M347.731 232.086L336.772 247.103H129.556L118.597 232.086H347.731Z" fill="#141110" />
		<path d="M347.731 232.085L336.772 217.068H129.556L118.597 232.085H347.731Z" fill="#453C37" />
		<path d="M129.556 217.068L118.597 232.085H160.264L171.222 217.068H129.556Z" fill="#141110" />
		<path
			d="M376.847 116.606L336.764 217.064H129.556L89.4723 116.606C78.5139 89.1477 96.8889 59.9393 124.306 56.1477C127.847 55.6477 131.556 55.5644 135.347 55.9811C200.556 63.1478 265.764 63.1478 330.973 55.9811C364.181 52.3561 389.222 85.6061 376.847 116.606Z"
			fill="#453C37" />
		<path d="M336.772 212.902H129.555L128.48 214.373L129.555 217.069H336.772L337.847 214.373L336.772 212.902Z"
			fill="#141110" />
		<path
			d="M158.722 217.065H129.556L89.4723 116.607C78.5139 89.1485 96.8889 59.9401 124.306 56.1484C131.306 56.8984 138.389 57.565 145.389 58.1484C122.639 65.9817 108.806 91.9818 118.639 116.607L158.722 217.065Z"
			fill="#141110" />
		<path
			d="M324.064 736.165C249.064 564.777 255.351 395.302 261.718 348.106H278.035C269.843 410.531 271.631 576.436 338.543 736.165H324.064Z"
			fill="#C7B7AE" />
		<path
			d="M313.552 204.564L346.789 121.252C352.614 106.647 352.239 90.7933 345.735 76.6016C344.468 73.8391 342.993 71.1973 341.327 68.6973C349.627 70.1681 357.114 74.9933 362.014 82.2183C368.051 91.1309 369.227 101.981 365.231 111.993L328.301 204.564H313.552Z"
			fill="#C7B7AE" />
	</g>
	<defs>
		<clipPath id="clip0_12073_5373">
			<rect width="467" height="951" fill="white" />
		</clipPath>
	</defs>
</svg>