<?xml version="1.0" encoding="UTF-8" standalone="no"?>
<!--
	Bástya (fekete)
	Eredeti: http://en.wikipedia.org/wiki/File:Chess_rdt45.svg
	Felhasználási feltételek: Nevezd meg! - Így add tovább! (Creative Commons)
	Uray M. János
	2013-2018
-->
<!DOCTYPE svg PUBLIC "-//W3C//DTD SVG 1.1//EN" "http://www.w3.org/Graphics/SVG/1.1/DTD/svg11.dtd">
<svg width="128" height="128" viewBox="0 0 467 772" fill="none" xmlns="http://www.w3.org/2000/svg">
	<g clip-path="url(#clip0_12073_5369)">
		<path
			d="M445.892 737.373V743.665H20.4752V737.373C20.4752 705.04 28.7669 673.873 43.9336 646.498C59.0586 619.082 81.0169 595.457 108.392 578.29H357.934C412.684 612.665 445.892 672.748 445.892 737.373Z"
			fill="#453C37" />
		<path
			d="M137.559 578.29C82.8503 612.665 49.6419 672.748 49.6419 737.373V743.665H20.4752V737.373C20.4752 705.04 28.7669 673.873 43.9336 646.498C59.0586 619.082 81.0169 595.457 108.392 578.29H137.559Z"
			fill="#141110" />
		<path
			d="M416.617 731.169C414.976 677.019 391.946 626.898 353.034 590.777H354.28C402.146 622.19 431.292 674.086 433.271 731.169H416.617Z"
			fill="#C7B7AE" />
		<path
			d="M394.296 608.082C385.417 598.719 375.475 590.265 364.655 582.794H101.679C90.8586 590.265 80.9127 598.719 72.0336 608.082C74.2877 609.657 77.0169 610.594 79.9752 610.594H386.359C389.317 610.594 392.042 609.657 394.296 608.082Z"
			fill="#141110" />
		<path
			d="M335.313 242.419H131.017C123.342 242.419 117.121 236.198 117.121 228.523C117.121 220.844 123.342 214.623 131.017 214.623H335.313C342.988 214.623 349.213 220.844 349.213 228.523C349.213 236.198 342.988 242.419 335.313 242.419Z"
			fill="#453C37" />
		<path
			d="M158.788 228.523C158.788 220.844 165.009 214.623 172.684 214.623H131.017C123.342 214.623 117.121 220.844 117.121 228.523C117.121 236.198 123.342 242.419 131.017 242.419H172.684C165.009 242.419 158.788 236.198 158.788 228.523Z"
			fill="#141110" />
		<path d="M322.296 198.048H144.034V214.623H322.296V198.048Z" fill="#453C37" />
		<path d="M322.296 210.457H144.034V214.624H322.296V210.457Z" fill="#141110" />
		<path d="M173.184 198.048H144.034V214.623H173.184V198.048Z" fill="#141110" />
		<path
			d="M357.934 568.915H108.392C137.1 439.04 143.1 318.498 143.892 256.332C143.975 251.29 144.017 246.665 144.017 242.415H322.309C322.309 246.665 322.35 251.29 322.434 256.332C323.225 318.498 329.225 439.04 357.934 568.915Z"
			fill="#453C37" />
		<path
			d="M173.184 242.415C173.1 299.04 168.6 428.54 137.559 568.915H108.392C137.1 439.04 143.1 318.498 143.892 256.332C143.975 251.29 144.017 246.665 144.017 242.415H173.184Z"
			fill="#141110" />
		<path
			d="M326.359 556.399C298.921 427.732 293.888 310.361 293.217 254.919H309.884C310.542 310.419 315.513 427.465 342.475 556.399H326.359Z"
			fill="#C7B7AE" />
		<path d="M376.975 137.623L322.309 198.04H144.017L89.3503 137.623H376.975Z" fill="#453C37" />
		<path d="M173.184 198.04H144.017L89.3503 137.623H118.517L173.184 198.04Z" fill="#141110" />
		<path d="M299.4 189.718L338.992 145.939H358.192L318.596 189.718H299.4Z" fill="#C7B7AE" />
		<path d="M376.975 118.581H89.3503V137.623H376.975V118.581Z" fill="#453C37" />
		<path
			d="M376.975 -0.00195312V118.581H89.3503V-0.00195312H130.35V59.2897H170.767V-0.00195312H212.975V59.2897H253.35V-0.00195312H295.559V59.2897H335.975V-0.00195312H376.975Z"
			fill="#453C37" />
		<path d="M118.517 118.581H89.3503V137.623H118.517V118.581Z" fill="#141110" />
		<path d="M274.834 0.0107422H254.63V59.2983H274.834V0.0107422Z" fill="#141110" />
		<path d="M356.759 0.0107422H337.225V59.2983H356.759V0.0107422Z" fill="#141110" />
		<path d="M118.517 59.2897V118.581H89.3503V-0.00195312H117.85V59.2897H118.517Z" fill="#141110" />
		<path d="M192.238 0.0107422H172.034V59.2983H192.238V0.0107422Z" fill="#141110" />
		<path
			d="M466.351 757.623C466.351 760.165 465.684 762.498 464.476 764.54C463.851 765.581 463.142 766.54 462.267 767.415C459.767 769.915 456.309 771.456 452.476 771.456H13.8502C8.76687 771.456 4.26685 768.665 1.89185 764.54C0.683516 762.498 0.0168457 760.165 0.0168457 757.623C0.0168457 753.79 1.55852 750.331 4.05852 747.79C6.60019 745.29 10.0169 743.748 13.8502 743.748H452.476C460.142 743.748 466.351 749.956 466.351 757.623Z"
			fill="#453C37" />
		<path
			d="M20.4543 737.386V743.669H445.88V737.386C445.88 734.873 445.738 732.382 445.638 734.048H20.6918C20.5918 732.382 20.4543 734.873 20.4543 737.386Z"
			fill="#141110" />
		<path
			d="M41.6669 757.607C41.6669 749.948 47.8711 743.744 55.5252 743.744H13.8585C6.20436 743.744 0.000183105 749.948 0.000183105 757.607C0.000183105 765.261 6.20436 771.465 13.8585 771.465H55.5252C47.8711 771.465 41.6669 765.261 41.6669 757.607Z"
			fill="#141110" />
		<path
			d="M386.359 596.694H79.9753C72.2961 596.694 66.0753 590.473 66.0753 582.794C66.0753 575.119 72.2961 568.898 79.9753 568.898H386.359C394.034 568.898 400.259 575.119 400.259 582.794C400.259 590.473 394.034 596.694 386.359 596.694Z"
			fill="#453C37" />
		<path
			d="M107.742 582.794C107.742 575.119 113.963 568.898 121.642 568.898H79.9753C72.2961 568.898 66.0753 575.119 66.0753 582.794C66.0753 590.473 72.2961 596.694 79.9753 596.694H121.642C113.963 596.694 107.742 590.473 107.742 582.794Z"
			fill="#141110" />
		<path
			d="M322.434 256.332H143.892C143.975 251.29 144.017 246.665 144.017 242.415H322.309C322.309 246.665 322.35 251.29 322.434 256.332Z"
			fill="#141110" />
	</g>
	<defs>
		<clipPath id="clip0_12073_5369">
			<rect width="467" height="772" fill="white" />
		</clipPath>
	</defs>
</svg>