<?xml version="1.0" encoding="UTF-8" standalone="no"?>
<!--
	Bástya (fehér)
	Eredeti: http://en.wikipedia.org/wiki/File:Chess_rlt45.svg
	Felhasználási feltételek: Nevezd meg! - Így add tovább! (Creative Commons)
	Uray M. János
	2013-2018
-->
<!DOCTYPE svg PUBLIC "-//W3C//DTD SVG 1.1//EN" "http://www.w3.org/Graphics/SVG/1.1/DTD/svg11.dtd">
<svg width="128" height="128" viewBox="0 0 467 772" fill="none" xmlns="http://www.w3.org/2000/svg">
	<g clip-path="url(#clip0_12073_5375)">
		<path
			d="M445.892 737.381V743.673H20.4752V737.381C20.4752 705.048 28.7669 673.881 43.9336 646.506C59.0586 619.09 81.0169 595.465 108.392 578.298H357.934C412.684 612.673 445.892 672.756 445.892 737.381Z"
			fill="#E0D8C8" />
		<path
			d="M137.559 578.298C82.8503 612.673 49.6419 672.756 49.6419 737.381V743.673H20.4752V737.381C20.4752 705.048 28.7669 673.881 43.9336 646.506C59.0586 619.09 81.0169 595.465 108.392 578.298H137.559Z"
			fill="#CCC4B4" />
		<path
			d="M416.617 731.177C414.976 677.027 391.946 626.906 353.034 590.785H354.28C402.146 622.198 431.292 674.094 433.271 731.177H416.617Z"
			fill="#FFF7E4" />
		<path
			d="M394.296 608.09C385.417 598.727 375.475 590.273 364.655 582.807H101.679C90.8586 590.273 80.9127 598.727 72.0336 608.09C74.2877 609.665 77.0169 610.602 79.9752 610.602H386.359C389.317 610.602 392.042 609.665 394.296 608.09Z"
			fill="#CCC4B4" />
		<path
			d="M335.313 242.431H131.017C123.342 242.431 117.121 236.206 117.121 228.531C117.121 220.856 123.342 214.631 131.017 214.631H335.313C342.988 214.631 349.213 220.856 349.213 228.531C349.213 236.206 342.988 242.431 335.313 242.431Z"
			fill="#E0D8C8" />
		<path
			d="M158.788 228.531C158.788 220.856 165.009 214.631 172.684 214.631H131.017C123.342 214.631 117.121 220.856 117.121 228.531C117.121 236.206 123.342 242.431 131.017 242.431H172.684C165.009 242.431 158.788 236.206 158.788 228.531Z"
			fill="#CCC4B4" />
		<path d="M322.296 198.061H144.034V214.631H322.296V198.061Z" fill="#E0D8C8" />
		<path d="M322.296 210.465H144.034V214.632H322.296V210.465Z" fill="#CCC4B4" />
		<path d="M173.184 198.061H144.034V214.631H173.184V198.061Z" fill="#CCC4B4" />
		<path
			d="M357.934 568.923H108.392C137.1 439.048 143.1 318.506 143.892 256.34C143.975 251.298 144.017 246.673 144.017 242.423H322.309C322.309 246.673 322.35 251.298 322.434 256.34C323.225 318.506 329.225 439.048 357.934 568.923Z"
			fill="#E0D8C8" />
		<path
			d="M173.184 242.423C173.1 299.048 168.6 428.548 137.559 568.923H108.392C137.1 439.048 143.1 318.506 143.892 256.34C143.975 251.298 144.017 246.673 144.017 242.423H173.184Z"
			fill="#CCC4B4" />
		<path
			d="M326.359 556.406C298.921 427.739 293.888 310.368 293.217 254.927H309.884C310.542 310.431 315.513 427.477 342.475 556.406H326.359Z"
			fill="#FFF7E4" />
		<path d="M376.975 137.631L322.309 198.048H144.017L89.3503 137.631H376.975Z" fill="#E0D8C8" />
		<path d="M173.184 198.048H144.017L89.3503 137.631H118.517L173.184 198.048Z" fill="#CCC4B4" />
		<path d="M299.405 189.727L338.992 145.952H358.188L318.596 189.727H299.405Z" fill="#FFF7E4" />
		<path d="M376.975 118.59H89.3503V137.631H376.975V118.59Z" fill="#E0D8C8" />
		<path
			d="M376.975 0.00585938V118.589H89.3503V0.00585938H130.35V59.2976H170.767V0.00585938H212.975V59.2976H253.35V0.00585938H295.559V59.2976H335.975V0.00585938H376.975Z"
			fill="#E0D8C8" />
		<path d="M118.517 118.59H89.3503V137.631H118.517V118.59Z" fill="#CCC4B4" />
		<path d="M274.834 0.0185547H254.63V59.3102H274.834V0.0185547Z" fill="#CCC4B4" />
		<path d="M356.759 0.0185547H337.225V59.3102H356.759V0.0185547Z" fill="#CCC4B4" />
		<path d="M118.517 59.2976V118.589H89.3503V0.00585938H117.85V59.2976H118.517Z" fill="#CCC4B4" />
		<path d="M192.238 0.0185547H172.034V59.3102H192.238V0.0185547Z" fill="#CCC4B4" />
		<path
			d="M466.351 757.632C466.351 760.174 465.684 762.507 464.476 764.549C463.851 765.59 463.142 766.549 462.267 767.424C459.767 769.924 456.309 771.465 452.476 771.465H13.8502C8.76687 771.465 4.26685 768.674 1.89185 764.549C0.683516 762.507 0.0168457 760.174 0.0168457 757.632C0.0168457 753.799 1.55852 750.34 4.05852 747.799C6.60019 745.299 10.0169 743.757 13.8502 743.757H452.476C460.142 743.757 466.351 749.965 466.351 757.632Z"
			fill="#E0D8C8" />
		<path
			d="M20.4543 737.394V743.677H445.88V737.394C445.88 734.881 445.738 732.39 445.638 734.056H20.6918C20.5918 732.39 20.4543 734.881 20.4543 737.394Z"
			fill="#CCC4B4" />
		<path
			d="M41.6669 757.614C41.6669 749.96 47.8711 743.752 55.5252 743.752H13.8585C6.20436 743.752 0.000183105 749.96 0.000183105 757.614C0.000183105 765.269 6.20436 771.477 13.8585 771.477H55.5252C47.8711 771.477 41.6669 765.269 41.6669 757.614Z"
			fill="#CCC4B4" />
		<path
			d="M386.359 596.702H79.9753C72.2961 596.702 66.0753 590.481 66.0753 582.806C66.0753 575.127 72.2961 568.906 79.9753 568.906H386.359C394.034 568.906 400.259 575.127 400.259 582.806C400.259 590.481 394.034 596.702 386.359 596.702Z"
			fill="#E0D8C8" />
		<path
			d="M107.742 582.806C107.742 575.127 113.963 568.906 121.642 568.906H79.9753C72.2961 568.906 66.0753 575.127 66.0753 582.806C66.0753 590.481 72.2961 596.702 79.9753 596.702H121.642C113.963 596.702 107.742 590.481 107.742 582.806Z"
			fill="#CCC4B4" />
		<path
			d="M322.434 256.34H143.892C143.975 251.298 144.017 246.673 144.017 242.423H322.309C322.309 246.673 322.35 251.298 322.434 256.34Z"
			fill="#CCC4B4" />
	</g>
	<defs>
		<clipPath id="clip0_12073_5375">
			<rect width="467" height="772" fill="white" />
		</clipPath>
	</defs>
</svg>