<svg width="230" height="86" viewBox="0 0 230 86" fill="none" xmlns="http://www.w3.org/2000/svg">
<path d="M181.226 25.8985C180.739 25.8985 180.288 25.859 179.873 25.78C179.465 25.7077 179.14 25.6221 178.896 25.5234L179.725 22.7401C180.245 22.8915 180.709 22.9638 181.117 22.9573C181.525 22.9507 181.884 22.8224 182.193 22.5723C182.509 22.3289 182.775 21.9209 182.992 21.3485L183.298 20.5293L177.801 5.05328H181.591L185.085 16.5023H185.243L188.746 5.05328H192.546L186.476 22.0492C186.193 22.852 185.818 23.5396 185.351 24.112C184.884 24.6911 184.312 25.1319 183.634 25.4346C182.963 25.7439 182.16 25.8985 181.226 25.8985Z" fill="white"/>
<path d="M162.172 20.2135V0H165.745V7.56033H165.893C166.077 7.19186 166.337 6.80035 166.672 6.38582C167.008 5.9647 167.462 5.6061 168.034 5.31C168.607 5.00732 169.337 4.85599 170.225 4.85599C171.397 4.85599 172.453 5.15537 173.394 5.75414C174.341 6.34634 175.091 7.22476 175.644 8.38941C176.203 9.54747 176.483 10.9687 176.483 12.6532C176.483 14.3179 176.21 15.7326 175.664 16.8972C175.118 18.0619 174.374 18.9502 173.433 19.5621C172.492 20.1741 171.426 20.48 170.235 20.48C169.367 20.48 168.646 20.3353 168.074 20.0457C167.501 19.7562 167.041 19.4075 166.692 18.9995C166.35 18.585 166.083 18.1935 165.893 17.825H165.685V20.2135H162.172ZM165.675 12.6335C165.675 13.6139 165.814 14.4725 166.09 15.2095C166.373 15.9464 166.778 16.5222 167.304 16.9367C167.837 17.3447 168.482 17.5487 169.238 17.5487C170.028 17.5487 170.689 17.3381 171.222 16.917C171.755 16.4893 172.157 15.907 172.426 15.17C172.703 14.4265 172.841 13.581 172.841 12.6335C172.841 11.6925 172.706 10.8569 172.436 10.1265C172.167 9.39613 171.765 8.82368 171.232 8.40914C170.699 7.99461 170.035 7.78734 169.238 7.78734C168.475 7.78734 167.827 7.98803 167.294 8.38941C166.761 8.79078 166.356 9.35336 166.08 10.0772C165.81 10.8009 165.675 11.653 165.675 12.6335Z" fill="white"/>
<path d="M143.239 20.48C142.048 20.48 140.982 20.1741 140.041 19.5621C139.101 18.9502 138.357 18.0619 137.811 16.8972C137.265 15.7326 136.992 14.3179 136.992 12.6532C136.992 10.9687 137.268 9.54747 137.821 8.38941C138.38 7.22476 139.133 6.34634 140.081 5.75414C141.028 5.15537 142.085 4.85599 143.249 4.85599C144.137 4.85599 144.868 5.00732 145.44 5.31C146.013 5.6061 146.467 5.9647 146.802 6.38582C147.138 6.80035 147.398 7.19186 147.582 7.56033H147.73V0H151.313V20.2135H147.799V17.825H147.582C147.398 18.1935 147.131 18.585 146.783 18.9995C146.434 19.4075 145.973 19.7562 145.401 20.0457C144.828 20.3353 144.108 20.48 143.239 20.48ZM144.236 17.5487C144.993 17.5487 145.638 17.3447 146.171 16.9367C146.704 16.5222 147.108 15.9464 147.385 15.2095C147.661 14.4725 147.799 13.6139 147.799 12.6335C147.799 11.653 147.661 10.8009 147.385 10.0772C147.115 9.35336 146.714 8.79078 146.181 8.38941C145.654 7.98803 145.006 7.78734 144.236 7.78734C143.44 7.78734 142.775 7.99461 142.242 8.40914C141.71 8.82368 141.308 9.39613 141.038 10.1265C140.769 10.8569 140.634 11.6925 140.634 12.6335C140.634 13.581 140.769 14.4265 141.038 15.17C141.315 15.907 141.719 16.4893 142.252 16.917C142.792 17.3381 143.453 17.5487 144.236 17.5487Z" fill="white"/>
<path d="M127.849 20.5097C126.329 20.5097 125.017 20.1939 123.911 19.5622C122.812 18.924 121.967 18.0225 121.375 16.8579C120.782 15.6866 120.486 14.3081 120.486 12.7224C120.486 11.1629 120.782 9.79432 121.375 8.61651C121.973 7.43213 122.809 6.51094 123.882 5.85294C124.954 5.18837 126.214 4.85609 127.662 4.85609C128.596 4.85609 129.478 5.00742 130.307 5.3101C131.143 5.6062 131.879 6.06679 132.518 6.69189C133.163 7.31698 133.669 8.11315 134.038 9.0804C134.406 10.0411 134.59 11.186 134.59 12.5151V13.6107H122.164V11.2024H131.166C131.159 10.5181 131.011 9.90947 130.721 9.3765C130.432 8.83694 130.027 8.41254 129.507 8.10328C128.994 7.79402 128.395 7.6394 127.711 7.6394C126.981 7.6394 126.339 7.81705 125.786 8.17237C125.234 8.52111 124.803 8.9817 124.493 9.55415C124.191 10.12 124.036 10.7418 124.03 11.4196V13.5218C124.03 14.4036 124.191 15.1603 124.513 15.7919C124.836 16.417 125.286 16.8973 125.865 17.2329C126.444 17.5619 127.122 17.7264 127.899 17.7264C128.418 17.7264 128.889 17.654 129.31 17.5093C129.731 17.3579 130.096 17.1375 130.406 16.848C130.715 16.5585 130.948 16.1999 131.106 15.7722L134.442 16.1472C134.232 17.0289 133.83 17.7988 133.238 18.4568C132.653 19.1082 131.902 19.6149 130.988 19.9768C130.073 20.3321 129.027 20.5097 127.849 20.5097Z" fill="white"/>
<path d="M110.743 20.2136V5.05342H114.207V7.58011H114.365C114.642 6.70498 115.115 6.03054 115.786 5.55678C116.464 5.07645 117.237 4.83628 118.106 4.83628C118.303 4.83628 118.524 4.84615 118.767 4.86589C119.017 4.87905 119.224 4.90208 119.389 4.93498V8.22165C119.238 8.16901 118.997 8.12295 118.668 8.08347C118.346 8.03741 118.033 8.01438 117.731 8.01438C117.079 8.01438 116.494 8.15585 115.974 8.43879C115.461 8.71515 115.056 9.10007 114.76 9.59357C114.464 10.0871 114.316 10.6562 114.316 11.3011V20.2136H110.743Z" fill="white"/>
<path d="M100.979 20.5097C99.4587 20.5097 98.146 20.1939 97.0406 19.5622C95.9417 18.924 95.0962 18.0225 94.504 16.8579C93.9118 15.6866 93.6157 14.3081 93.6157 12.7224C93.6157 11.1629 93.9118 9.79432 94.504 8.61651C95.1028 7.43213 95.9384 6.51094 97.011 5.85294C98.0835 5.18837 99.3435 4.85609 100.791 4.85609C101.725 4.85609 102.607 5.00742 103.436 5.3101C104.272 5.6062 105.009 6.06679 105.647 6.69189C106.292 7.31698 106.799 8.11315 107.167 9.0804C107.536 10.0411 107.72 11.186 107.72 12.5151V13.6107H95.2936V11.2024H104.295C104.288 10.5181 104.14 9.90947 103.851 9.3765C103.561 8.83694 103.157 8.41254 102.637 8.10328C102.124 7.79402 101.525 7.6394 100.84 7.6394C100.11 7.6394 99.4686 7.81705 98.9159 8.17237C98.3631 8.52111 97.9322 8.9817 97.6229 9.55415C97.3202 10.12 97.1656 10.7418 97.159 11.4196V13.5218C97.159 14.4036 97.3202 15.1603 97.6426 15.7919C97.9651 16.417 98.4158 16.8973 98.9948 17.2329C99.5738 17.5619 100.252 17.7264 101.028 17.7264C101.548 17.7264 102.018 17.654 102.439 17.5093C102.861 17.3579 103.226 17.1375 103.535 16.848C103.844 16.5585 104.078 16.1999 104.236 15.7722L107.572 16.1472C107.361 17.0289 106.96 17.7988 106.368 18.4568C105.782 19.1082 105.032 19.6149 104.117 19.9768C103.203 20.3321 102.156 20.5097 100.979 20.5097Z" fill="white"/>
<path d="M74.5692 20.2134L70.2856 5.05328H73.9276L76.5925 15.7128H76.7307L79.4548 5.05328H83.0573L85.7814 15.6535H85.9294L88.5548 5.05328H92.2067L87.9133 20.2134H84.1923L81.3498 9.96848H81.1425L78.3 20.2134H74.5692Z" fill="white"/>
<path d="M61.5777 20.5097C60.0972 20.5097 58.8141 20.184 57.7285 19.5326C56.6428 18.8812 55.8005 17.9699 55.2018 16.7986C54.6096 15.6274 54.3135 14.2588 54.3135 12.6928C54.3135 11.1268 54.6096 9.75484 55.2018 8.57703C55.8005 7.39923 56.6428 6.48462 57.7285 5.83321C58.8141 5.18179 60.0972 4.85609 61.5777 4.85609C63.0582 4.85609 64.3413 5.18179 65.427 5.83321C66.5127 6.48462 67.3516 7.39923 67.9438 8.57703C68.5426 9.75484 68.842 11.1268 68.842 12.6928C68.842 14.2588 68.5426 15.6274 67.9438 16.7986C67.3516 17.9699 66.5127 18.8812 65.427 19.5326C64.3413 20.184 63.0582 20.5097 61.5777 20.5097ZM61.5975 17.6475C62.4002 17.6475 63.0714 17.427 63.6109 16.9862C64.1505 16.5387 64.5518 15.94 64.815 15.1899C65.0848 14.4397 65.2197 13.6041 65.2197 12.6829C65.2197 11.7551 65.0848 10.9162 64.815 10.1661C64.5518 9.4094 64.1505 8.80733 63.6109 8.3599C63.0714 7.91246 62.4002 7.68874 61.5975 7.68874C60.775 7.68874 60.0907 7.91246 59.5445 8.3599C59.005 8.80733 58.6003 9.4094 58.3305 10.1661C58.0673 10.9162 57.9357 11.7551 57.9357 12.6829C57.9357 13.6041 58.0673 14.4397 58.3305 15.1899C58.6003 15.94 59.005 16.5387 59.5445 16.9862C60.0907 17.427 60.775 17.6475 61.5975 17.6475Z" fill="white"/>
<path d="M37.4539 20.2135V0H45.0339C46.5868 0 47.8896 0.289517 48.9424 0.86855C50.0018 1.44758 50.8012 2.24375 51.3408 3.25706C51.8869 4.26379 52.16 5.4087 52.16 6.69178C52.16 7.98803 51.8869 9.13952 51.3408 10.1462C50.7947 11.153 49.9886 11.9459 48.9227 12.5249C47.8567 13.0973 46.544 13.3836 44.9846 13.3836H39.9608V10.3733H44.4911C45.3991 10.3733 46.1426 10.2153 46.7217 9.8995C47.3007 9.58366 47.7284 9.14939 48.0048 8.59667C48.2877 8.04396 48.4292 7.409 48.4292 6.69178C48.4292 5.97457 48.2877 5.3429 48.0048 4.79677C47.7284 4.25063 47.2974 3.82623 46.7118 3.52355C46.1328 3.21429 45.386 3.05967 44.4713 3.05967H41.1156V20.2135H37.4539Z" fill="white"/>
<path d="M4.62761 34.132C2.88461 34.7516 1.6305 36.0224 1.10973 37.7027C1.00345 38.0493 0.960938 38.8055 0.960938 40.4018C0.960938 42.8173 1.02471 43.1744 1.67302 44.3506C2.01311 44.9702 3.03341 45.9259 3.72423 46.2725C4.70201 46.7556 5.15902 46.8291 7.49719 46.8816C10.5474 46.9551 11.2914 47.1862 12.5561 48.4885C13.2895 49.2446 13.4808 49.5492 13.8634 50.5154L14.0866 51.1035V66.3316C14.0866 80.9086 14.0972 81.5807 14.2885 82.1373C14.618 83.1246 14.9793 83.7022 15.6383 84.3428C16.3504 85.0359 17.1156 85.498 17.9127 85.7186C18.6673 85.9286 22.6953 85.9286 23.4393 85.7186C24.6509 85.3825 26.0856 84.2378 26.617 83.2191C27.2547 81.9693 27.2122 82.946 27.2441 66.3211L27.276 51.1035L27.5098 50.4839C28.1475 48.8035 29.3272 47.6483 30.932 47.1547C31.5059 46.9656 31.9948 46.9236 33.8547 46.8816C36.82 46.8186 37.5639 46.5876 38.8393 45.3483C39.562 44.6447 39.9871 43.941 40.2316 42.9958C40.4229 42.2817 40.4548 38.921 40.2847 38.0178C40.1253 37.1461 39.6045 36.2219 38.8712 35.4763C38.191 34.7831 37.6915 34.4681 36.6818 34.132C36.1291 33.943 35.5021 33.9325 20.6335 33.943C6.0624 33.943 5.12713 33.964 4.62761 34.132Z" fill="white"/>
<path d="M48.4041 34.1587C48.0427 34.2847 47.5326 34.5157 47.2775 34.6733C46.6611 35.0199 45.7683 35.986 45.4282 36.6687C44.8224 37.8344 44.8543 36.9312 44.8543 53.3461C44.8543 69.9605 44.8118 68.9208 45.4707 70.1916C45.8427 70.9267 46.9693 71.9874 47.7664 72.355C48.6698 72.7751 49.3075 72.8696 51.1674 72.8696C52.0495 72.8696 53.1123 72.9221 53.5162 72.9746C55.3548 73.2372 56.9278 74.4974 57.6399 76.2723C57.8312 76.7239 57.8737 77.165 57.9374 79.2234C58.0225 81.7754 58.0756 82.1115 58.6176 83.1722C59.0002 83.9179 60.0631 84.9261 60.9133 85.3462C61.9548 85.8608 62.6244 85.9133 67.2476 85.8608C71.7114 85.8188 71.8177 85.8083 72.8592 85.1991C73.5394 84.8106 74.5597 83.7918 74.8679 83.1932C75.3462 82.2585 75.4418 81.6599 75.5056 79.3809C75.5375 78.0052 75.6119 77.039 75.7075 76.7029C76.2602 74.76 78.0245 73.2162 80.0013 72.9641C80.3945 72.9221 81.4679 72.8696 82.3713 72.8696C84.2631 72.8696 85.0921 72.7121 85.9742 72.2185C86.7182 71.7984 87.7172 70.8112 88.0467 70.1706C88.6738 68.9313 88.6419 69.929 88.6419 53.3461C88.6419 36.8997 88.6738 37.8344 88.068 36.6477C87.7172 35.9755 86.6225 34.8518 85.9849 34.5368C84.837 33.9591 84.5182 33.9066 82.1056 33.9066C79.7037 33.9066 79.3742 33.9591 78.2264 34.5368C77.2911 35.0093 76.2496 36.1856 75.8138 37.2673C75.6331 37.7084 75.6225 38.6956 75.5694 53.1256C75.5162 67.7025 75.5056 68.5427 75.3143 69.0888C74.9848 70.0655 74.6341 70.6432 73.9433 71.3363C73.5819 71.7039 73.0399 72.124 72.7423 72.271C71.6157 72.8381 71.265 72.8696 66.7906 72.8696C62.3056 72.8696 61.8592 72.8276 60.7751 72.2815C60.0949 71.9454 59.0321 70.9057 58.6389 70.2021C57.9374 68.9523 57.9906 70.2021 57.9268 53.2306C57.8843 42.4449 57.8312 37.7504 57.7568 37.5299C57.3104 36.3326 56.322 35.1039 55.3867 34.6103C54.1964 33.9696 53.8456 33.9066 51.3481 33.9171C49.2331 33.9171 48.9993 33.9381 48.4041 34.1587Z" fill="white"/>
<path d="M96.6558 34.1433C95.6781 34.5003 95.1041 34.8679 94.4984 35.5296C93.9032 36.1702 93.4887 36.8948 93.2655 37.6615C93.1486 38.0501 93.1167 42.4085 93.0848 59.779C93.0529 80.5418 93.0636 81.4345 93.2442 82.0436C93.5631 83.0308 93.9138 83.6399 94.594 84.2911C95.2955 84.9737 96.0819 85.4463 96.879 85.6773C97.623 85.8874 101.651 85.8874 102.406 85.6773C103.585 85.3518 105.041 84.2175 105.552 83.2408C106.115 82.1486 106.104 82.1696 106.179 78.0528C106.264 73.8309 106.306 73.4528 106.869 72.2766C107.528 70.9113 108.581 69.8611 109.941 69.1995C111.28 68.5588 112.906 68.3698 114.33 68.7059C116.573 69.231 118.518 71.0688 119.166 73.2743C119.23 73.4738 119.315 75.4377 119.357 77.6327C119.442 81.9176 119.453 81.9806 120.048 83.1568C120.431 83.9025 121.536 84.9527 122.365 85.3413C123.226 85.7509 124.044 85.8769 126.032 85.8769C127.817 85.8769 128.986 85.6983 129.645 85.3308C130.995 84.5641 131.888 83.5139 132.345 82.1486C132.557 81.5185 132.547 73.0117 132.334 72.2766C131.888 70.7118 130.496 69.294 128.923 68.7899C128.646 68.7059 127.658 68.6008 126.584 68.5483C124.161 68.4223 123.417 68.2228 122.184 67.3511C121.079 66.5739 120.208 65.4397 119.793 64.2529C119.113 62.289 119.368 60.1046 120.495 58.4453C121.345 57.1745 122.716 56.1663 124.14 55.7777C124.459 55.6937 125.564 55.5782 126.584 55.5257C127.658 55.4731 128.646 55.3681 128.923 55.2841C130.644 54.7275 132.09 53.0997 132.43 51.3353C132.568 50.6001 132.568 47.418 132.43 46.6933C132.09 44.9395 130.623 43.3222 128.848 42.755C128.466 42.629 127.626 42.566 125.522 42.5135C122.535 42.4295 122.291 42.398 121.419 41.8414C120.888 41.5158 120.176 40.7491 119.91 40.224C119.581 39.5939 119.474 39.1633 119.368 38.0606C119.187 36.2542 118.337 34.9834 116.839 34.2798L116.116 33.9437L106.71 33.9227L97.3042 33.9017L96.6558 34.1433ZM115.521 46.9139C117.285 47.1449 118.645 48.2687 119.198 49.949C119.485 50.8207 119.389 52.1335 118.975 53.0051C118.571 53.8453 117.71 54.7275 116.955 55.0741C116.052 55.4836 115.382 55.5467 112.407 55.5047C109.813 55.4731 109.59 55.4521 109.016 55.2211C108.209 54.906 107.475 54.3179 106.986 53.5933C106.423 52.7531 106.253 52.102 106.306 50.9572C106.338 50.1696 106.402 49.8965 106.678 49.3294C107.295 48.0376 108.581 47.1029 110.026 46.9244C110.972 46.7984 114.585 46.7984 115.521 46.9139Z" fill="white"/>
<path d="M140.614 34.0894C139.073 34.5725 137.755 35.8643 137.213 37.4081C137.001 38.0172 137.001 38.2693 137.001 59.8197C136.99 83.5756 136.947 81.9057 137.585 83.1555C137.968 83.9011 139.03 84.9093 139.881 85.3294C140.253 85.508 140.869 85.7075 141.252 85.7705C142.187 85.907 158.979 85.9175 159.755 85.7705C160.605 85.613 161.392 85.1719 162.008 84.5102C162.72 83.7541 163.007 83.166 163.146 82.1998C163.209 81.7692 163.305 81.1391 163.358 80.803C163.645 78.9546 165.197 77.5053 167.163 77.2533C167.556 77.2113 168.81 77.1692 169.958 77.1587C171.542 77.1587 172.169 77.1167 172.615 76.9907C174.454 76.4551 175.878 74.9428 176.282 73.0734C176.473 72.1492 176.473 69.2506 176.282 68.3264C175.91 66.5936 174.698 65.1968 172.987 64.5247C172.509 64.3356 172.094 64.2936 169.629 64.2306C167.726 64.1781 166.674 64.1046 166.387 64.01C165.633 63.758 165.037 63.3904 164.506 62.8548C162.391 60.7124 163.082 57.2152 165.888 55.9129L166.6 55.5768L169.469 55.5138C171.287 55.4718 172.477 55.3983 172.711 55.3248C174.379 54.7471 175.676 53.4554 176.186 51.8486C176.346 51.3655 176.377 50.8929 176.367 48.9605C176.367 46.8705 176.346 46.5975 176.133 46.0514C175.697 44.8751 174.805 43.8039 173.763 43.2053C172.796 42.6487 172.434 42.5857 169.629 42.5436C168.194 42.5121 166.812 42.4386 166.547 42.3756C164.889 41.966 163.581 40.5482 163.358 38.9099C163.305 38.5528 163.22 37.9332 163.156 37.5446C162.922 35.8538 161.775 34.5515 160.074 34.0369C159.67 33.9214 157.991 33.8899 150.392 33.9004C141.964 33.9109 141.145 33.9214 140.614 34.0894ZM160.202 47.0596C162.274 47.7212 163.56 49.8741 163.156 51.9956C162.997 52.8673 162.667 53.4869 162.008 54.1695C161.371 54.8312 160.595 55.2618 159.755 55.4193C158.979 55.5663 154.271 55.5558 153.559 55.4088C152.741 55.2408 151.827 54.7261 151.274 54.117C149.297 51.9536 149.967 48.5299 152.613 47.3011C153.527 46.8705 154.08 46.818 157.088 46.86C159.086 46.881 159.808 46.9335 160.202 47.0596ZM160.18 64.3776C162.232 65.0393 163.539 67.1607 163.177 69.2296C163.018 70.1538 162.689 70.7944 161.987 71.5296C161.36 72.1702 160.892 72.4538 160.074 72.7058C159.351 72.9159 153.952 72.9159 153.219 72.6953C152.082 72.3593 151.03 71.4456 150.53 70.3638C149.308 67.7488 151.03 64.6297 153.889 64.2306C154.941 64.0836 159.628 64.1991 160.18 64.3776Z" fill="white"/>
<path d="M197.686 34.1089C196.741 34.4135 196.23 34.7181 195.55 35.4007C194.307 36.64 193.967 37.7217 193.967 40.4312C193.967 42.4162 193.871 43.0463 193.446 43.939C193.085 44.7056 191.969 45.8609 191.235 46.2284C190.194 46.7535 189.694 46.8376 187.165 46.9216C184.699 47.0056 184.465 47.0476 183.477 47.5517C183.243 47.6672 182.743 48.0558 182.382 48.4234C181.521 49.2741 181.022 50.2718 180.884 51.427C180.82 51.8996 180.798 55.7224 180.82 60.4799C180.852 69.5117 180.82 69.0391 181.5 70.2574C181.851 70.9085 182.956 71.9377 183.657 72.2948C184.582 72.7569 185.262 72.8724 187.112 72.8724C189.195 72.8724 190.109 72.9984 190.938 73.387C191.692 73.7336 192.798 74.6998 193.18 75.3614C193.828 76.4326 193.882 76.7372 193.977 79.3312C194.062 81.9042 194.126 82.2928 194.679 83.28C195.061 83.9942 196.199 85.0129 196.985 85.3805C198.069 85.8741 198.622 85.9056 205.456 85.8636C212.332 85.8321 212.162 85.8426 213.257 85.2019C213.937 84.8133 214.957 83.7946 215.265 83.196C215.743 82.2508 215.839 81.6627 215.903 79.3312C215.935 77.8294 216.009 76.9682 216.115 76.6427C216.732 74.6893 218.454 73.219 220.399 72.9669C220.792 72.9249 221.865 72.8724 222.769 72.8724C224.66 72.8724 225.489 72.7149 226.372 72.2213C227.116 71.8012 228.115 70.814 228.444 70.1733C229.06 68.9656 229.039 69.2912 229.039 59.8602C229.039 52.7398 229.007 51.1014 228.89 50.7024C228.359 48.9695 226.903 47.5202 225.266 47.1106C224.83 46.9951 223.938 46.9216 222.45 46.8901C220.144 46.8376 219.772 46.7745 218.624 46.1969C218.007 45.8924 216.859 44.7896 216.583 44.254C216.02 43.1828 215.956 42.7837 215.903 40.4733C215.85 38.0998 215.775 37.6377 215.318 36.724C214.713 35.5162 213.597 34.6026 212.183 34.1194C211.609 33.9199 211.258 33.9094 204.924 33.9199C198.845 33.9199 198.218 33.9409 197.686 34.1089ZM212.141 47.0791C213.129 47.4047 213.65 47.7197 214.33 48.4234C215 49.1165 215.361 49.7151 215.712 50.7129C215.903 51.259 215.914 51.7316 215.914 59.8497C215.914 69.2492 215.935 68.8501 215.265 70.1628C214.915 70.8455 213.809 71.9377 213.129 72.2843C211.981 72.8514 211.779 72.8724 204.914 72.8724C198.027 72.8724 197.91 72.8619 196.783 72.2738C195.359 71.5281 194.339 70.1208 194.084 68.556C193.935 67.6843 193.924 52.0571 194.073 51.196C194.402 49.2215 196.092 47.4362 198.005 47.0476C198.983 46.8481 199.036 46.8481 205.392 46.8691C211.014 46.8901 211.609 46.9111 212.141 47.0791Z" fill="white"/>
</svg>
