<svg width="165" height="164" viewBox="0 0 165 164" fill="none" xmlns="http://www.w3.org/2000/svg">
<g clip-path="url(#clip0_12441_34077)">
<path d="M55.5775 107.088C54.0585 108.363 53.104 110.185 52.9208 112.16C52.7376 114.134 53.3404 116.101 54.5979 117.635C55.2302 118.398 56.0073 119.028 56.8837 119.49C57.7601 119.953 58.7191 120.238 59.7056 120.328C60.6928 120.419 61.6877 120.315 62.6339 120.02C63.5801 119.726 64.4591 119.249 65.2201 118.614C70.2567 114.553 76.531 112.339 83.0001 112.339C89.4691 112.339 95.7434 114.553 100.78 118.614C102.135 119.737 103.841 120.35 105.601 120.347C107.135 120.332 108.628 119.849 109.879 118.963C111.131 118.077 112.083 116.83 112.607 115.388C113.131 113.947 113.203 112.38 112.813 110.897C112.422 109.413 111.589 108.084 110.423 107.088C102.649 100.839 92.9739 97.432 83.0001 97.432C73.0262 97.432 63.3514 100.839 55.5775 107.088ZM61.9811 71.0005C63.3924 72.4041 65.3021 73.1914 67.2919 73.1914C69.2824 73.1914 71.1914 72.4041 72.6034 71.0005C74.007 69.5892 74.7943 67.6801 74.7943 65.6897C74.7943 63.6993 74.007 61.7896 72.6034 60.3783C68.2919 56.2872 62.5756 54.0066 56.6319 54.0066C50.6888 54.0066 44.9719 56.2872 40.6605 60.3783C39.8719 61.0535 39.2313 61.8844 38.779 62.819C38.3267 63.7537 38.073 64.7723 38.0327 65.8095C37.9923 66.8473 38.1672 67.8819 38.5464 68.8486C38.9251 69.8147 39.4997 70.6936 40.2339 71.4278C40.968 72.1619 41.8457 72.7366 42.8124 73.1145C43.7791 73.4938 44.8137 73.6687 45.8515 73.6283C46.8893 73.5886 47.9073 73.3336 48.8419 72.882C49.7766 72.4297 50.6075 71.7897 51.2827 71.0005C51.9836 70.2945 52.8164 69.734 53.7344 69.3515C54.6524 68.9691 55.6377 68.7724 56.6319 68.7724C57.6262 68.7724 58.6115 68.9691 59.5295 69.3515C60.4475 69.734 61.2803 70.2945 61.9811 71.0005ZM83.0001 6.66251C68.0998 6.66251 53.5339 11.0809 41.1448 19.3591C28.7558 27.6372 19.0996 39.4036 13.3974 53.1693C7.69523 66.9357 6.20321 82.0833 9.11037 96.6972C12.0175 111.311 19.1925 124.735 29.7282 135.272C40.2646 145.808 53.6883 152.983 68.3022 155.89C82.9161 158.797 98.0644 157.305 111.83 151.603C125.596 145.9 137.363 136.244 145.641 123.855C153.919 111.466 158.338 96.9003 158.338 82C158.338 72.1068 156.389 62.3098 152.603 53.1693C148.817 44.0289 143.267 35.7238 136.272 28.7282C129.276 21.7326 120.971 16.1835 111.83 12.3974C102.69 8.61129 92.8932 6.66251 83.0001 6.66251ZM83.0001 142.27C71.0799 142.27 59.427 138.735 49.5159 132.113C39.6048 125.49 31.8795 116.077 27.3176 105.064C22.7563 94.0515 21.5628 81.9327 23.8883 70.242C26.2138 58.5506 31.9538 47.8118 40.3825 39.3824C48.8118 30.9537 59.5506 25.2137 71.242 22.8883C82.9328 20.5628 95.0515 21.7563 106.064 26.3175C117.077 30.8794 126.49 38.6041 133.113 48.5158C139.735 58.4269 143.27 70.0793 143.27 82C143.27 97.9842 136.92 113.314 125.618 124.618C114.315 135.919 98.9843 142.27 83.0001 142.27ZM125.34 60.3783C121.028 56.2872 115.311 54.0066 109.368 54.0066C103.424 54.0066 97.7082 56.2872 93.3968 60.3783C92.1623 61.819 91.5178 63.673 91.5908 65.5693C91.6639 67.4649 92.4493 69.2644 93.7914 70.6058C95.1329 71.948 96.9324 72.7334 98.8273 72.8064C100.724 72.8794 102.578 72.235 104.019 71.0005C104.72 70.2945 105.553 69.734 106.471 69.3515C107.389 68.9691 108.374 68.7724 109.368 68.7724C110.362 68.7724 111.347 68.9691 112.266 69.3515C113.183 69.734 114.017 70.2945 114.717 71.0005C116.129 72.4041 118.038 73.1914 120.028 73.1914C122.019 73.1914 123.928 72.4041 125.34 71.0005C126.743 69.5885 127.531 67.6795 127.531 65.6891C127.531 63.6993 126.743 61.7896 125.34 60.3783Z" fill="#F23939"/>
</g>
<defs>
<clipPath id="clip0_12441_34077">
<rect width="164" height="164" fill="white" transform="translate(0.5)"/>
</clipPath>
</defs>
</svg>
