<svg width="165" height="164" viewBox="0 0 165 164" fill="none" xmlns="http://www.w3.org/2000/svg">
<path d="M150.304 21.73H127.703V14.1963C127.703 12.1981 126.909 10.282 125.496 8.86882C124.084 7.45624 122.167 6.66251 120.169 6.66251H44.8313C42.8332 6.66251 40.9171 7.45624 39.5039 8.86882C38.0913 10.282 37.2976 12.1981 37.2976 14.1963V21.73H14.6963C12.6982 21.73 10.7821 22.5237 9.36891 23.9363C7.95633 25.3495 7.1626 27.2656 7.1626 29.2638V51.865C7.1626 59.8574 10.3375 67.5225 15.9891 73.1735C21.6401 78.8251 29.3052 82 37.2976 82H48.8993C55.7143 89.6023 64.9015 94.6748 74.9663 96.3897V112.135H67.4326C61.4383 112.135 55.6899 114.516 51.4509 118.755C47.2125 122.994 44.8313 128.743 44.8313 134.736V149.804C44.8313 151.802 45.6251 153.719 47.0377 155.131C48.4509 156.544 50.367 157.338 52.3651 157.338H112.635C114.633 157.338 116.55 156.544 117.963 155.131C119.375 153.719 120.169 151.802 120.169 149.804V134.736C120.169 128.743 117.788 122.994 113.549 118.755C109.31 114.516 103.561 112.135 97.5676 112.135H90.0339V96.3897C100.098 94.6748 109.287 89.6023 116.101 82H127.703C135.695 82 143.36 78.8251 149.011 73.1735C154.663 67.5225 157.838 59.8574 157.838 51.865V29.2638C157.838 27.2656 157.044 25.3495 155.631 23.9363C154.219 22.5237 152.302 21.73 150.304 21.73ZM37.2976 66.9325C33.3014 66.9325 29.4692 65.345 26.6434 62.5192C23.8176 59.6934 22.2301 55.8612 22.2301 51.865V36.7975H37.2976V51.865C37.3143 57.0009 38.206 62.0964 39.9344 66.9325H37.2976ZM97.5676 127.203C99.5657 127.203 101.482 127.997 102.895 129.409C104.308 130.822 105.101 132.738 105.101 134.736V142.27H59.8988V134.736C59.8988 132.738 60.6926 130.822 62.1052 129.409C63.5184 127.997 65.4345 127.203 67.4326 127.203H97.5676ZM112.635 51.865C112.635 59.8574 109.46 67.5225 103.809 73.1735C98.1576 78.8251 90.4925 82 82.5001 82C74.5077 82 66.8426 78.8251 61.1916 73.1735C55.54 67.5225 52.3651 59.8574 52.3651 51.865V21.73H112.635V51.865ZM142.77 51.865C142.77 55.8612 141.183 59.6934 138.357 62.5192C135.531 65.345 131.699 66.9325 127.703 66.9325H125.066C126.794 62.0964 127.686 57.0009 127.703 51.865V36.7975H142.77V51.865Z" fill="#BB8C00"/>
</svg>
