<svg width="96" height="97" viewBox="0 0 96 97" fill="currentColor">
<path d="M49.0781 49.7906C50.9958 48.1307 52.5339 46.0779 53.5879 43.7711C54.642 41.4645 55.1875 38.958 55.1875 36.4219C55.1875 31.6563 53.2943 27.0859 49.9245 23.7161C46.555 20.3462 41.9844 18.4531 37.2188 18.4531C32.4531 18.4531 27.8827 20.3462 24.5129 23.7161C21.1431 27.0859 19.25 31.6563 19.25 36.4219C19.25 38.958 19.7955 41.4645 20.8497 43.7711C21.9038 46.0779 23.4418 48.1307 25.3594 49.7906C20.3286 52.0687 16.0604 55.7473 13.0651 60.3868C10.0698 65.0267 8.47403 70.4306 8.46875 75.9531C8.46875 76.9062 8.84739 77.8204 9.52132 78.4943C10.1953 79.1681 11.1094 79.5469 12.0625 79.5469C13.0156 79.5469 13.9297 79.1681 14.6037 78.4943C15.2776 77.8204 15.6562 76.9062 15.6562 75.9531C15.6562 70.2344 17.928 64.75 21.9718 60.7063C26.0155 56.6622 31.5 54.3906 37.2188 54.3906C42.9375 54.3906 48.4219 56.6622 52.4656 60.7063C56.5096 64.75 58.7812 70.2344 58.7812 75.9531C58.7812 76.9062 59.16 77.8204 59.8339 78.4943C60.5077 79.1681 61.4219 79.5469 62.375 79.5469C63.3281 79.5469 64.2423 79.1681 64.9161 78.4943C65.59 77.8204 65.9688 76.9062 65.9688 75.9531C65.9634 70.4306 64.3677 65.0267 61.3723 60.3868C58.377 55.7473 54.109 52.0687 49.0781 49.7906ZM37.2188 47.2031C35.0864 47.2031 33.002 46.571 31.229 45.3861C29.456 44.2016 28.0742 42.5176 27.2582 40.5477C26.4422 38.5777 26.2287 36.4099 26.6446 34.3186C27.0607 32.2272 28.0875 30.3062 29.5953 28.7984C31.103 27.2906 33.0241 26.2638 35.1154 25.8478C37.2068 25.4318 39.3745 25.6453 41.3447 26.4613C43.3145 27.2773 44.9985 28.6592 46.183 30.4321C47.3679 32.2051 48 34.2896 48 36.4219C48 39.2812 46.864 42.0235 44.8422 44.0453C42.8203 46.0671 40.0781 47.2031 37.2188 47.2031ZM72.2219 48.3531C74.5219 45.7631 76.0241 42.564 76.548 39.14C77.072 35.7161 76.5951 32.2138 75.1752 29.0547C73.755 25.8955 71.4521 23.2141 68.5437 21.3332C65.6349 19.4524 62.2449 18.4522 58.7812 18.4531C57.8282 18.4531 56.9139 18.8318 56.2401 19.5057C55.5663 20.1797 55.1875 21.0937 55.1875 22.0469C55.1875 23 55.5663 23.9141 56.2401 24.5881C56.9139 25.262 57.8282 25.6406 58.7812 25.6406C61.6404 25.6406 64.3828 26.7765 66.4047 28.7984C68.4265 30.8203 69.5625 33.5625 69.5625 36.4219C69.5575 38.3095 69.0569 40.1626 68.111 41.796C67.1647 43.4293 65.8067 44.786 64.1719 45.7297C63.6389 46.037 63.194 46.4761 62.8796 47.0044C62.5648 47.533 62.3912 48.1335 62.375 48.7484C62.3599 49.3587 62.5004 49.9624 62.7836 50.5033C63.0664 51.0438 63.4822 51.5038 63.9922 51.8391L65.3937 52.7734L65.8609 53.025C70.1928 55.0795 73.8473 58.3294 76.3942 62.3914C78.9408 66.4534 80.2737 71.1587 80.2359 75.9531C80.2359 76.9062 80.6147 77.8204 81.2885 78.4943C81.9624 79.1681 82.8766 79.5469 83.8297 79.5469C84.7827 79.5469 85.697 79.1681 86.3708 78.4943C87.0447 77.8204 87.4234 76.9062 87.4234 75.9531C87.4529 70.4382 86.0715 65.0076 83.411 60.1769C80.7502 55.3462 76.8984 51.2759 72.2219 48.3531Z" fill="currentColor"/>
</svg>
