<svg width="131" height="112" viewBox="0 0 131 112" fill="none" xmlns="http://www.w3.org/2000/svg">
    <g opacity="0.1">
        <path
            d="M130.535 114.91C128.375 112.75 124.878 112.75 122.723 114.91H122.718L106.94 99.1316C112.144 92.9385 115.934 86.0826 116.503 80.2873C116.796 77.2489 114.58 74.5473 111.542 74.249C108.454 73.9395 105.802 76.177 105.504 79.21C105.437 79.9281 105.227 80.7128 104.962 81.5192L89.5154 66.0779L122.724 32.8696C123.326 32.2618 123.784 31.5217 124.055 30.7096L131.867 7.27438C132.53 5.28554 132.01 3.09781 130.535 1.61731C129.055 0.136808 126.861 -0.376977 124.878 0.285972L101.443 8.09789C100.631 8.3685 99.8903 8.82713 99.2828 9.43492L66.0745 42.6375L32.8719 9.43466C32.2698 8.82687 31.5295 8.3685 30.7119 8.09763L7.27642 0.285972C5.30415 -0.376977 3.09985 0.13137 1.62479 1.61731C0.14429 3.09781 -0.375192 5.28554 0.287756 7.27438L8.09941 30.7096C8.37003 31.5217 8.82866 32.2621 9.43644 32.8696L42.639 66.0722L27.126 81.5906C26.8886 80.8228 26.7063 80.0824 26.6674 79.4141C26.4851 76.3699 23.8499 74.0553 20.8169 74.2319C17.7673 74.4197 15.4581 77.0383 15.6405 80.0824C15.9885 85.8447 19.8225 92.8331 25.1869 99.1533L9.43644 114.91C7.27642 112.749 3.77937 112.749 1.62479 114.91C-0.535232 117.064 -0.535232 120.561 1.62479 122.721L9.43644 130.533C10.5137 131.61 11.9279 132.152 13.3424 132.152C14.7569 132.152 16.1654 131.61 17.2484 130.533C19.4029 128.373 19.4029 124.876 17.2484 122.721L33.0211 106.943C39.2142 112.147 46.0757 115.931 51.8708 116.495C52.0586 116.517 52.2355 116.523 52.4123 116.523C55.2244 116.523 57.6276 114.39 57.9037 111.534C58.202 108.501 55.9757 105.794 52.9427 105.501C52.2246 105.429 51.4399 105.225 50.6335 104.954L66.0802 89.5129L81.5932 105.026C80.8254 105.263 80.085 105.446 79.4166 105.485C76.367 105.667 74.0522 108.285 74.2345 111.335C74.4114 114.263 76.8477 116.523 79.7424 116.523C79.8584 116.523 79.969 116.523 80.085 116.511C85.8472 116.163 92.8302 112.329 99.1502 106.965L114.906 122.721C112.752 124.876 112.752 128.373 114.906 130.533C115.989 131.61 117.404 132.152 118.818 132.152C120.227 132.152 121.641 131.61 122.724 130.533L130.535 122.721C132.69 120.561 132.69 117.064 130.535 114.91ZM40.899 99.0653C39.4351 97.8774 37.9986 96.5904 36.6396 95.2368C36.601 95.1982 36.5622 95.1539 36.5236 95.1153C35.3026 93.8889 34.1315 92.5961 33.0485 91.2868L50.4509 73.8898L58.2683 81.7015L40.899 99.0653ZM77.2232 53.7859L73.8919 50.4492L106.172 18.169L117.895 14.263L113.983 25.9807L81.7035 58.2665L77.2232 53.7859Z"
            fill="black" />
    </g>
</svg>