<svg xmlns="http://www.w3.org/2000/svg" width="14" height="14" viewBox="0 0 14 14" fill="none">
    <g clip-path="url(#clip0_12310_7560)">
        <path
            d="M13.8288 12.1734C13.5999 11.9445 13.2295 11.9445 13.0012 12.1734H13.0006L11.3291 10.5019C11.8805 9.84577 12.282 9.11947 12.3422 8.50552C12.3733 8.18363 12.1386 7.89744 11.8167 7.86584C11.4895 7.83305 11.2086 8.07008 11.177 8.39139C11.17 8.46747 11.1477 8.5506 11.1196 8.63603L9.48321 7.0002L13.0013 3.48216C13.065 3.41777 13.1136 3.33937 13.1423 3.25333L13.9698 0.770638C14.0401 0.559942 13.9851 0.328177 13.8288 0.171335C13.672 0.0144933 13.4396 -0.0399364 13.2295 0.0302954L10.7468 0.857879C10.6607 0.886548 10.5823 0.935134 10.518 0.999522L6.99992 4.51696L3.48248 0.999495C3.4187 0.935106 3.34026 0.886548 3.25365 0.857851L0.770928 0.0302954C0.561989 -0.0399364 0.328468 0.0139171 0.172202 0.171335C0.0153604 0.328177 -0.0396729 0.559942 0.0305589 0.770638L0.858115 3.25333C0.886784 3.33937 0.93537 3.4178 0.999758 3.48216L4.51719 6.9996L2.87377 8.6436C2.84861 8.56226 2.8293 8.48382 2.82518 8.41301C2.80587 8.09052 2.5267 7.84531 2.20539 7.86402C1.88232 7.88391 1.63769 8.16133 1.657 8.48382C1.69387 9.09426 2.10004 9.8346 2.66834 10.5042L0.999758 12.1734C0.770928 11.9445 0.400456 11.9445 0.172202 12.1734C-0.0566273 12.4016 -0.0566273 12.7721 0.172202 13.0009L0.999758 13.8285C1.11388 13.9426 1.2637 14 1.41355 14C1.5634 14 1.71261 13.9426 1.82734 13.8285C2.05559 13.5996 2.05559 13.2292 1.82734 13.0009L3.49828 11.3294C4.15437 11.8807 4.88127 12.2816 5.4952 12.3413C5.51509 12.3436 5.53383 12.3442 5.55256 12.3442C5.85047 12.3442 6.10506 12.1183 6.13431 11.8157C6.16591 11.4944 5.93006 11.2077 5.60875 11.1766C5.53267 11.169 5.44955 11.1474 5.36412 11.1187L7.00052 9.48287L8.64394 11.1263C8.5626 11.1515 8.48417 11.1708 8.41336 11.1749C8.09029 11.1942 7.84506 11.4716 7.86437 11.7947C7.88311 12.1049 8.14121 12.3442 8.44787 12.3442C8.46016 12.3442 8.47187 12.3442 8.48417 12.3431C9.09461 12.3062 9.83437 11.9 10.5039 11.3317L12.1731 13.0009C11.9448 13.2292 11.9448 13.5996 12.1731 13.8285C12.2878 13.9426 12.4376 14 12.5875 14C12.7367 14 12.8865 13.9426 13.0013 13.8285L13.8288 13.0009C14.057 12.7721 14.057 12.4016 13.8288 12.1734ZM4.33286 10.4948C4.17778 10.369 4.0256 10.2326 3.88162 10.0892C3.87753 10.0852 3.87342 10.0805 3.86933 10.0764C3.73998 9.94645 3.61592 9.8095 3.50119 9.67079L5.34478 7.82778L6.17294 8.65534L4.33286 10.4948ZM8.18099 5.698L7.82807 5.34451L11.2478 1.9248L12.4897 1.51101L12.0753 2.75235L8.65563 6.17267L8.18099 5.698Z"
            fill="black" />
    </g>
    <defs>
        <clipPath id="clip0_12310_7560">
            <rect width="14" height="14" fill="white" />
        </clipPath>
    </defs>
</svg>