<svg width="14" height="14" viewBox="0 0 14 14" fill="none" xmlns="http://www.w3.org/2000/svg">
    <g clip-path="url(#clip0_12207_2342)">
        <path
            d="M7.00024 0.4375C7.38097 0.4375 7.74611 0.588745 8.01533 0.857962C8.28454 1.12718 8.43579 1.49232 8.43579 1.87305C8.43579 2.25378 8.28454 2.61891 8.01533 2.88813C7.74611 3.15735 7.38097 3.30859 7.00024 3.30859C6.61951 3.30859 6.25437 3.15735 5.98516 2.88813C5.71594 2.61891 5.56469 2.25378 5.56469 1.87305C5.56469 1.49232 5.71594 1.12718 5.98516 0.857962C6.25437 0.588745 6.61951 0.4375 7.00024 0.4375ZM3.87536 4.12378C3.95996 3.79053 4.25988 3.51367 4.64953 3.51367C4.96484 3.51367 5.22888 3.69824 5.35962 3.94946C5.66723 4.54419 6.28759 4.94922 7.00024 4.94922C7.71289 4.94922 8.33325 4.54419 8.64087 3.94946C8.7716 3.69824 9.03564 3.51367 9.35095 3.51367C9.74316 3.51367 10.0431 3.79053 10.1251 4.12378C10.3046 4.83643 10.9506 5.36194 11.717 5.36194C11.9939 5.36194 12.2554 5.29272 12.481 5.17224C12.6963 5.05945 12.9655 5.05688 13.1885 5.19531C13.5217 5.40039 13.6268 5.83618 13.4243 6.16943L10.684 10.6914H3.31652L0.576168 6.16943C0.373654 5.83618 0.478756 5.40039 0.812008 5.19531C1.03503 5.05945 1.3042 5.05945 1.51953 5.17224C1.74768 5.29272 2.00659 5.36194 2.28344 5.36194C3.04992 5.36194 3.69592 4.83643 3.87536 4.12378ZM3.30883 11.5117H10.6916L11.7529 12.573C11.8606 12.6807 11.9221 12.8293 11.9221 12.9832C11.9221 13.3036 11.6632 13.5625 11.3428 13.5625H2.65771C2.33728 13.5625 2.07837 13.3036 2.07837 12.9832C2.07837 12.8293 2.13989 12.6807 2.24755 12.573L3.30883 11.5117Z"
            fill="black" />
    </g>
    <defs>
        <clipPath id="clip0_12207_2342">
            <rect width="14" height="14" fill="white" />
        </clipPath>
    </defs>
</svg>