<svg width="32" height="32" viewBox="0 0 32 32" fill="none" xmlns="http://www.w3.org/2000/svg">
<path d="M0 16C0 7.16344 7.16344 0 16 0C24.8366 0 32 7.16344 32 16C32 24.8366 24.8366 32 16 32C7.16344 32 0 24.8366 0 16Z" fill="#F6F6F6"/>
<g clip-path="url(#clip0_12089_8170)">
<path d="M9.4375 7.77148C7.98965 7.77148 6.8125 8.88978 6.8125 10.2652V22.734C6.8125 24.1094 7.98965 25.2277 9.4375 25.2277H22.5625C24.0104 25.2277 25.1875 24.1094 25.1875 22.734V10.2652C25.1875 8.88978 24.0104 7.77148 22.5625 7.77148H9.4375ZM12.0625 10.2652V12.759H14.6875V10.2652H17.3125V12.759H19.9375V10.2652H22.5625V12.759H19.9375V15.2527H22.5625V17.7465H19.9375V20.2402H22.5625V22.734H19.9375V20.2402H17.3125V22.734H14.6875V20.2402H12.0625V22.734H9.4375V20.2402H12.0625V17.7465H9.4375V15.2527H12.0625V12.759H9.4375V10.2652H12.0625ZM14.6875 15.2527H17.3125V12.759H14.6875V15.2527ZM14.6875 17.7465V15.2527H12.0625V17.7465H14.6875ZM17.3125 17.7465H14.6875V20.2402H17.3125V17.7465ZM17.3125 17.7465H19.9375V15.2527H17.3125V17.7465Z" fill="#F23939"/>
</g>
<defs>
<clipPath id="clip0_12089_8170">
<rect width="20" height="19" fill="white" transform="translate(6 7)"/>
</clipPath>
</defs>
</svg>
