<svg width="208" height="38" viewBox="0 0 208 38" fill="none" xmlns="http://www.w3.org/2000/svg">
    <g filter="url(#filter0_dd_12178_1271)">
        <path
            d="M3 18C3 9.16344 10.1634 2 19 2C27.8366 2 35 9.16344 35 18C35 26.8366 27.8366 34 19 34C10.1634 34 3 26.8366 3 18Z"
            fill="#DC3434" />
        <path
            d="M20.2664 14.0027C20.7199 13.6943 21.3405 12.959 21.5505 12.4368C21.7115 12.0396 21.9569 11.8121 22.1435 11.7138C22.077 11.4941 21.8705 11.2924 22.3109 10.9124C22.4527 11.0158 22.5997 11.1387 22.7355 11.2957C23.4657 11.0619 24.6371 11.2156 25.4581 11.8316C27.7537 13.5507 27.2361 19.215 26.2524 20.5482H26.2513L26.2744 20.6599H26.2777C26.3421 20.6599 26.5254 20.7061 26.575 20.9217C26.6139 21.0787 26.4767 21.2053 26.4016 21.2286L26.4051 21.3189H26.409C26.6673 21.7461 27.0481 22.3012 27.0856 22.8528C27.1235 23.4042 26.9671 23.9374 26.7047 24.2982H26.7026L26.7426 24.4028C26.7426 24.4028 26.906 24.5318 26.962 24.6695C27.0168 24.8091 27.0177 25.0869 27.0177 25.0869H21.0884C21.0884 25.0869 21.1031 24.8103 21.1516 24.6806C21.1986 24.5513 21.3555 24.4098 21.3625 24.4039L21.4077 24.2982H21.4011C21.1406 23.9374 20.9893 23.5031 21.0207 22.9598C21.0533 22.4011 21.3405 21.7887 21.6376 21.3189H21.6401L21.649 21.2324H21.6184C21.5493 21.2298 21.3845 21.0923 21.4271 20.9217C21.4768 20.7061 21.6586 20.6599 21.724 20.6599H21.7277L21.7417 20.5482H21.7408L21.4864 18.5003C22.5412 17.6493 23.663 16.0504 23.623 14.5409C23.616 14.2753 23.3889 14.3056 23.3819 14.4958C23.3688 14.8631 23.1588 15.5012 22.3811 15.2882C21.9532 15.1717 21.5229 15.1371 21.2047 15.2591C20.8955 15.3771 20.8348 15.523 20.5537 15.6654C20.5537 15.6654 20.2664 15.3966 20.06 14.9926C19.8685 14.6184 19.7498 14.3529 20.2664 14.0027Z"
            fill="#D8E3DA" />
        <mask id="mask0_12178_1271" style="mask-type:alpha" maskUnits="userSpaceOnUse" x="11" y="11" width="9"
            height="15">
            <path
                d="M19.0146 22.5082C19.0485 23.1365 18.7898 23.7057 18.5139 24.1258C18.5178 24.1456 18.5616 24.2031 18.6164 24.275L19.0146 22.5082ZM19.0146 22.5082C18.992 22.0875 18.6415 21.4003 18.391 20.951L19.0146 22.5082ZM18.023 24.2206L17.9845 24.0211L18.096 23.8514C18.3434 23.4747 18.5411 23.0127 18.5153 22.5352L18.5153 22.5351C18.5108 22.451 18.4751 22.3053 18.3972 22.1038C18.3229 21.9115 18.2239 21.703 18.1214 21.5048C18.0195 21.3079 17.9178 21.128 17.8401 20.9934C17.8153 20.9505 17.7965 20.9182 17.7795 20.889C17.7673 20.868 17.7559 20.8486 17.744 20.828C17.7323 20.8077 17.7205 20.7871 17.711 20.7698C17.7066 20.7617 17.6997 20.749 17.6929 20.735C17.6896 20.7284 17.6836 20.7157 17.6771 20.6998C17.6771 20.6997 17.677 20.6995 17.6769 20.6993C17.6742 20.6929 17.6528 20.6419 17.6438 20.5753L17.6114 20.3343H17.3324L17.29 19.8809L16.8188 14.8428L16.7677 14.2962H16.9954L16.4289 14.0616L17.0521 13.5323L17.0522 13.5323L17.0523 13.5321L17.0525 13.5319L17.0527 13.5318L17.0528 13.5317L17.0546 13.5302L17.0679 13.5184C17.0804 13.5072 17.0998 13.4896 17.1245 13.4662C17.174 13.4193 17.2441 13.35 17.3227 13.2635C17.3802 13.2002 17.4402 13.1299 17.4992 13.0544H17.0933H15.952H15.4014L15.4544 12.5063L15.5173 11.8557H15.1596L15.2221 12.5066L15.2746 13.0544H14.7244H13.5831H13.1443C13.2174 13.1585 13.2891 13.2437 13.3521 13.3109C13.3901 13.3515 13.4248 13.3854 13.4546 13.4128H13.9645L13.773 14.0556C13.745 14.1494 13.6961 14.2154 13.6591 14.2556C13.6408 14.2754 13.6226 14.2919 13.6062 14.3054L13.6748 14.3042L13.8129 14.596L13.8544 14.6836L14.1922 15.3975H13.8545L13.4374 19.7586L13.4307 19.8286L13.405 19.8941L13.3564 20.0174L13.2317 20.3343H13.2314L13.1858 20.5948C13.1732 20.6669 13.1462 20.7213 13.1437 20.7263C13.1436 20.7265 13.1435 20.7266 13.1435 20.7266C13.1358 20.7428 13.1286 20.7556 13.1249 20.7622C13.117 20.7762 13.1091 20.7888 13.104 20.7969C13.0931 20.8141 13.0795 20.8347 13.066 20.8551C13.0535 20.8738 13.0408 20.8927 13.0271 20.9132C13.0066 20.9438 12.9836 20.9781 12.9551 21.0211C12.8653 21.1564 12.7479 21.3369 12.6304 21.5341C12.5121 21.7328 12.3984 21.9407 12.3133 22.1311C12.2231 22.3329 12.1862 22.4696 12.1818 22.5392L12.1817 22.5405C12.1494 23.0408 12.331 23.4749 12.577 23.8437L12.6989 24.0265L12.6467 24.2399C12.6309 24.3045 12.6051 24.3514 12.6001 24.3605C12.5999 24.3609 12.5997 24.3612 12.5996 24.3614C12.5907 24.3778 12.5826 24.3903 12.5786 24.3965C12.5702 24.4093 12.5628 24.4194 12.5596 24.4236C12.5525 24.4332 12.5455 24.4421 12.5414 24.4473L12.51 24.4864C12.496 24.5036 12.4801 24.5234 12.4633 24.5449H15.3431H18.1935C18.1808 24.5282 18.1689 24.5123 18.1592 24.4992C18.1439 24.4784 18.1243 24.4512 18.1066 24.4232C18.0977 24.4093 18.0851 24.3885 18.0725 24.3637C18.0637 24.3462 18.0369 24.2927 18.023 24.2206ZM17.627 12.8788C17.6852 12.7924 17.7391 12.7018 17.7847 12.6091L17.7848 12.6089C17.8927 12.3888 17.9706 12.1103 18.0235 11.8557H17.528L17.591 12.5063L17.627 12.8788ZM13.0854 12.5063L13.1483 11.8557H12.6492C12.6987 12.0815 12.777 12.3521 12.8997 12.623L12.9002 12.6241C12.9466 12.7272 12.9963 12.8206 13.0469 12.9047L13.0854 12.5063Z"
                fill="#DC3434" stroke="white" />
        </mask>
        <g mask="url(#mask0_12178_1271)">
            <mask id="path-4-inside-1_12178_1271" fill="white">
                <rect x="9.37292" y="8" width="11.9322" height="19.1186" rx="1" />
            </mask>
            <rect x="9.37292" y="8" width="11.9322" height="19.1186" rx="1" fill="#D9D9D9" stroke="#D8E3DA"
                stroke-width="11.9322" mask="url(#path-4-inside-1_12178_1271)" />
        </g>
    </g>
    <path
        d="M139.772 21.695C139.772 21.8497 139.772 22.0122 139.772 22.1824C139.787 22.3527 139.818 22.5074 139.865 22.6467C139.926 22.786 140.012 22.902 140.12 22.9949C140.228 23.0877 140.383 23.1341 140.584 23.1341C140.832 23.1341 141.017 23.0722 141.141 22.9484C141.28 22.8092 141.381 22.6931 141.443 22.6003C141.474 22.6931 141.497 22.8324 141.513 23.0181C141.544 23.2038 141.559 23.3585 141.559 23.4823C141.559 24.0704 141.358 24.5114 140.955 24.8054C140.569 25.0994 140.05 25.2464 139.4 25.2464C138.549 25.2464 137.876 24.9834 137.381 24.4572C136.901 23.9311 136.661 23.0645 136.661 21.8575V11.2032C136.661 10.8163 136.708 10.4527 136.801 10.1122C136.909 9.77178 137.071 9.47776 137.288 9.23016C137.505 8.96709 137.783 8.76592 138.124 8.62665C138.48 8.4719 138.905 8.39453 139.4 8.39453C139.462 8.39453 139.524 8.40227 139.586 8.41774C139.648 8.41774 139.71 8.41774 139.772 8.41774V21.695ZM140.166 13.5708H140.213C140.244 13.5708 140.313 13.5708 140.422 13.5708C140.53 13.5553 140.7 13.5476 140.932 13.5476H141.977C141.992 13.594 142 13.7101 142 13.8958C142 14.4838 141.861 14.948 141.582 15.2885C141.304 15.6135 140.832 15.7759 140.166 15.7759V13.5708Z"
        fill="#DC3434" />
    <path
        d="M126.166 8.39453H126.421C127.226 8.39453 127.899 8.61118 128.441 9.04447C128.998 9.47776 129.276 10.1664 129.276 11.1103V25.2464H129.137C128.781 25.2464 128.425 25.2 128.069 25.1072C127.729 25.0143 127.412 24.8673 127.118 24.6661C126.839 24.4495 126.607 24.1787 126.421 23.8537C126.251 23.5133 126.166 23.0955 126.166 22.6003V8.39453ZM131.458 17.0758C131.458 16.8901 131.443 16.7122 131.412 16.5419C131.396 16.3717 131.35 16.2247 131.273 16.1009C131.211 15.9616 131.11 15.8533 130.971 15.7759C130.847 15.6831 130.669 15.6367 130.437 15.6367C130.313 15.6367 130.182 15.6599 130.042 15.7063C129.919 15.7373 129.803 15.7992 129.694 15.892C129.632 15.7682 129.594 15.6521 129.578 15.5438C129.563 15.42 129.555 15.2962 129.555 15.1724C129.555 14.6772 129.764 14.2672 130.182 13.9422C130.6 13.6172 131.102 13.4547 131.69 13.4547C132.619 13.4547 133.331 13.6946 133.826 14.1743C134.321 14.6386 134.569 15.3117 134.569 16.1938V25.2464C134.213 25.2464 133.849 25.2077 133.478 25.1304C133.122 25.0375 132.789 24.8905 132.48 24.6893C132.186 24.4727 131.938 24.1942 131.737 23.8537C131.551 23.4978 131.458 23.049 131.458 22.5074V17.0758Z"
        fill="#DC3434" />
    <path
        d="M118.781 21.6257C118.781 21.8114 118.789 21.9893 118.804 22.1596C118.835 22.3298 118.882 22.4845 118.944 22.6238C119.021 22.7476 119.122 22.8559 119.245 22.9488C119.385 23.0262 119.57 23.0648 119.802 23.0648C119.926 23.0648 120.05 23.0494 120.174 23.0184C120.313 22.972 120.437 22.9024 120.545 22.8095C120.607 22.9333 120.646 23.0571 120.661 23.1809C120.677 23.2892 120.684 23.4053 120.684 23.5291C120.684 24.0243 120.476 24.4343 120.058 24.7593C119.64 25.0843 119.137 25.2468 118.549 25.2468C117.62 25.2468 116.909 24.9992 116.413 24.504C115.918 24.0088 115.671 23.3898 115.671 22.647V16.1941C115.671 15.6834 115.763 15.2579 115.949 14.9174C116.15 14.5615 116.398 14.2752 116.692 14.0586C117.001 13.8419 117.334 13.6872 117.69 13.5943C118.061 13.5015 118.425 13.4551 118.781 13.4551V21.6257ZM120.963 17.0761C120.963 16.8905 120.948 16.7125 120.917 16.5423C120.901 16.3721 120.855 16.225 120.777 16.1012C120.715 15.962 120.615 15.8536 120.476 15.7763C120.352 15.6834 120.174 15.637 119.942 15.637C119.818 15.637 119.686 15.6602 119.547 15.7066C119.423 15.7376 119.307 15.7995 119.199 15.8923C119.137 15.7685 119.098 15.6525 119.083 15.5442C119.067 15.4204 119.06 15.2966 119.06 15.1728C119.06 14.6776 119.269 14.2675 119.686 13.9425C120.104 13.6176 120.607 13.4551 121.195 13.4551C122.124 13.4551 122.835 13.6949 123.331 14.1746C123.826 14.6389 124.073 15.312 124.073 16.1941V25.7342C124.073 26.1366 123.981 26.5002 123.795 26.8252C123.625 27.1656 123.393 27.4596 123.098 27.7072C122.804 27.9548 122.472 28.1483 122.1 28.2875C121.729 28.4268 121.35 28.4964 120.963 28.4964V17.0761ZM117.203 29.3785C117.203 28.8988 117.295 28.5042 117.481 28.1947C117.667 27.9007 117.891 27.6685 118.154 27.4983C118.417 27.3281 118.696 27.212 118.99 27.1501C119.284 27.1037 119.539 27.0805 119.756 27.0805C119.942 27.0805 120.096 27.096 120.22 27.1269V28.1947C120.22 28.5197 120.298 28.7595 120.452 28.9143C120.607 29.069 120.8 29.1464 121.033 29.1464C121.311 29.1464 121.559 29.0535 121.775 28.8678C121.822 28.9916 121.845 29.0999 121.845 29.1928C121.861 29.3011 121.868 29.4172 121.868 29.541C121.868 29.7267 121.822 29.9356 121.729 30.1677C121.652 30.4153 121.52 30.6397 121.334 30.8409C121.164 31.0575 120.932 31.2355 120.638 31.3747C120.359 31.5295 120.019 31.6068 119.617 31.6068C119.199 31.6068 118.835 31.5372 118.526 31.3979C118.232 31.2587 117.984 31.0807 117.783 30.8641C117.597 30.6629 117.45 30.4308 117.342 30.1677C117.249 29.9046 117.203 29.6416 117.203 29.3785Z"
        fill="#DC3434" />
    <path
        d="M109.842 9.88017C109.842 9.35403 110.028 8.913 110.399 8.55709C110.771 8.1857 111.212 8 111.722 8C112.233 8 112.666 8.1857 113.022 8.55709C113.394 8.913 113.579 9.35403 113.579 9.88017C113.579 10.4063 113.394 10.8473 113.022 11.2033C112.666 11.5592 112.233 11.7371 111.722 11.7371C111.212 11.7371 110.771 11.5592 110.399 11.2033C110.028 10.8473 109.842 10.4063 109.842 9.88017ZM110.19 13.4548H110.446C111.25 13.4548 111.924 13.6715 112.465 14.1048C113.022 14.538 113.301 15.2267 113.301 16.1706V25.2465H113.162C112.806 25.2465 112.45 25.2001 112.094 25.1072C111.753 25.0144 111.436 24.8674 111.142 24.6662C110.864 24.4496 110.631 24.1788 110.446 23.8538C110.276 23.5133 110.19 23.0955 110.19 22.6003V13.4548Z"
        fill="#DC3434" />
    <path
        d="M104.755 17.0761C104.755 16.8905 104.74 16.7125 104.709 16.5423C104.694 16.3721 104.647 16.225 104.57 16.1012C104.508 15.962 104.407 15.8536 104.268 15.7763C104.144 15.6834 103.966 15.637 103.734 15.637C103.61 15.637 103.479 15.6602 103.34 15.7066C103.216 15.7376 103.1 15.7995 102.991 15.8923C102.929 15.7685 102.891 15.6525 102.875 15.5442C102.86 15.4204 102.852 15.2966 102.852 15.1728C102.852 14.6776 103.076 14.2675 103.525 13.9425C103.974 13.6176 104.547 13.4551 105.243 13.4551C106.079 13.4551 106.721 13.7104 107.17 14.2211C107.634 14.7163 107.866 15.4513 107.866 16.4262V25.2468H107.727C106.798 25.2468 106.071 25.0301 105.545 24.5968C105.019 24.1481 104.755 23.4362 104.755 22.4613V17.0761ZM99.4631 13.4551H99.7185C100.523 13.4551 101.196 13.6717 101.738 14.105C102.295 14.5383 102.574 15.2269 102.574 16.1709V25.2468H102.434C102.078 25.2468 101.722 25.2003 101.367 25.1075C101.026 25.0146 100.709 24.8676 100.415 24.6665C100.136 24.4498 99.9042 24.179 99.7185 23.854C99.5482 23.5136 99.4631 23.0958 99.4631 22.6006V13.4551Z"
        fill="#DC3434" />
    <path
        d="M89.4268 8.39453H89.7982C90.1695 8.39453 90.5332 8.44096 90.8891 8.5338C91.245 8.61118 91.5623 8.75819 91.8408 8.97483C92.1193 9.176 92.3437 9.45454 92.5139 9.81046C92.6842 10.1664 92.7693 10.6229 92.7693 11.18V22.4842C92.7693 23.0568 92.6764 23.521 92.4907 23.8769C92.3205 24.2328 92.0884 24.5114 91.7944 24.7126C91.5158 24.9137 91.1831 25.053 90.7963 25.1304C90.4249 25.2077 90.0457 25.2464 89.6589 25.2464H89.4268V8.39453ZM97.3653 25.2464H97.1331C96.7308 25.2464 96.3285 25.2077 95.9261 25.1304C95.5392 25.053 95.1833 24.9137 94.8584 24.7126C94.5489 24.5114 94.2935 24.2328 94.0924 23.8769C93.8912 23.521 93.7906 23.0568 93.7906 22.4842V16.8669H94.162C94.5489 16.8669 94.9357 16.9133 95.3226 17.0062C95.7095 17.0835 96.0499 17.2306 96.3439 17.4472C96.6534 17.6484 96.901 17.9269 97.0867 18.2828C97.2724 18.6388 97.3653 19.0953 97.3653 19.6523V25.2464ZM97.5974 13.478C97.5974 14.4064 97.4039 15.1647 97.0171 15.7527C96.6302 16.3253 96.0112 16.6116 95.1601 16.6116C94.8506 16.6116 94.5721 16.5651 94.3245 16.4723C94.0769 16.364 93.868 16.2324 93.6978 16.0777C93.5275 15.9229 93.396 15.745 93.3032 15.5438C93.2103 15.3427 93.1639 15.1492 93.1639 14.9635C93.1639 14.7778 93.1716 14.6308 93.1871 14.5225C93.2026 14.4142 93.218 14.3213 93.2335 14.2439C93.3109 14.3368 93.3805 14.4064 93.4424 14.4529C93.5198 14.4993 93.6204 14.5225 93.7442 14.5225C93.9608 14.507 94.0924 14.4219 94.1388 14.2672C94.1852 14.0969 94.2084 13.8958 94.2084 13.6637V8.41774H94.5102C94.8351 8.41774 95.1756 8.44869 95.5315 8.51059C95.8874 8.57249 96.2201 8.70402 96.5296 8.90519C96.8391 9.09089 97.0944 9.37717 97.2956 9.76404C97.4968 10.1354 97.5974 10.6384 97.5974 11.2728V13.478Z"
        fill="#DC3434" />
    <path
        d="M83.4868 18.8631C83.9201 18.8631 84.3456 18.925 84.7634 19.0488C85.1813 19.1572 85.5449 19.3351 85.8544 19.5827C86.1639 19.8303 86.4115 20.1553 86.5972 20.5576C86.7984 20.9445 86.8989 21.4165 86.8989 21.9735V25.4089C86.5121 25.4089 86.1175 25.347 85.7151 25.2232C85.3128 25.0839 84.9414 24.8905 84.601 24.6429C84.276 24.3953 84.0052 24.0936 83.7885 23.7376C83.5874 23.3663 83.4868 22.9484 83.4868 22.4842V18.8631ZM83.9974 12.9905C84.1986 12.9905 84.4772 13.0292 84.8331 13.1066C85.189 13.1685 85.5294 13.3 85.8544 13.5012C86.1948 13.7023 86.4889 13.9809 86.7365 14.3368C86.9841 14.6927 87.1078 15.157 87.1078 15.7295C87.1078 16.1009 87.0614 16.4568 86.9686 16.7973C86.8912 17.1377 86.7674 17.4395 86.5972 17.7025C86.427 17.9501 86.1948 18.1513 85.9008 18.306C85.6223 18.4608 85.2896 18.5382 84.9027 18.5382C84.2682 18.5382 83.804 18.3447 83.51 17.9579C83.2314 17.5555 83.0922 17.0913 83.0922 16.5651V16.3098C83.1541 16.3872 83.2005 16.4491 83.2314 16.4955C83.2779 16.5265 83.363 16.5419 83.4868 16.5419C83.7034 16.5419 83.8427 16.4413 83.9046 16.2402C83.9665 16.0235 83.9974 15.7063 83.9974 15.2885V12.9905ZM79.4247 8.39453H79.68C80.4847 8.39453 81.1578 8.61118 81.6995 9.04447C82.2565 9.47776 82.5351 10.1664 82.5351 11.1103V25.2464C82.4732 25.2464 82.419 25.2464 82.3726 25.2464C82.3262 25.2619 82.272 25.2696 82.2101 25.2696C81.8697 25.2696 81.5292 25.2232 81.1888 25.1304C80.8638 25.0375 80.5698 24.8828 80.3067 24.6661C80.0437 24.4495 79.827 24.1709 79.6568 23.8305C79.5021 23.4746 79.4247 23.0413 79.4247 22.5306V8.39453Z"
        fill="#DC3434" />
    <path
        d="M72.4251 25.2468H72.2162C71.8603 25.2468 71.5044 25.2081 71.1484 25.1307C70.808 25.0379 70.4985 24.8908 70.22 24.6897C69.9569 24.473 69.7403 24.1945 69.57 23.854C69.3998 23.5136 69.3147 23.0958 69.3147 22.6006V16.1941C69.3147 15.637 69.4075 15.1805 69.5932 14.8246C69.7789 14.4687 70.0188 14.1901 70.3128 13.989C70.6068 13.7878 70.9395 13.6485 71.3109 13.5711C71.6823 13.4938 72.0537 13.4551 72.4251 13.4551V25.2468ZM77.5549 15.7531C77.5549 15.9852 77.5163 16.225 77.4389 16.4726C77.377 16.7202 77.2609 16.9446 77.0907 17.1458C76.9205 17.347 76.6961 17.5094 76.4176 17.6332C76.1545 17.757 75.8218 17.8189 75.4195 17.8189C75.0945 17.8189 74.8159 17.788 74.5838 17.7261V16.9369C74.5838 16.5964 74.5219 16.3102 74.3981 16.078C74.2743 15.8459 74.0345 15.7144 73.6786 15.6834C73.5083 15.6834 73.3613 15.7144 73.2375 15.7763C73.1292 15.8227 73.0209 15.8846 72.9126 15.962C72.8042 15.7453 72.7501 15.4977 72.7501 15.2192C72.7501 14.7549 72.9512 14.3449 73.3536 13.989C73.7559 13.633 74.313 13.4551 75.0248 13.4551H75.1873C75.4504 13.4706 75.7212 13.5247 75.9997 13.6176C76.2783 13.7104 76.5336 13.8497 76.7657 14.0354C76.9979 14.2211 77.1836 14.4609 77.3228 14.7549C77.4776 15.0335 77.5549 15.3662 77.5549 15.7531ZM77.5549 22.9952C77.5549 23.3666 77.4776 23.6916 77.3228 23.9701C77.1836 24.2486 76.9979 24.4808 76.7657 24.6665C76.5336 24.8522 76.2783 24.9914 75.9997 25.0843C75.7212 25.1771 75.4504 25.2313 75.1873 25.2468H75.0248C74.313 25.2468 73.7559 25.0688 73.3536 24.7129C72.9512 24.357 72.7501 23.9469 72.7501 23.4827C72.7501 23.2041 72.8042 22.9565 72.9126 22.7399C73.1137 22.9256 73.3458 23.0184 73.6089 23.0184C73.9958 22.9875 74.2511 22.8559 74.3749 22.6238C74.5142 22.3917 74.5838 22.1054 74.5838 21.765V20.9758C74.8159 20.9139 75.0945 20.8829 75.4195 20.8829C75.8218 20.8829 76.1545 20.9448 76.4176 21.0686C76.6961 21.1924 76.9205 21.3549 77.0907 21.5561C77.2609 21.7572 77.377 21.9893 77.4389 22.2524C77.5163 22.5 77.5549 22.7476 77.5549 22.9952Z"
        fill="#DC3434" />
    <path
        d="M61.9299 21.6257C61.9299 21.8114 61.9376 21.9893 61.9531 22.1596C61.984 22.3298 62.0304 22.4845 62.0923 22.6238C62.1697 22.7476 62.2703 22.8559 62.3941 22.9488C62.5334 23.0262 62.7191 23.0648 62.9512 23.0648C63.075 23.0648 63.1988 23.0494 63.3226 23.0184C63.4619 22.972 63.5856 22.9024 63.694 22.8095C63.7559 22.9333 63.7946 23.0571 63.81 23.1809C63.8255 23.2892 63.8332 23.4053 63.8332 23.5291C63.8332 24.0243 63.6243 24.4343 63.2065 24.7593C62.7887 25.0843 62.2858 25.2468 61.6977 25.2468C60.7693 25.2468 60.0574 24.9992 59.5622 24.504C59.0671 24.0088 58.8195 23.3898 58.8195 22.647V16.1941C58.8195 15.6834 58.9123 15.2579 59.098 14.9174C59.2992 14.5615 59.5468 14.2752 59.8408 14.0586C60.1503 13.8419 60.483 13.6872 60.8389 13.5943C61.2103 13.5015 61.5739 13.4551 61.9299 13.4551V21.6257ZM67.2222 22.5077C67.2222 23.0494 67.1216 23.4981 66.9204 23.854C66.7347 24.1945 66.4871 24.473 66.1777 24.6897C65.8836 24.8908 65.5509 25.0379 65.1795 25.1307C64.8081 25.2081 64.4522 25.2468 64.1118 25.2468V17.0761C64.1118 16.8905 64.0963 16.7125 64.0654 16.5423C64.0499 16.3721 64.0035 16.225 63.9261 16.1012C63.8642 15.962 63.7636 15.8536 63.6243 15.7763C63.5005 15.6834 63.3226 15.637 63.0905 15.637C62.9667 15.637 62.8351 15.6602 62.6959 15.7066C62.5721 15.7376 62.456 15.7995 62.3477 15.8923C62.2858 15.7685 62.2471 15.6525 62.2316 15.5442C62.2161 15.4204 62.2084 15.2966 62.2084 15.1728C62.2084 14.6776 62.4173 14.2675 62.8351 13.9425C63.2529 13.6176 63.7559 13.4551 64.3439 13.4551C65.2724 13.4551 65.9842 13.6949 66.4794 14.1746C66.9746 14.6389 67.2222 15.312 67.2222 16.1941V22.5077Z"
        fill="#DC3434" />
    <path
        d="M53.6285 8.39453H53.8839C54.6886 8.39453 55.3617 8.61118 55.9033 9.04447C56.4604 9.47776 56.7389 10.1664 56.7389 11.1103V25.2464H56.5997C56.2438 25.2464 55.8878 25.2 55.5319 25.1072C55.1915 25.0143 54.8742 24.8673 54.5802 24.6661C54.3017 24.4495 54.0696 24.1787 53.8839 23.8537C53.7137 23.5133 53.6285 23.0955 53.6285 22.6003V8.39453Z"
        fill="#DC3434" />
    <path
        d="M46.3425 25.2464H46.1104C45.7081 25.2464 45.3212 25.2077 44.9498 25.1304C44.5784 25.053 44.2457 24.9137 43.9517 24.7126C43.6731 24.5114 43.441 24.2328 43.2553 23.8769C43.0851 23.521 43 23.0568 43 22.4842V11.18C43 10.6229 43.0851 10.1664 43.2553 9.81046C43.4256 9.45454 43.6499 9.176 43.9285 8.97483C44.207 8.75819 44.5243 8.61118 44.8802 8.5338C45.2361 8.44096 45.5997 8.39453 45.9711 8.39453H46.3425V25.2464ZM51.7741 22.1128C51.7741 23.0877 51.5188 23.8537 51.0081 24.4108C50.5129 24.9679 49.8011 25.2464 48.8726 25.2464C48.2227 25.2464 47.6966 25.0917 47.2942 24.7822C46.9074 24.4572 46.7139 23.9852 46.7139 23.3663C46.7139 23.2579 46.7217 23.1341 46.7371 22.9949C46.7681 22.8401 46.8068 22.7008 46.8532 22.5771C46.9151 22.7627 47.0389 22.8556 47.2246 22.8556C47.4103 22.8556 47.5495 22.8092 47.6424 22.7163C47.7352 22.6235 47.8049 22.5074 47.8513 22.3681C47.8977 22.2134 47.9209 22.0509 47.9209 21.8807C47.9364 21.695 47.9442 21.517 47.9442 21.3468V16.7508C48.0215 16.7354 48.0989 16.7276 48.1763 16.7276C48.2691 16.7122 48.3697 16.7044 48.478 16.7044C48.772 16.7044 49.1125 16.7508 49.4994 16.8437C49.8862 16.9211 50.2421 17.0681 50.5671 17.2847C50.9075 17.5014 51.1938 17.8031 51.4259 18.19C51.6581 18.5614 51.7741 19.0334 51.7741 19.6059V22.1128ZM51.7741 13.5476C51.7741 14.1356 51.6581 14.6153 51.4259 14.9867C51.1938 15.3581 50.9075 15.6521 50.5671 15.8688C50.2421 16.0854 49.8862 16.2402 49.4994 16.333C49.1125 16.4104 48.772 16.4491 48.478 16.4491C48.3697 16.4491 48.2691 16.4491 48.1763 16.4491C48.0989 16.4336 48.0215 16.4181 47.9442 16.4027V12.2941C47.9442 12.1239 47.9364 11.9537 47.9209 11.7835C47.9209 11.5978 47.8977 11.4353 47.8513 11.296C47.8049 11.1413 47.7352 11.0175 47.6424 10.9246C47.5495 10.8318 47.4103 10.7854 47.2246 10.7854C46.977 10.7854 46.83 10.8627 46.7836 11.0175C46.7371 10.8163 46.7139 10.6151 46.7139 10.414C46.7139 10.2128 46.7449 9.99616 46.8068 9.76404C46.8687 9.53192 46.977 9.31527 47.1317 9.1141C47.302 8.91293 47.5186 8.74271 47.7817 8.60344C48.0447 8.46417 48.3852 8.39453 48.803 8.39453C49.7315 8.39453 50.4588 8.69629 50.9849 9.2998C51.5111 9.90331 51.7741 10.6461 51.7741 11.5281V13.5476Z"
        fill="#DC3434" />
    <line x1="150.5" y1="6" x2="150.5" y2="30" stroke="#D0D5DD" />
    <path
        d="M189.518 14.141C189.412 14.141 189.313 14.1324 189.222 14.1151C189.132 14.0992 189.061 14.0805 189.008 14.0588L189.189 13.4487C189.303 13.4818 189.405 13.4977 189.494 13.4963C189.584 13.4948 189.663 13.4667 189.73 13.4119C189.8 13.3585 189.858 13.2691 189.906 13.1436L189.973 12.964L188.767 9.57129H189.598L190.364 12.0812H190.399L191.167 9.57129H192L190.669 13.2972C190.607 13.4732 190.525 13.6239 190.423 13.7494C190.32 13.8764 190.195 13.973 190.046 14.0394C189.899 14.1071 189.723 14.141 189.518 14.141Z"
        fill="white" />
    <path
        d="M185.341 12.8951V8.46387H186.124V10.1213H186.157C186.197 10.0405 186.254 9.95466 186.328 9.86379C186.401 9.77147 186.501 9.69285 186.626 9.62794C186.752 9.56159 186.912 9.52841 187.107 9.52841C187.364 9.52841 187.595 9.59405 187.801 9.72531C188.009 9.85513 188.173 10.0477 188.295 10.303C188.417 10.5569 188.479 10.8685 188.479 11.2377C188.479 11.6027 188.419 11.9128 188.299 12.1681C188.179 12.4235 188.016 12.6182 187.81 12.7523C187.604 12.8865 187.37 12.9536 187.109 12.9536C186.919 12.9536 186.761 12.9218 186.635 12.8584C186.51 12.7949 186.409 12.7184 186.332 12.629C186.257 12.5381 186.199 12.4523 186.157 12.3715H186.111V12.8951H185.341ZM186.109 11.2334C186.109 11.4483 186.14 11.6366 186.2 11.7981C186.262 11.9597 186.351 12.0859 186.466 12.1768C186.583 12.2662 186.725 12.3109 186.89 12.3109C187.064 12.3109 187.208 12.2648 187.325 12.1725C187.442 12.0787 187.53 11.951 187.589 11.7895C187.65 11.6265 187.68 11.4411 187.68 11.2334C187.68 11.0271 187.651 10.8439 187.591 10.6838C187.532 10.5237 187.444 10.3982 187.327 10.3073C187.211 10.2165 187.065 10.171 186.89 10.171C186.723 10.171 186.581 10.215 186.464 10.303C186.347 10.391 186.259 10.5143 186.198 10.673C186.139 10.8317 186.109 11.0185 186.109 11.2334Z"
        fill="white" />
    <path
        d="M181.191 12.9536C180.93 12.9536 180.696 12.8865 180.49 12.7523C180.283 12.6182 180.12 12.4235 180.001 12.1681C179.881 11.9128 179.821 11.6027 179.821 11.2377C179.821 10.8685 179.882 10.5569 180.003 10.303C180.125 10.0477 180.291 9.85513 180.498 9.72531C180.706 9.59405 180.938 9.52841 181.193 9.52841C181.388 9.52841 181.548 9.56159 181.673 9.62794C181.799 9.69285 181.898 9.77147 181.972 9.86379C182.045 9.95466 182.102 10.0405 182.143 10.1213H182.175V8.46387H182.961V12.8951H182.19V12.3715H182.143C182.102 12.4523 182.044 12.5381 181.967 12.629C181.891 12.7184 181.79 12.7949 181.665 12.8584C181.539 12.9218 181.381 12.9536 181.191 12.9536ZM181.409 12.3109C181.575 12.3109 181.716 12.2662 181.833 12.1768C181.95 12.0859 182.039 11.9597 182.099 11.7981C182.16 11.6366 182.19 11.4483 182.19 11.2334C182.19 11.0185 182.16 10.8317 182.099 10.673C182.04 10.5143 181.952 10.391 181.835 10.303C181.72 10.215 181.578 10.171 181.409 10.171C181.235 10.171 181.089 10.2165 180.972 10.3073C180.855 10.3982 180.767 10.5237 180.708 10.6838C180.649 10.8439 180.619 11.0271 180.619 11.2334C180.619 11.4411 180.649 11.6265 180.708 11.7895C180.769 11.951 180.857 12.0787 180.974 12.1725C181.093 12.2648 181.238 12.3109 181.409 12.3109Z"
        fill="white" />
    <path
        d="M177.817 12.96C177.484 12.96 177.196 12.8907 176.954 12.7522C176.713 12.6123 176.527 12.4147 176.397 12.1594C176.268 11.9026 176.203 11.6004 176.203 11.2528C176.203 10.9109 176.268 10.6109 176.397 10.3527C176.529 10.093 176.712 9.8911 176.947 9.74685C177.182 9.60117 177.458 9.52832 177.776 9.52832C177.981 9.52832 178.174 9.5615 178.356 9.62785C178.539 9.69276 178.7 9.79374 178.84 9.93077C178.982 10.0678 179.093 10.2423 179.174 10.4544C179.254 10.665 179.295 10.916 179.295 11.2074V11.4475H176.571V10.9196H178.544C178.542 10.7696 178.51 10.6361 178.447 10.5193C178.383 10.401 178.294 10.308 178.18 10.2402C178.068 10.1724 177.937 10.1385 177.787 10.1385C177.626 10.1385 177.486 10.1774 177.365 10.2553C177.244 10.3318 177.149 10.4328 177.081 10.5582C177.015 10.6823 176.981 10.8186 176.98 10.9672V11.4281C176.98 11.6213 177.015 11.7872 177.086 11.9257C177.156 12.0627 177.255 12.168 177.382 12.2416C177.509 12.3137 177.657 12.3498 177.828 12.3498C177.942 12.3498 178.045 12.3339 178.137 12.3022C178.229 12.269 178.309 12.2207 178.377 12.1572C178.445 12.0938 178.496 12.0151 178.531 11.9214L179.262 12.0036C179.216 12.1969 179.128 12.3657 178.998 12.5099C178.87 12.6527 178.705 12.7638 178.505 12.8431C178.304 12.921 178.075 12.96 177.817 12.96Z"
        fill="white" />
    <path
        d="M174.067 12.8955V9.57202H174.826V10.1259H174.861C174.921 9.93408 175.025 9.78622 175.172 9.68237C175.321 9.57706 175.49 9.52441 175.681 9.52441C175.724 9.52441 175.772 9.52658 175.826 9.53091C175.881 9.53379 175.926 9.53884 175.962 9.54605V10.2666C175.929 10.255 175.876 10.2449 175.804 10.2363C175.733 10.2262 175.665 10.2211 175.599 10.2211C175.456 10.2211 175.327 10.2521 175.213 10.3142C175.101 10.3748 175.012 10.4591 174.947 10.5673C174.882 10.6755 174.85 10.8003 174.85 10.9416V12.8955H174.067Z"
        fill="white" />
    <path
        d="M171.926 12.96C171.593 12.96 171.305 12.8907 171.063 12.7522C170.822 12.6123 170.637 12.4147 170.507 12.1594C170.377 11.9026 170.312 11.6004 170.312 11.2528C170.312 10.9109 170.377 10.6109 170.507 10.3527C170.638 10.093 170.821 9.8911 171.056 9.74685C171.291 9.60117 171.568 9.52832 171.885 9.52832C172.09 9.52832 172.283 9.5615 172.465 9.62785C172.648 9.69276 172.81 9.79374 172.95 9.93077C173.091 10.0678 173.202 10.2423 173.283 10.4544C173.364 10.665 173.404 10.916 173.404 11.2074V11.4475H170.68V10.9196H172.653C172.652 10.7696 172.619 10.6361 172.556 10.5193C172.492 10.401 172.404 10.308 172.29 10.2402C172.177 10.1724 172.046 10.1385 171.896 10.1385C171.736 10.1385 171.595 10.1774 171.474 10.2553C171.353 10.3318 171.258 10.4328 171.19 10.5582C171.124 10.6823 171.09 10.8186 171.089 10.9672V11.4281C171.089 11.6213 171.124 11.7872 171.195 11.9257C171.265 12.0627 171.364 12.168 171.491 12.2416C171.618 12.3137 171.767 12.3498 171.937 12.3498C172.051 12.3498 172.154 12.3339 172.246 12.3022C172.339 12.269 172.419 12.2207 172.487 12.1572C172.554 12.0938 172.606 12.0151 172.64 11.9214L173.371 12.0036C173.325 12.1969 173.237 12.3657 173.108 12.5099C172.979 12.6527 172.815 12.7638 172.614 12.8431C172.414 12.921 172.184 12.96 171.926 12.96Z"
        fill="white" />
    <path
        d="M166.137 12.8947L165.198 9.57129H165.996L166.58 11.9081H166.611L167.208 9.57129H167.997L168.595 11.8951H168.627L169.203 9.57129H170.003L169.062 12.8947H168.246L167.623 10.6488H167.578L166.955 12.8947H166.137Z"
        fill="white" />
    <path
        d="M163.289 12.96C162.964 12.96 162.683 12.8886 162.445 12.7458C162.207 12.603 162.022 12.4032 161.891 12.1464C161.761 11.8896 161.696 11.5896 161.696 11.2463C161.696 10.903 161.761 10.6022 161.891 10.344C162.022 10.0858 162.207 9.88533 162.445 9.74253C162.683 9.59972 162.964 9.52832 163.289 9.52832C163.613 9.52832 163.894 9.59972 164.133 9.74253C164.371 9.88533 164.554 10.0858 164.684 10.344C164.816 10.6022 164.881 10.903 164.881 11.2463C164.881 11.5896 164.816 11.8896 164.684 12.1464C164.554 12.4032 164.371 12.603 164.133 12.7458C163.894 12.8886 163.613 12.96 163.289 12.96ZM163.293 12.3325C163.469 12.3325 163.616 12.2842 163.734 12.1875C163.853 12.0894 163.941 11.9582 163.998 11.7937C164.057 11.6293 164.087 11.4461 164.087 11.2441C164.087 11.0408 164.057 10.8568 163.998 10.6924C163.941 10.5265 163.853 10.3945 163.734 10.2964C163.616 10.1983 163.469 10.1493 163.293 10.1493C163.113 10.1493 162.963 10.1983 162.843 10.2964C162.725 10.3945 162.636 10.5265 162.577 10.6924C162.519 10.8568 162.49 11.0408 162.49 11.2441C162.49 11.4461 162.519 11.6293 162.577 11.7937C162.636 11.9582 162.725 12.0894 162.843 12.1875C162.963 12.2842 163.113 12.3325 163.293 12.3325Z"
        fill="white" />
    <path
        d="M158 12.8951V8.46387H159.662C160.002 8.46387 160.288 8.52734 160.519 8.65427C160.751 8.78121 160.926 8.95575 161.044 9.17789C161.164 9.39859 161.224 9.64958 161.224 9.93086C161.224 10.215 161.164 10.4675 161.044 10.6882C160.925 10.9089 160.748 11.0827 160.514 11.2096C160.281 11.3351 159.993 11.3979 159.651 11.3979H158.55V10.7379H159.543C159.742 10.7379 159.905 10.7033 160.032 10.6341C160.159 10.5648 160.252 10.4696 160.313 10.3485C160.375 10.2273 160.406 10.0881 160.406 9.93086C160.406 9.77363 160.375 9.63516 160.313 9.51543C160.252 9.39571 160.158 9.30267 160.03 9.23631C159.903 9.16852 159.739 9.13462 159.538 9.13462H158.803V12.8951H158Z"
        fill="white" />
    <path
        d="M158.804 16.1926C158.422 16.3285 158.147 16.607 158.033 16.9754C158.009 17.0514 158 17.2171 158 17.5671C158 18.0966 158.014 18.1749 158.156 18.4328C158.231 18.5686 158.454 18.7781 158.606 18.8541C158.82 18.96 158.92 18.9761 159.433 18.9876C160.102 19.0037 160.265 19.0544 160.542 19.3399C160.703 19.5057 160.745 19.5724 160.829 19.7842L160.877 19.9132V23.2515C160.877 26.4471 160.88 26.5945 160.922 26.7165C160.994 26.9329 161.073 27.0596 161.218 27.2C161.374 27.3519 161.541 27.4532 161.716 27.5016C161.882 27.5476 162.765 27.5476 162.928 27.5016C163.193 27.4279 163.508 27.177 163.624 26.9536C163.764 26.6797 163.755 26.8938 163.762 23.2492L163.769 19.9132L163.82 19.7773C163.96 19.409 164.219 19.1557 164.57 19.0475C164.696 19.006 164.803 18.9968 165.211 18.9876C165.861 18.9738 166.024 18.9232 166.304 18.6515C166.462 18.4972 166.555 18.343 166.609 18.1358C166.651 17.9792 166.658 17.2425 166.621 17.0445C166.586 16.8534 166.472 16.6508 166.311 16.4873C166.162 16.3354 166.052 16.2663 165.831 16.1926C165.71 16.1512 165.572 16.1489 162.313 16.1512C159.118 16.1512 158.913 16.1558 158.804 16.1926Z"
        fill="white" />
    <path
        d="M168.401 16.1983C168.322 16.2259 168.21 16.2766 168.154 16.3111C168.019 16.3871 167.823 16.5989 167.748 16.7485C167.616 17.0041 167.623 16.8061 167.623 20.4046C167.623 24.0469 167.613 23.819 167.758 24.0975C167.839 24.2587 168.086 24.4912 168.261 24.5718C168.459 24.6639 168.599 24.6846 169.007 24.6846C169.2 24.6846 169.433 24.6961 169.521 24.7077C169.925 24.7652 170.269 25.0415 170.425 25.4306C170.467 25.5296 170.477 25.6263 170.491 26.0775C170.509 26.637 170.521 26.7107 170.64 26.9432C170.724 27.1067 170.957 27.3277 171.143 27.4198C171.371 27.5326 171.518 27.5441 172.532 27.5326C173.51 27.5234 173.534 27.5211 173.762 27.3876C173.911 27.3024 174.135 27.079 174.202 26.9478C174.307 26.7429 174.328 26.6117 174.342 26.1121C174.349 25.8105 174.365 25.5987 174.386 25.525C174.507 25.0991 174.894 24.7606 175.328 24.7054C175.414 24.6961 175.649 24.6846 175.847 24.6846C176.262 24.6846 176.444 24.6501 176.637 24.5419C176.8 24.4498 177.019 24.2334 177.091 24.0929C177.229 23.8213 177.222 24.04 177.222 20.4046C177.222 16.7992 177.229 17.0041 177.096 16.7439C177.019 16.5966 176.779 16.3502 176.639 16.2812C176.388 16.1546 176.318 16.143 175.789 16.143C175.262 16.143 175.19 16.1546 174.938 16.2812C174.733 16.3848 174.505 16.6426 174.41 16.8798C174.37 16.9765 174.368 17.1929 174.356 20.3563C174.344 23.5519 174.342 23.7361 174.3 23.8558C174.228 24.0699 174.151 24.1965 174 24.3485C173.92 24.4291 173.801 24.5212 173.736 24.5534C173.489 24.6777 173.412 24.6846 172.432 24.6846C171.448 24.6846 171.35 24.6754 171.113 24.5557C170.964 24.482 170.731 24.2541 170.644 24.0998C170.491 23.8259 170.502 24.0998 170.488 20.3793C170.479 18.0148 170.467 16.9857 170.451 16.9373C170.353 16.6749 170.137 16.4055 169.932 16.2973C169.671 16.1569 169.594 16.143 169.046 16.1453C168.582 16.1453 168.531 16.1499 168.401 16.1983Z"
        fill="white" />
    <path
        d="M178.979 16.1949C178.764 16.2732 178.638 16.3538 178.506 16.4988C178.375 16.6393 178.284 16.7981 178.235 16.9662C178.21 17.0514 178.203 18.0068 178.196 21.8149C178.189 26.3666 178.191 26.5623 178.231 26.6958C178.301 26.9122 178.377 27.0457 178.527 27.1885C178.68 27.3381 178.853 27.4417 179.027 27.4924C179.191 27.5384 180.074 27.5384 180.239 27.4924C180.498 27.421 180.817 27.1724 180.929 26.9583C181.052 26.7188 181.05 26.7234 181.066 25.8209C181.085 24.8954 181.094 24.8125 181.218 24.5546C181.362 24.2553 181.593 24.0251 181.891 23.8801C182.185 23.7396 182.541 23.6982 182.853 23.7718C183.345 23.887 183.771 24.2899 183.913 24.7734C183.927 24.8171 183.946 25.2476 183.955 25.7288C183.974 26.6682 183.976 26.682 184.107 26.9398C184.191 27.1033 184.433 27.3335 184.615 27.4187C184.803 27.5085 184.983 27.5361 185.418 27.5361C185.81 27.5361 186.066 27.497 186.211 27.4164C186.507 27.2483 186.702 27.0181 186.802 26.7188C186.849 26.5807 186.847 24.7158 186.8 24.5546C186.702 24.2116 186.397 23.9008 186.052 23.7903C185.992 23.7718 185.775 23.7488 185.54 23.7373C185.008 23.7097 184.845 23.6659 184.575 23.4748C184.333 23.3045 184.142 23.0558 184.051 22.7957C183.902 22.3651 183.958 21.8862 184.205 21.5225C184.391 21.2439 184.692 21.0229 185.004 20.9377C185.074 20.9193 185.316 20.8939 185.54 20.8824C185.775 20.8709 185.992 20.8479 186.052 20.8295C186.43 20.7075 186.746 20.3506 186.821 19.9638C186.851 19.8026 186.851 19.105 186.821 18.9462C186.746 18.5617 186.425 18.2071 186.036 18.0828C185.952 18.0552 185.768 18.0414 185.307 18.0299C184.652 18.0114 184.598 18.0045 184.407 17.8825C184.291 17.8111 184.135 17.6431 184.076 17.528C184.004 17.3898 183.981 17.2954 183.958 17.0537C183.918 16.6577 183.732 16.3791 183.403 16.2248L183.245 16.1512L181.183 16.1466L179.121 16.142L178.979 16.1949ZM183.114 18.9945C183.501 19.0452 183.799 19.2915 183.92 19.6599C183.983 19.851 183.962 20.1388 183.871 20.3299C183.783 20.5141 183.594 20.7075 183.429 20.7834C183.231 20.8732 183.084 20.887 182.431 20.8778C181.863 20.8709 181.814 20.8663 181.688 20.8157C181.511 20.7466 181.35 20.6177 181.243 20.4588C181.12 20.2746 181.082 20.1319 181.094 19.8809C181.101 19.7083 181.115 19.6484 181.176 19.5241C181.311 19.2409 181.593 19.036 181.91 18.9968C182.117 18.9692 182.909 18.9692 183.114 18.9945Z"
        fill="white" />
    <path
        d="M188.615 16.1831C188.277 16.289 187.988 16.5722 187.87 16.9106C187.823 17.0442 187.823 17.0994 187.823 21.8238C187.821 27.0316 187.811 26.6656 187.951 26.9395C188.035 27.103 188.268 27.324 188.454 27.4161C188.536 27.4553 188.671 27.499 188.755 27.5128C188.96 27.5427 192.641 27.545 192.811 27.5128C192.998 27.4783 193.17 27.3816 193.305 27.2365C193.461 27.0708 193.524 26.9418 193.555 26.73C193.569 26.6356 193.589 26.4975 193.601 26.4238C193.664 26.0186 194.004 25.7009 194.435 25.6456C194.521 25.6364 194.796 25.6272 195.048 25.6249C195.395 25.6249 195.533 25.6157 195.63 25.5881C196.034 25.4707 196.346 25.1391 196.434 24.7293C196.476 24.5267 196.476 23.8913 196.434 23.6887C196.353 23.3088 196.087 23.0026 195.712 22.8552C195.607 22.8138 195.516 22.8046 194.976 22.7908C194.559 22.7792 194.328 22.7631 194.265 22.7424C194.1 22.6872 193.969 22.6066 193.853 22.4892C193.389 22.0195 193.541 21.2528 194.156 20.9673L194.312 20.8937L194.941 20.8798C195.339 20.8706 195.6 20.8545 195.651 20.8384C196.017 20.7118 196.301 20.4286 196.413 20.0763C196.448 19.9704 196.455 19.8668 196.453 19.4432C196.453 18.985 196.448 18.9252 196.402 18.8055C196.306 18.5476 196.11 18.3128 195.882 18.1815C195.67 18.0595 195.591 18.0457 194.976 18.0365C194.661 18.0296 194.358 18.0135 194.3 17.9996C193.937 17.9098 193.65 17.599 193.601 17.2399C193.589 17.1616 193.571 17.0258 193.557 16.9406C193.506 16.5699 193.254 16.2844 192.881 16.1716C192.793 16.1463 192.425 16.1394 190.759 16.1417C188.911 16.144 188.732 16.1463 188.615 16.1831ZM192.909 19.0265C193.363 19.1715 193.645 19.6435 193.557 20.1086C193.522 20.2997 193.45 20.4355 193.305 20.5851C193.165 20.7302 192.995 20.8246 192.811 20.8591C192.641 20.8913 191.609 20.889 191.453 20.8568C191.274 20.82 191.073 20.7072 190.952 20.5736C190.519 20.0994 190.665 19.3488 191.246 19.0794C191.446 18.985 191.567 18.9735 192.226 18.9827C192.664 18.9873 192.823 18.9988 192.909 19.0265ZM192.904 22.823C193.354 22.968 193.641 23.4331 193.562 23.8867C193.527 24.0893 193.454 24.2297 193.301 24.3909C193.163 24.5313 193.061 24.5935 192.881 24.6487C192.723 24.6948 191.539 24.6948 191.378 24.6464C191.129 24.5728 190.898 24.3725 190.789 24.1353C190.521 23.562 190.898 22.8782 191.525 22.7908C191.756 22.7585 192.783 22.7839 192.904 22.823Z"
        fill="white" />
    <path
        d="M201.127 16.1874C200.919 16.2542 200.807 16.3209 200.658 16.4706C200.386 16.7423 200.311 16.9794 200.311 17.5734C200.311 18.0085 200.29 18.1467 200.197 18.3424C200.118 18.5104 199.873 18.7637 199.712 18.8443C199.484 18.9594 199.375 18.9778 198.82 18.9962C198.28 19.0146 198.228 19.0238 198.012 19.1344C197.96 19.1597 197.851 19.2449 197.772 19.3255C197.583 19.5119 197.473 19.7307 197.443 19.9839C197.429 20.0875 197.424 20.9256 197.429 21.9685C197.436 23.9485 197.429 23.8449 197.578 24.112C197.655 24.2547 197.897 24.4803 198.051 24.5586C198.254 24.6599 198.403 24.6852 198.808 24.6852C199.265 24.6852 199.465 24.7129 199.647 24.7981C199.813 24.874 200.055 25.0858 200.139 25.2309C200.281 25.4657 200.293 25.5325 200.314 26.1012C200.332 26.6652 200.346 26.7504 200.467 26.9668C200.551 27.1234 200.801 27.3467 200.973 27.4273C201.211 27.5355 201.332 27.5424 202.83 27.5332C204.337 27.5263 204.3 27.5286 204.54 27.3882C204.689 27.303 204.913 27.0797 204.98 26.9484C205.085 26.7412 205.106 26.6123 205.12 26.1012C205.127 25.7719 205.143 25.5832 205.167 25.5118C205.302 25.0835 205.679 24.7612 206.106 24.706C206.192 24.6968 206.427 24.6852 206.625 24.6852C207.04 24.6852 207.222 24.6507 207.415 24.5425C207.578 24.4504 207.797 24.234 207.869 24.0936C208.005 23.8288 208 23.9002 208 21.8327C208 20.2717 207.993 19.9125 207.967 19.8251C207.851 19.4452 207.532 19.1275 207.173 19.0377C207.077 19.0123 206.882 18.9962 206.555 18.9893C206.05 18.9778 205.968 18.964 205.717 18.8374C205.581 18.7706 205.33 18.5288 205.269 18.4114C205.146 18.1766 205.132 18.0891 205.12 17.5826C205.109 17.0623 205.092 16.961 204.992 16.7607C204.859 16.4959 204.615 16.2956 204.305 16.1897C204.179 16.146 204.102 16.1436 202.713 16.146C201.381 16.146 201.243 16.1506 201.127 16.1874ZM204.295 19.0308C204.512 19.1021 204.626 19.1712 204.775 19.3255C204.922 19.4774 205.001 19.6086 205.078 19.8274C205.12 19.9471 205.122 20.0507 205.122 21.8304C205.122 23.8909 205.127 23.8035 204.98 24.0912C204.903 24.2409 204.661 24.4803 204.512 24.5563C204.26 24.6806 204.216 24.6852 202.711 24.6852C201.201 24.6852 201.176 24.6829 200.929 24.554C200.616 24.3906 200.393 24.082 200.337 23.739C200.304 23.5479 200.302 20.1221 200.335 19.9333C200.407 19.5004 200.777 19.109 201.197 19.0238C201.411 18.9801 201.423 18.9801 202.816 18.9847C204.048 18.9893 204.179 18.9939 204.295 19.0308Z"
        fill="white" />
    <defs>
        <filter id="filter0_dd_12178_1271" x="0" y="0" width="38" height="38" filterUnits="userSpaceOnUse"
            color-interpolation-filters="sRGB">
            <feFlood flood-opacity="0" result="BackgroundImageFix" />
            <feColorMatrix in="SourceAlpha" type="matrix" values="0 0 0 0 0 0 0 0 0 0 0 0 0 0 0 0 0 0 127 0"
                result="hardAlpha" />
            <feOffset dy="1" />
            <feGaussianBlur stdDeviation="1" />
            <feColorMatrix type="matrix" values="0 0 0 0 0.0627451 0 0 0 0 0.0941176 0 0 0 0 0.156863 0 0 0 0.06 0" />
            <feBlend mode="normal" in2="BackgroundImageFix" result="effect1_dropShadow_12178_1271" />
            <feColorMatrix in="SourceAlpha" type="matrix" values="0 0 0 0 0 0 0 0 0 0 0 0 0 0 0 0 0 0 127 0"
                result="hardAlpha" />
            <feOffset dy="1" />
            <feGaussianBlur stdDeviation="1.5" />
            <feColorMatrix type="matrix" values="0 0 0 0 0.0627451 0 0 0 0 0.0941176 0 0 0 0 0.156863 0 0 0 0.1 0" />
            <feBlend mode="normal" in2="effect1_dropShadow_12178_1271" result="effect2_dropShadow_12178_1271" />
            <feBlend mode="normal" in="SourceGraphic" in2="effect2_dropShadow_12178_1271" result="shape" />
        </filter>
    </defs>
</svg>