<svg width="96" height="97" viewBox="0 0 96 97" fill="none" xmlns="http://www.w3.org/2000/svg">
    <g id="Chess-Board--Streamline-Font-Awesome">
        <path id="Vector"
            d="M16.5 4.40039C9.55034 4.40039 3.90002 10.0507 3.90002 17.0004V80.0004C3.90002 86.9501 9.55034 92.6004 16.5 92.6004H79.5C86.4497 92.6004 92.1 86.9501 92.1 80.0004V17.0004C92.1 10.0507 86.4497 4.40039 79.5 4.40039H16.5ZM29.1 17.0004V29.6004H41.7V17.0004H54.3V29.6004H66.9V17.0004H79.5V29.6004H66.9V42.2004H79.5V54.8004H66.9V67.4004H79.5V80.0004H66.9V67.4004H54.3V80.0004H41.7V67.4004H29.1V80.0004H16.5V67.4004H29.1V54.8004H16.5V42.2004H29.1V29.6004H16.5V17.0004H29.1ZM41.7 42.2004H54.3V29.6004H41.7V42.2004ZM41.7 54.8004V42.2004H29.1V54.8004H41.7ZM54.3 54.8004H41.7V67.4004H54.3V54.8004ZM54.3 54.8004H66.9V42.2004H54.3V54.8004Z"
            fill="white" />
    </g>
</svg>