<svg width="32" height="32" viewBox="0 0 32 32" fill="none" xmlns="http://www.w3.org/2000/svg">
    <path
        d="M0 16C0 7.16344 7.16344 0 16 0C24.8366 0 32 7.16344 32 16C32 24.8366 24.8366 32 16 32C7.16344 32 0 24.8366 0 16Z"
        fill="#F6F6F6" />
    <path
        d="M23.5 23.5L19.875 19.875M15.1667 11C17.4679 11 19.3333 12.8655 19.3333 15.1667M21.8333 15.1667C21.8333 18.8486 18.8486 21.8333 15.1667 21.8333C11.4848 21.8333 8.5 18.8486 8.5 15.1667C8.5 11.4848 11.4848 8.5 15.1667 8.5C18.8486 8.5 21.8333 11.4848 21.8333 15.1667Z"
        stroke="#F23939" stroke-width="1.66667" stroke-linecap="round" stroke-linejoin="round" />
</svg>