<svg xmlns="http://www.w3.org/2000/svg" width="21" height="20" viewBox="0 0 21 20" fill="none">
    <path
        d="M7.99984 17.5V11.3333C7.99984 10.8666 7.99984 10.6333 8.09067 10.455C8.17056 10.2982 8.29805 10.1707 8.45485 10.0908C8.63311 10 8.86646 10 9.33317 10H11.6665C12.1332 10 12.3666 10 12.5448 10.0908C12.7016 10.1707 12.8291 10.2982 12.909 10.455C12.9998 10.6333 12.9998 10.8666 12.9998 11.3333V17.5M2.1665 7.91667L9.69984 2.26667C9.98672 2.0515 10.1302 1.94392 10.2877 1.90245C10.4268 1.86585 10.5729 1.86585 10.712 1.90245C10.8695 1.94392 11.013 2.05151 11.2998 2.26667L18.8332 7.91667M3.83317 6.66667V14.8333C3.83317 15.7668 3.83317 16.2335 4.01483 16.59C4.17462 16.9036 4.42959 17.1586 4.74319 17.3183C5.09971 17.5 5.56642 17.5 6.49984 17.5H14.4998C15.4333 17.5 15.9 17.5 16.2565 17.3183C16.5701 17.1586 16.8251 16.9036 16.9849 16.59C17.1665 16.2335 17.1665 15.7668 17.1665 14.8333V6.66667L12.0998 2.86667C11.5261 2.43634 11.2392 2.22118 10.9241 2.13824C10.646 2.06503 10.3537 2.06503 10.0756 2.13824C9.76049 2.22118 9.4736 2.43634 8.89984 2.86667L3.83317 6.66667Z"
        stroke="#344054" stroke-width="1.66667" stroke-linecap="round" stroke-linejoin="round" />
</svg>