<svg xmlns="http://www.w3.org/2000/svg" width="72" height="72" viewBox="0 0 72 72" fill="none">
    <path
        d="M0 36C0 16.1178 16.1178 0 36 0C55.8823 0 72 16.1178 72 36C72 55.8823 55.8823 72 36 72C16.1178 72 0 55.8823 0 36Z"
        fill="#F6F6F6" />
    <mask id="mask0_12010_27224" style="mask-type:alpha" maskUnits="userSpaceOnUse" x="28" y="24" width="14"
        height="25">
        <path
            d="M40.5701 46.6875L40.6086 46.887C40.623 46.9616 40.651 47.0183 40.6619 47.0396C40.6764 47.0683 40.6917 47.0936 40.7038 47.1126C40.728 47.1508 40.7565 47.1907 40.7825 47.226C40.812 47.266 40.8509 47.3171 40.8897 47.3681C40.9154 47.4017 40.941 47.4353 40.9638 47.4657C41.028 47.5511 41.0878 47.6334 41.1354 47.707C41.159 47.7434 41.177 47.7739 41.19 47.7983C41.2024 47.8216 41.2064 47.8324 41.2064 47.8324L41.208 47.837L41.208 47.837C41.2177 47.8658 41.2278 47.898 41.238 47.9326H35.4403H29.6304C29.6491 47.8638 29.6678 47.8017 29.6855 47.7524C29.7107 47.6875 29.8 47.5489 29.9256 47.3833C29.9821 47.3089 30.0362 47.2414 30.0782 47.1893C30.0828 47.1836 30.0874 47.178 30.0919 47.1724C30.107 47.1536 30.1215 47.1358 30.1324 47.122C30.1392 47.1134 30.1484 47.1017 30.157 47.0901C30.1609 47.0849 30.1689 47.0739 30.1777 47.0605C30.182 47.054 30.1902 47.0412 30.1992 47.0246C30.1994 47.0243 30.1995 47.024 30.1997 47.0237C30.2048 47.0144 30.2307 46.9673 30.2466 46.9026L30.2988 46.6892L30.1768 46.5064C29.7097 45.8061 29.3409 44.946 29.4062 43.9374L29.4063 43.9361C29.4185 43.7392 29.5087 43.4425 29.6744 43.0718C29.8349 42.7126 30.0463 42.327 30.2615 41.9658C30.4758 41.6059 30.6892 41.2778 30.8511 41.0339C30.9017 40.9576 30.9445 40.8937 30.982 40.8378C31.0064 40.8013 31.0286 40.7681 31.0493 40.7371C31.0734 40.7008 31.0955 40.6674 31.1122 40.641C31.1202 40.6284 31.1303 40.612 31.1398 40.5952C31.1443 40.5873 31.1521 40.5733 31.1602 40.5562C31.1603 40.5561 31.1604 40.556 31.1605 40.5557C31.1636 40.5493 31.1907 40.4946 31.2033 40.4224L31.3059 39.8362H30.7108H30.644C30.6369 39.8298 30.63 39.8229 30.6238 39.8158C30.6156 39.8066 30.6096 39.7982 30.6054 39.7914C30.6045 39.79 30.6038 39.7886 30.6031 39.7874C30.6119 39.7489 30.625 39.7254 30.6362 39.7101C30.6488 39.6927 30.6653 39.6775 30.6858 39.6643C30.707 39.6506 30.7295 39.641 30.748 39.6354C30.752 39.6342 30.7553 39.6334 30.7578 39.6327H31.064H31.4046L31.5293 39.3158L31.6159 39.0956L31.6417 39.0302L31.6483 38.9602L32.4267 30.8213H32.7663L32.4284 30.1075L32.3544 29.951L32.2163 29.6593L31.8937 29.665C31.8956 29.665 31.8952 29.6649 31.8926 29.6648C31.884 29.6643 31.851 29.6622 31.8035 29.6534C31.744 29.6423 31.6814 29.6241 31.6283 29.598C31.5755 29.5721 31.5477 29.5463 31.5338 29.527C31.5243 29.5138 31.5066 29.4848 31.5072 29.4135C31.5084 29.3159 31.5318 29.2698 31.5464 29.2477C31.5635 29.2217 31.5914 29.1952 31.6384 29.1683C31.6878 29.14 31.7434 29.1193 31.812 29.0963C31.8153 29.0952 31.8192 29.0939 31.8236 29.0925C31.8508 29.0835 31.8963 29.0684 31.9327 29.0535C31.954 29.0448 31.9987 29.0258 32.0463 28.9943C32.0784 28.9731 32.2085 28.8856 32.2618 28.7067L32.4533 28.0639H31.922C31.8442 27.9992 31.7314 27.8979 31.6003 27.758C31.3355 27.4754 30.9978 27.037 30.7223 26.4248L30.7218 26.4237C30.4402 25.8021 30.2834 25.1859 30.1975 24.7222C30.1828 24.6431 30.1703 24.5688 30.1596 24.4999H31.9552L31.8013 26.0912L31.7483 26.6394H32.299H34.3359H34.8861L34.8336 26.0916L34.6809 24.4999H36.1833L36.0294 26.0912L35.9764 26.6394H36.5271H38.564H39.1146L39.0616 26.0912L38.9078 24.4999H40.6949C40.6796 24.5962 40.6614 24.7018 40.64 24.814C40.5436 25.3196 40.3876 25.926 40.1504 26.4096L40.5701 46.6875ZM40.5701 46.6875L40.6816 46.5177C41.1456 45.8114 41.5463 44.9026 41.4939 43.9321L41.4939 43.932C41.4824 43.719 41.4006 43.4124 41.2573 43.0418C41.1175 42.6803 40.9338 42.2943 40.7474 41.934C40.5617 41.5748 40.3768 41.248 40.2367 41.0052C40.1933 40.93 40.1578 40.869 40.1263 40.8151C40.1044 40.7773 40.0844 40.743 40.0651 40.7097C40.0442 40.6736 40.0252 40.6403 40.0107 40.6138C40.0037 40.6012 39.9949 40.5848 39.9868 40.568C39.9828 40.56 39.9762 40.5462 39.9694 40.5294L39.9691 40.5287C39.966 40.5213 39.9445 40.4697 39.9355 40.4029L39.8592 39.8362H40.336M40.5701 46.6875L41.0996 46.7922M30.112 39.6929C30.2049 39.243 30.6174 39.1327 30.739 39.1327H31.064L31.1506 38.9126L31.9721 30.3234L31.9723 30.3233L30.112 39.6929ZM30.112 39.6929C30.0722 39.8696 30.145 40.0267 30.2443 40.1415L30.112 39.6929ZM31.7295 28.5481L31.7519 28.5548L31.7295 28.5481ZM31.7295 28.5481C31.6807 28.5127 31.5553 28.4171 31.3895 28.2566M31.7295 28.5481L31.3895 28.2566M31.3895 28.2566C31.4356 28.1993 31.4815 28.1689 31.4938 28.1608L31.4945 28.1603C31.5138 28.1476 31.5294 28.1395 31.5375 28.1355C31.5462 28.1312 31.5522 28.1287 31.554 28.128C31.5567 28.1269 31.5545 28.1279 31.5419 28.1322L31.4949 28.1479C31.4552 28.1612 31.4004 28.1797 31.3376 28.2055M31.3895 28.2566L31.3376 28.2055M31.3376 28.2055C31.0288 27.8964 30.6039 27.3803 30.2663 26.63L31.3376 28.2055ZM41.0996 46.7922C41.592 46.0424 42.0537 45.0264 41.9931 43.9051C41.9464 43.0361 41.116 41.5299 40.6854 40.7824C40.62 40.809 40.5426 40.8312 40.4591 40.8355L40.4461 40.8362H40.4331H40.431V40.3362L40.4331 40.3359L40.431 40.296L40.4071 39.8369C40.3738 39.8386 40.3493 39.844 40.3363 39.8473C40.3224 39.8509 40.3131 39.8543 40.3089 39.856C40.3053 39.8574 40.3035 39.8583 40.3035 39.8583C40.3035 39.8583 40.3057 39.8572 40.31 39.8546C40.3167 39.8505 40.3257 39.8444 40.336 39.8362M41.0996 46.7922C41.1064 46.8275 41.1847 46.9302 41.2824 47.0585C41.4321 47.2548 41.6274 47.5109 41.6815 47.6766C41.7069 47.7514 41.7328 47.8413 41.757 47.9326L41.0996 46.7922ZM40.336 39.8362C40.337 39.8353 40.3381 39.8345 40.3392 39.8336C40.3507 39.8242 40.3619 39.8137 40.3719 39.8028C40.3819 39.7918 40.3895 39.7819 40.3949 39.7736C40.3961 39.7717 40.3971 39.77 40.398 39.7685C40.3903 39.7392 40.3798 39.7219 40.371 39.7106C40.3597 39.696 40.3435 39.6816 40.3206 39.668C40.297 39.6541 40.2708 39.6439 40.2474 39.6376C40.2366 39.6347 40.2292 39.6333 40.2255 39.6327H40.2253H40.225H40.2247H40.2244H40.2241H40.2238H40.2235H40.2232H40.2229H40.2225H40.2222H40.2219H40.2216H40.2212H40.2209H40.2205H40.2202H40.2199H40.2195H40.2191H40.2188H40.2184H40.2181H40.2177H40.2173H40.217H40.2166H40.2162H40.2158H40.2154H40.2151H40.2147H40.2143H40.2139H40.2135H40.2131H40.2127H40.2123H40.2118H40.2114H40.211H40.2106H40.2102H40.2097H40.2093H40.2089H40.2084H40.208H40.2076H40.2071H40.2067H40.2062H40.2058H40.2053H40.2049H40.2044H40.2039H40.2035H40.203H40.2025H40.202H40.2016H40.2011H40.2006H40.2001H40.1996H40.1991H40.1986H40.1981H40.1976H40.1971H40.1966H40.1961H40.1956H40.195H40.1945H40.194H40.1935H40.1929H40.1924H40.1919H40.1913H40.1908H40.1902H40.1897H40.1891H40.1886H40.188H40.1875H40.1869H40.1863H40.1858H40.1852H40.1846H40.184H40.1835H40.1829H40.1823H40.1817H40.1811H40.1805H40.1799H40.1793H40.1787H40.1781H40.1775H40.1769H40.1763H40.1757H40.175H40.1744H40.1738H40.1732H40.1725H40.1719H40.1713H40.1706H40.17H40.1693H40.1687H40.168H40.1674H40.1667H40.166H40.1654H40.1647H40.1641H40.1634H40.1627H40.162H40.1613H40.1607H40.16H40.1593H40.1586H40.1579H40.1572H40.1565H40.1558H40.1551H40.1544H40.1537H40.153H40.1522H40.1515H40.1508H40.1501H40.1494H40.1486H40.1479H40.1472H40.1464H40.1457H40.1449H40.1442H40.1434H40.1427H40.1419H40.1412H40.1404H40.1396H40.1389H40.1381H40.1373H40.1366H40.1358H40.135H40.1342H40.1334H40.1326H40.1318H40.1311H40.1303H40.1295H40.1287H40.1278H40.127H40.1262H40.1254H40.1246H40.1238H40.123H40.1221H40.1213H40.1205H40.1196H40.1188H40.118H40.1171H40.1163H40.1154H40.1146H40.1137H40.1129H40.112H40.1112H40.1103H40.1095H40.1086H40.1077H40.1068H40.106H40.1051H40.1042H40.1033H40.1024H40.1016H40.1007H40.0998H40.0989H40.098H40.0971H40.0962H40.0953H40.0944H40.0934H40.0925H40.0916H40.0907H40.0898H40.0888H40.0879H40.087H40.0861H40.0851H40.0842H40.0832H40.0823H40.0813H40.0804H40.0794H40.0785H40.0775H40.0766H40.0756H40.0747H40.0737H40.0727H40.0717H40.0708H40.0698H40.0688H40.0678H40.0668H40.0659H40.0649H40.0639H40.0629H40.0619H40.0609H40.0599H40.0589H40.0579H40.0569H40.0558H40.0548H40.0538H40.0528H40.0518H40.0507H40.0497H40.0487H40.0476H40.0466H40.0456H40.0445H40.0435H40.0424H40.0414H40.0403H40.0393H40.0382H40.0372H40.0361H40.0351H40.034H40.0329H40.0318H40.0308H40.0297H40.0286H40.0275H40.0265H40.0254H40.0243H40.0232H40.0221H40.021H40.0199H40.0188H40.0177H40.0166H40.0155H40.0144H40.0133H40.0121H40.011H40.0099H40.0088H40.0077H40.0065H40.0054H40.0043H40.0031H40.002H40.0009H39.9997H39.9986H39.9974H39.9963H39.9951H39.994H39.9928H39.9917H39.9905H39.9893H39.9882H39.987H39.9858H39.9846H39.9835H39.9823H39.9811H39.9799H39.9787H39.9776H39.9764H39.9752H39.974H39.9728H39.9716H39.9704H39.9692H39.968H39.9668H39.9655H39.9643H39.9631H39.9619H39.9607H39.9594H39.9582H39.957H39.9558H39.9545H39.9533H39.9521H39.9508H39.9496H39.9483H39.9471H39.9458H39.9446H39.9433H39.9421H39.9408H39.9395H39.9383H39.937H39.9358H39.9345H39.9332H39.9319H39.9307H39.9294H39.9281H39.9268H39.9255H39.9242H39.9229H39.9217H39.9204H39.9191H39.9178H39.9165H39.9152H39.9138H39.9125H39.9112H39.9099H39.9086H39.9073H39.906H39.9046H39.9033H39.902H39.9006H39.8993H39.898H39.8966H39.8953H39.894H39.8926H39.8913H39.8899H39.8886H39.8872H39.8859H39.8845H39.8832H39.8818H39.8804H39.8791H39.8777H39.8763H39.875H39.8736H39.8722H39.8708H39.8695H39.8681H39.8667H39.8653H39.8639H39.8625H39.8611H39.8597H39.8583H39.8569H39.8555H39.8541H39.8527H39.8513H39.8499H39.8485H39.8471H39.8456H39.8442H39.8428H39.8414H39.8399H39.8385H39.8371H39.8357H39.8342H39.8328H39.8313H39.8299H39.8285H39.827H39.8256H39.8241H39.8227H39.8212H39.8198H39.8183H39.8168H39.8154H39.8139H39.8124H39.811H39.8095H39.808H39.8065H39.8051H39.8036H39.3482L39.3058 39.1793L38.4648 30.1872L38.4137 29.6406H38.9626H39.1665C39.1728 29.6378 39.1799 29.6344 39.1878 29.6305C39.2368 29.6061 39.2953 29.5704 39.347 29.5287C39.3858 29.4974 39.4109 29.4708 39.4257 29.4518C39.3992 29.3934 39.3255 29.301 39.175 29.1948C39.0974 29.14 39.02 29.0961 38.9613 29.0659C38.9324 29.051 38.9092 29.04 38.8942 29.0331L38.8787 29.0262L38.8781 29.0259L38.8779 29.0258L38.8777 29.0257L38.8773 29.0256L38.8767 29.0253L38.8764 29.0252L38.1219 28.7127L38.7453 28.1832L38.7454 28.1832L38.7455 28.183L38.7456 28.183L38.7457 28.1828L38.7464 28.1823L38.7525 28.177L38.7801 28.1526C38.8051 28.1303 38.8425 28.0963 38.8895 28.0518C38.9837 27.9625 39.1158 27.8318 39.2638 27.669C39.5631 27.3395 39.9118 26.8955 40.1503 26.4098L40.336 39.8362ZM31.9765 30.3213L31.9758 30.3217L31.757 28.5563L31.7826 28.5639V29.0639H31.7519H31.5995L31.473 28.9789L31.7305 28.5958C31.473 28.9789 31.4728 28.9788 31.4727 28.9787L31.4724 28.9785L31.4717 28.978L31.47 28.9769L31.4657 28.9739L31.4533 28.9653C31.4434 28.9583 31.4303 28.9489 31.4143 28.9369C31.3822 28.9131 31.3384 28.8792 31.2851 28.8349C31.2791 28.8299 31.2729 28.8248 31.2667 28.8195C31.1259 28.9368 31.0105 29.118 31.0072 29.4085C31.0036 29.8006 31.2538 29.992 31.4927 30.0837L31.5178 29.8213H31.8964H31.9723H31.9765V30.1299V30.3213ZM40.4331 40.3359L40.455 40.333C40.6025 40.2997 40.9672 40.0221 40.8906 39.6799C40.7972 39.2296 40.3595 39.1327 40.2371 39.1327L40.4331 40.3359Z"
            fill="#DC3434" stroke="white" />
    </mask>
    <g mask="url(#mask0_12010_27224)">
        <mask id="path-3-inside-1_12010_27224" fill="white">
            <rect x="24.7845" y="18.0107" width="21.2967" height="34.1232" rx="1" />
        </mask>
        <rect x="24.7845" y="18.0107" width="21.2967" height="34.1232" rx="1" fill="#D9D9D9" stroke="#F23939"
            stroke-width="21.2967" mask="url(#path-3-inside-1_12010_27224)" />
    </g>
    <mask id="mask1_12010_27224" style="mask-type:alpha" maskUnits="userSpaceOnUse" x="17" y="32" width="9" height="17">
        <path
            d="M24.3342 47.2707L24.3727 47.4701C24.3867 47.5427 24.4137 47.5968 24.4229 47.6151C24.4359 47.6406 24.449 47.6623 24.4585 47.6772C24.4775 47.7071 24.4988 47.7367 24.5162 47.7603C24.5357 47.7868 24.563 47.8226 24.589 47.8568C24.6053 47.8782 24.621 47.8989 24.6341 47.9163C24.6383 47.9218 24.6423 47.9272 24.6464 47.9326H21.2162H17.7528C17.7688 47.9101 17.7859 47.887 17.8035 47.8638C17.8382 47.818 17.8717 47.7761 17.8986 47.7429C17.9013 47.7395 17.9041 47.736 17.9069 47.7326C17.9168 47.7204 17.9268 47.7079 17.9344 47.6984C17.939 47.6926 17.9464 47.6832 17.9538 47.6732C17.9571 47.6687 17.9646 47.6585 17.9731 47.6455C17.9772 47.6393 17.9853 47.6267 17.9942 47.6103C17.9943 47.6101 17.9945 47.6098 17.9947 47.6094C17.9997 47.6003 18.0256 47.5533 18.0414 47.4887L18.0936 47.2753L17.9717 47.0925C17.6833 46.6602 17.4658 46.1445 17.5045 45.5469L17.5046 45.5456C17.5104 45.4515 17.5576 45.2842 17.6622 45.05C17.7617 44.8273 17.8942 44.5854 18.0311 44.3556C18.1671 44.1272 18.3028 43.9184 18.4064 43.7623C18.4392 43.7129 18.466 43.673 18.4897 43.6375C18.5055 43.614 18.52 43.5923 18.5341 43.5712C18.5496 43.5478 18.5649 43.5248 18.5769 43.5058C18.5825 43.4969 18.5908 43.4835 18.5991 43.469C18.6029 43.4621 18.6102 43.4491 18.618 43.4328C18.618 43.4327 18.6181 43.4326 18.6182 43.4324C18.6208 43.4271 18.6478 43.3727 18.6604 43.3005L18.7238 42.9387H18.7361L18.8609 42.6218L18.9167 42.4799L18.9424 42.4144L18.9491 42.3444L19.4354 37.2596H19.7735L19.4356 36.5458L19.3879 36.4449L19.2499 36.1532L18.936 36.1587C18.9355 36.1587 18.935 36.1587 18.9344 36.1586C18.9278 36.158 18.9173 36.1567 18.9047 36.1544C18.9015 36.1538 18.8982 36.1531 18.8949 36.1524C18.9056 36.1484 18.9184 36.1439 18.934 36.1387C18.9354 36.1382 18.9372 36.1376 18.9394 36.1369C18.9555 36.1316 18.9927 36.1193 19.0228 36.107C19.0401 36.0999 19.0816 36.0825 19.1267 36.0526C19.1565 36.0329 19.2851 35.947 19.3379 35.7697L19.5295 35.127H19.0147C18.9747 35.0912 18.9256 35.0443 18.8709 34.986C18.7113 34.8157 18.5056 34.5492 18.3374 34.1753L18.3369 34.1742C18.1761 33.8192 18.0806 33.4655 18.0247 33.1854H18.7742L18.6939 34.0162L18.6409 34.5643H19.1916H20.5044H21.0546L21.0021 34.0166L20.9224 33.1854H21.4993L21.4189 34.0162L21.3659 34.5643H21.9166H23.2294H23.7801L23.7271 34.0162L23.6468 33.1854H24.3912C24.3301 33.5035 24.2336 33.8721 24.0923 34.1601L24.3342 47.2707ZM24.3342 47.2707L24.4457 47.1009C24.7346 46.661 24.9712 46.1135 24.9403 45.5415L24.9403 45.5414C24.9344 45.4326 24.89 45.2561 24.7995 45.0223C24.7126 44.7976 24.5974 44.555 24.4788 44.3258C24.3609 44.0977 24.2433 43.8898 24.1536 43.7344C24.1252 43.6853 24.1032 43.6475 24.0835 43.6136C24.0694 43.5894 24.0564 43.5671 24.0431 43.5441C24.0296 43.5208 24.0164 43.4977 24.0059 43.4787C24.001 43.4697 23.9938 43.4563 23.9867 43.4418C23.9833 43.4349 23.9772 43.422 23.9706 43.4059C23.9706 43.4058 23.9705 43.4056 23.9704 43.4053C23.9676 43.3988 23.9462 43.3476 23.9372 43.2811L23.8911 42.9387M24.3342 47.2707L25.2343 47.9326C25.1941 47.8258 25.0742 47.6686 24.9815 47.5469C24.9185 47.4643 24.868 47.3981 24.8637 47.3753C25.181 46.8921 25.4786 46.2373 25.4396 45.5146C25.4124 45.0096 24.9746 44.1707 24.6853 43.6574C24.6253 43.684 24.5477 43.7091 24.4601 43.7137L24.4471 43.7144H24.4341H24.4327V43.2144L24.4341 43.2142L24.4327 43.1885L24.4157 42.8615L24.4154 42.8564L24.4081 42.715C24.3631 42.7174 24.3284 42.7262 24.3078 42.7327C24.2984 42.7358 24.2919 42.7383 24.2887 42.7396C24.2729 42.7458 24.2643 42.7509 24.2623 42.7521C24.2595 42.7559 24.2537 42.7649 24.248 42.7802C24.2382 42.8064 24.2309 42.847 24.2394 42.8929C24.2395 42.8932 24.2396 42.8936 24.2396 42.894L24.2402 42.8957C24.2406 42.897 24.2412 42.8986 24.242 42.9004C24.2423 42.9011 24.2426 42.9019 24.2429 42.9027C24.2456 42.9084 24.2492 42.9144 24.2535 42.92C24.2609 42.9294 24.2675 42.9344 24.2702 42.9361C24.2709 42.9363 24.2718 42.9364 24.2729 42.9366C24.2756 42.937 24.2877 42.9387 24.3078 42.9387H24.3077H24.3076H24.3076H24.3075H24.3074H24.3073H24.3072H24.3071H24.307H24.3069H24.3068H24.3067H24.3066H24.3065H24.3064H24.3063H24.3062H24.3061H24.306H24.3059H24.3058H24.3056H24.3055H24.3054H24.3053H24.3052H24.305H24.3049H24.3048H24.3046H24.3045H24.3043H24.3042H24.3041H24.3039H24.3038H24.3036H24.3035H24.3033H24.3032H24.303H24.3028H24.3027H24.3025H24.3023H24.3022H24.302H24.3018H24.3017H24.3015H24.3013H24.3011H24.3009H24.3008H24.3006H24.3004H24.3002H24.3H24.2998H24.2996H24.2994H24.2992H24.299H24.2988H24.2986H24.2984H24.2982H24.298H24.2978H24.2975H24.2973H24.2971H24.2969H24.2967H24.2964H24.2962H24.296H24.2957H24.2955H24.2953H24.295H24.2948H24.2946H24.2943H24.2941H24.2938H24.2936H24.2933H24.2931H24.2928H24.2926H24.2923H24.292H24.2918H24.2915H24.2912H24.291H24.2907H24.2904H24.2901H24.2899H24.2896H24.2893H24.289H24.2887H24.2885H24.2882H24.2879H24.2876H24.2873H24.287H24.2867H24.2864H24.2861H24.2858H24.2855H24.2852H24.2849H24.2846H24.2842H24.2839H24.2836H24.2833H24.283H24.2826H24.2823H24.282H24.2817H24.2813H24.281H24.2807H24.2803H24.28H24.2797H24.2793H24.279H24.2786H24.2783H24.2779H24.2776H24.2772H24.2769H24.2765H24.2761H24.2758H24.2754H24.2751H24.2747H24.2743H24.274H24.2736H24.2732H24.2728H24.2725H24.2721H24.2717H24.2713H24.2709H24.2705H24.2701H24.2698H24.2694H24.269H24.2686H24.2682H24.2678H24.2674H24.267H24.2666H24.2662H24.2657H24.2653H24.2649H24.2645H24.2641H24.2637H24.2633H24.2628H24.2624H24.262H24.2616H24.2611H24.2607H24.2603H24.2598H24.2594H24.259H24.2585H24.2581H24.2576H24.2572H24.2567H24.2563H24.2558H24.2554H24.2549H24.2545H24.254H24.2535H24.2531H24.2526H24.2522H24.2517H24.2512H24.2508H24.2503H24.2498H24.2493H24.2488H24.2484H24.2479H24.2474H24.2469H24.2464H24.2459H24.2455H24.245H24.2445H24.244H24.2435H24.243H24.2425H24.242H24.2415H24.241H24.2404H24.2399H24.2394H24.2389H24.2384H24.2379H24.2374H24.2368H24.2363H24.2358H24.2353H24.2347H24.2342H24.2337H24.2331H24.2326H24.2321H24.2315H24.231H24.2305H24.2299H24.2294H24.2288H24.2283H24.2277H24.2272H24.2266H24.2261H24.2255H24.2249H24.2244H24.2238H24.2233H24.2227H24.2221H24.2216H24.221H24.2204H24.2198H24.2193H24.2187H24.2181H24.2175H24.2169H24.2164H24.2158H24.2152H24.2146H24.214H24.2134H24.2128H24.2122H24.2116H24.211H24.2104H24.2098H24.2092H24.2086H24.208H24.2074H24.2068H24.2062H24.2056H24.2049H24.2043H24.2037H24.2031H24.2025H24.2018H24.2012H24.2006H24.1999H24.1993H24.1987H24.198H24.1974H24.1968H24.1961H24.1955H24.1948H24.1942H24.1936H24.1929H24.1923H24.1916H24.191H24.1903H24.1896H24.189H24.1883H24.1877H24.187H24.1863H24.1857H24.185H24.1843H24.1837H24.183H24.1823H24.1816H24.181H24.1803H24.1796H24.1789H24.1782H24.1776H24.1769H24.1762H24.1755H24.1748H24.1741H24.1734H24.1727H24.172H24.1713H24.1706H24.1699H24.1692H24.1685H24.1678H24.1671H24.1664H24.1657H24.1649H24.1642H24.1635H24.1628H24.1621H24.1613H24.1606H24.1599H24.1592H24.1584H24.1577H24.157H24.1562H24.1555H24.1548H24.154H24.1533H24.1526H24.1518H24.1511H24.1503H24.1496H24.1488H24.1481H24.1473H24.1466H24.1458H24.1451H24.1443H24.1435H24.1428H24.142H24.1413H24.1405H24.1397H24.139H24.1382H24.1374H24.1366H24.1359H24.1351H24.1343H24.1335H24.1328H24.132H24.1312H24.1304H24.1296H24.1288H24.128H24.1272H24.1264H24.1257H24.1249H24.1241H24.1233H24.1225H24.1217H24.1209H24.12H24.1192H24.1184H24.1176H24.1168H24.116H24.1152H24.1144H24.1136H24.1127H24.1119H24.1111H24.1103H24.1094H24.1086H24.1078H24.107H24.1061H24.1053H24.1045H24.1036H24.1028H24.102H24.1011H24.1003H24.0994H24.0986H24.0977H24.0969H24.096H24.0952H24.0943H24.0935H24.0926H24.0918H24.0909H24.0901H24.0892H24.0883H24.0875H24.0866H24.0858H24.0849H24.084H24.0832H24.0823H24.0814H24.0805H24.0797H24.0788H24.0779H24.077H24.0761H24.0753H24.0744H24.0735H24.0726H24.0717H24.0708H24.0699H24.069H24.0681H24.0672H24.0664H24.0655H24.0646H24.0637H24.0627H24.0618H24.0609H24.06H24.0591H24.0582H24.0573H24.0564H24.0555H24.0546H24.0536H24.0527H24.0518H24.0509H24.05H24.049H24.0481H24.0472H24.0463H24.0453H24.0444H24.0435H24.0425H24.0416H24.0407H24.0397H24.0388H24.0378H24.0369H24.036H24.035H24.0341H24.0331H24.0322H24.0312H24.0303H24.0293H24.0284H23.8911M23.8911 42.9387H23.573L23.5305 42.4853L22.9885 36.6897L22.9374 36.1431H23.4661M23.8911 42.9387L23.4661 36.1431M23.4661 36.1431C23.4436 36.1296 23.4223 36.1179 23.4041 36.1085C23.3882 36.1003 23.3757 36.0944 23.3683 36.091L23.3616 36.088L23.3614 36.0879C23.361 36.0877 23.361 36.0877 23.3614 36.0879L22.6076 35.7757L23.2309 35.2464L23.2311 35.2462L23.2311 35.2462L23.2313 35.2461L23.2314 35.246L23.2315 35.2459L23.2342 35.2435L23.2503 35.2293C23.2652 35.216 23.288 35.1952 23.317 35.1678C23.3751 35.1128 23.457 35.0317 23.5489 34.9306C23.736 34.7247 23.9488 34.4525 24.0922 34.1603L23.4661 36.1431ZM18.8581 36.1758C18.8578 36.1749 18.8575 36.1738 18.8572 36.1725C18.8568 36.1716 18.8565 36.1706 18.8562 36.1696C18.8555 36.17 18.8548 36.1703 18.8541 36.1707L18.8581 36.1758ZM24.4341 43.2142L24.4482 43.2123C24.5433 43.1908 24.7783 43.0119 24.729 42.7914C24.6688 42.5011 24.3867 42.4387 24.3078 42.4387L24.4341 43.2142ZM24.8517 48.4326C24.8473 48.4137 24.8425 48.3931 24.8374 48.3713C24.8146 48.2757 24.7885 48.1757 24.7667 48.1103L24.8517 48.4326Z"
            fill="#DC3434" stroke="white" />
    </mask>
    <g mask="url(#mask1_12010_27224)">
        <mask id="path-5-inside-2_12010_27224" fill="white">
            <rect x="14.3484" y="28.8252" width="13.7261" height="21.9929" rx="1" />
        </mask>
        <rect x="14.3484" y="28.8252" width="13.7261" height="21.9929" rx="1" fill="#D9D9D9" stroke="#F23939"
            stroke-width="13.7261" mask="url(#path-5-inside-2_12010_27224)" />
    </g>
    <mask id="mask2_12010_27224" style="mask-type:alpha" maskUnits="userSpaceOnUse" x="45" y="32" width="9" height="17">
        <path
            d="M52.8912 47.2707L52.9297 47.4701C52.9437 47.5427 52.9707 47.5968 52.98 47.6151C52.9929 47.6406 53.0061 47.6623 53.0155 47.6772C53.0345 47.7071 53.0558 47.7367 53.0732 47.7603C53.0927 47.7868 53.12 47.8226 53.146 47.8568C53.1623 47.8782 53.178 47.8989 53.1911 47.9163C53.1953 47.9218 53.1993 47.9272 53.2034 47.9326H49.7732H46.3098C46.3258 47.9101 46.3429 47.887 46.3605 47.8638C46.3952 47.818 46.4287 47.7761 46.4556 47.7429C46.4583 47.7395 46.4611 47.736 46.4639 47.7326C46.4738 47.7204 46.4838 47.7079 46.4914 47.6984C46.496 47.6926 46.5034 47.6832 46.5108 47.6732C46.5141 47.6687 46.5216 47.6585 46.5301 47.6455C46.5342 47.6393 46.5423 47.6267 46.5512 47.6103C46.5514 47.6101 46.5515 47.6098 46.5517 47.6094C46.5567 47.6003 46.5826 47.5533 46.5984 47.4887L46.6506 47.2753L46.5287 47.0925C46.2403 46.6602 46.0228 46.1445 46.0615 45.5469L46.0616 45.5456C46.0674 45.4515 46.1146 45.2842 46.2192 45.05C46.3187 44.8273 46.4512 44.5854 46.5881 44.3556C46.7241 44.1272 46.8598 43.9184 46.9634 43.7623C46.9962 43.7129 47.023 43.673 47.0467 43.6375C47.0625 43.614 47.077 43.5923 47.0911 43.5712C47.1066 43.5478 47.1219 43.5248 47.1339 43.5058C47.1395 43.4969 47.1478 43.4835 47.1561 43.469C47.16 43.4621 47.1672 43.4491 47.175 43.4328C47.175 43.4327 47.1751 43.4326 47.1752 43.4324C47.1778 43.4271 47.2048 43.3727 47.2174 43.3005L47.2808 42.9387H47.2932L47.4179 42.6218L47.4737 42.4799L47.4994 42.4144L47.5061 42.3444L47.9924 37.2596H48.3305L47.9926 36.5458L47.9449 36.4449L47.8069 36.1532L47.493 36.1587C47.4925 36.1587 47.492 36.1587 47.4914 36.1586C47.4848 36.158 47.4743 36.1567 47.4617 36.1544C47.4585 36.1538 47.4552 36.1531 47.4519 36.1524C47.4626 36.1484 47.4754 36.1439 47.491 36.1387C47.4924 36.1382 47.4942 36.1376 47.4964 36.1369C47.5125 36.1316 47.5497 36.1193 47.5798 36.107C47.5971 36.0999 47.6386 36.0825 47.6837 36.0526C47.7135 36.0329 47.8421 35.947 47.8949 35.7697L48.0865 35.127H47.5717C47.5317 35.0912 47.4826 35.0443 47.4279 34.986C47.2683 34.8157 47.0627 34.5492 46.8944 34.1753L46.8939 34.1742C46.7331 33.8192 46.6376 33.4655 46.5817 33.1854H47.3312L47.2509 34.0162L47.1979 34.5643H47.7486H49.0614H49.6116L49.5591 34.0166L49.4794 33.1854H50.0563L49.9759 34.0162L49.9229 34.5643H50.4736H51.7864H52.3371L52.2841 34.0162L52.2038 33.1854H52.9482C52.8871 33.5035 52.7906 33.8721 52.6493 34.1601L52.8912 47.2707ZM52.8912 47.2707L53.0027 47.1009C53.2916 46.661 53.5282 46.1135 53.4973 45.5415L53.4973 45.5414C53.4914 45.4326 53.447 45.2561 53.3565 45.0223C53.2696 44.7976 53.1544 44.555 53.0358 44.3258C52.9179 44.0977 52.8003 43.8898 52.7106 43.7344C52.6823 43.6853 52.6602 43.6475 52.6405 43.6136C52.6264 43.5894 52.6134 43.5671 52.6001 43.5441C52.5866 43.5208 52.5734 43.4977 52.5629 43.4787C52.558 43.4697 52.5508 43.4563 52.5437 43.4418C52.5404 43.4349 52.5342 43.422 52.5276 43.4059C52.5276 43.4058 52.5275 43.4056 52.5274 43.4053C52.5246 43.3988 52.5032 43.3476 52.4942 43.2811L52.4481 42.9387M52.8912 47.2707L53.7913 47.9326C53.7511 47.8258 53.6312 47.6686 53.5385 47.5469C53.4755 47.4643 53.4251 47.3981 53.4207 47.3753C53.738 46.8921 54.0356 46.2373 53.9966 45.5146C53.9694 45.0096 53.5316 44.1707 53.2423 43.6574C53.1823 43.684 53.1047 43.7091 53.0171 43.7137L53.0041 43.7144H52.9911H52.9897V43.2144L52.9911 43.2142L52.9897 43.1885L52.9727 42.8615L52.9724 42.8564L52.9651 42.715C52.9201 42.7174 52.8854 42.7262 52.8648 42.7327C52.8554 42.7358 52.8489 42.7383 52.8457 42.7396C52.8299 42.7458 52.8213 42.7509 52.8193 42.7521C52.8166 42.7559 52.8107 42.7649 52.805 42.7802C52.7953 42.8064 52.7879 42.847 52.7964 42.8929C52.7965 42.8932 52.7966 42.8936 52.7967 42.894L52.7972 42.8957C52.7976 42.897 52.7982 42.8986 52.799 42.9004C52.7993 42.9011 52.7996 42.9019 52.7999 42.9027C52.8026 42.9084 52.8062 42.9144 52.8105 42.92C52.8179 42.9294 52.8245 42.9344 52.8272 42.9361C52.8279 42.9363 52.8288 42.9364 52.8299 42.9366C52.8326 42.937 52.8447 42.9387 52.8648 42.9387H52.8647H52.8646H52.8646H52.8645H52.8644H52.8643H52.8642H52.8641H52.864H52.8639H52.8639H52.8638H52.8637H52.8636H52.8634H52.8633H52.8632H52.8631H52.863H52.8629H52.8628H52.8627H52.8625H52.8624H52.8623H52.8622H52.862H52.8619H52.8618H52.8616H52.8615H52.8614H52.8612H52.8611H52.8609H52.8608H52.8606H52.8605H52.8603H52.8602H52.86H52.8598H52.8597H52.8595H52.8594H52.8592H52.859H52.8588H52.8587H52.8585H52.8583H52.8581H52.858H52.8578H52.8576H52.8574H52.8572H52.857H52.8568H52.8566H52.8564H52.8562H52.856H52.8558H52.8556H52.8554H52.8552H52.855H52.8548H52.8546H52.8543H52.8541H52.8539H52.8537H52.8534H52.8532H52.853H52.8528H52.8525H52.8523H52.852H52.8518H52.8516H52.8513H52.8511H52.8508H52.8506H52.8503H52.8501H52.8498H52.8496H52.8493H52.849H52.8488H52.8485H52.8482H52.848H52.8477H52.8474H52.8472H52.8469H52.8466H52.8463H52.846H52.8457H52.8455H52.8452H52.8449H52.8446H52.8443H52.844H52.8437H52.8434H52.8431H52.8428H52.8425H52.8422H52.8419H52.8416H52.8412H52.8409H52.8406H52.8403H52.84H52.8397H52.8393H52.839H52.8387H52.8383H52.838H52.8377H52.8373H52.837H52.8367H52.8363H52.836H52.8356H52.8353H52.8349H52.8346H52.8342H52.8339H52.8335H52.8332H52.8328H52.8324H52.8321H52.8317H52.8313H52.831H52.8306H52.8302H52.8298H52.8295H52.8291H52.8287H52.8283H52.8279H52.8275H52.8272H52.8268H52.8264H52.826H52.8256H52.8252H52.8248H52.8244H52.824H52.8236H52.8232H52.8228H52.8223H52.8219H52.8215H52.8211H52.8207H52.8203H52.8198H52.8194H52.819H52.8186H52.8181H52.8177H52.8173H52.8168H52.8164H52.816H52.8155H52.8151H52.8146H52.8142H52.8137H52.8133H52.8128H52.8124H52.8119H52.8115H52.811H52.8106H52.8101H52.8096H52.8092H52.8087H52.8082H52.8078H52.8073H52.8068H52.8063H52.8059H52.8054H52.8049H52.8044H52.8039H52.8034H52.8029H52.8025H52.802H52.8015H52.801H52.8005H52.8H52.7995H52.799H52.7985H52.798H52.7975H52.7969H52.7964H52.7959H52.7954H52.7949H52.7944H52.7938H52.7933H52.7928H52.7923H52.7917H52.7912H52.7907H52.7902H52.7896H52.7891H52.7885H52.788H52.7875H52.7869H52.7864H52.7858H52.7853H52.7847H52.7842H52.7836H52.7831H52.7825H52.782H52.7814H52.7808H52.7803H52.7797H52.7791H52.7786H52.778H52.7774H52.7768H52.7763H52.7757H52.7751H52.7745H52.774H52.7734H52.7728H52.7722H52.7716H52.771H52.7704H52.7698H52.7692H52.7686H52.768H52.7674H52.7668H52.7662H52.7656H52.765H52.7644H52.7638H52.7632H52.7626H52.7619H52.7613H52.7607H52.7601H52.7595H52.7588H52.7582H52.7576H52.757H52.7563H52.7557H52.7551H52.7544H52.7538H52.7531H52.7525H52.7519H52.7512H52.7506H52.7499H52.7493H52.7486H52.748H52.7473H52.7466H52.746H52.7453H52.7447H52.744H52.7433H52.7427H52.742H52.7413H52.7407H52.74H52.7393H52.7386H52.738H52.7373H52.7366H52.7359H52.7352H52.7346H52.7339H52.7332H52.7325H52.7318H52.7311H52.7304H52.7297H52.729H52.7283H52.7276H52.7269H52.7262H52.7255H52.7248H52.7241H52.7234H52.7227H52.7219H52.7212H52.7205H52.7198H52.7191H52.7184H52.7176H52.7169H52.7162H52.7154H52.7147H52.714H52.7133H52.7125H52.7118H52.711H52.7103H52.7096H52.7088H52.7081H52.7073H52.7066H52.7058H52.7051H52.7043H52.7036H52.7028H52.7021H52.7013H52.7006H52.6998H52.699H52.6983H52.6975H52.6967H52.696H52.6952H52.6944H52.6936H52.6929H52.6921H52.6913H52.6905H52.6898H52.689H52.6882H52.6874H52.6866H52.6858H52.685H52.6842H52.6835H52.6827H52.6819H52.6811H52.6803H52.6795H52.6787H52.6779H52.6771H52.6762H52.6754H52.6746H52.6738H52.673H52.6722H52.6714H52.6706H52.6697H52.6689H52.6681H52.6673H52.6665H52.6656H52.6648H52.664H52.6631H52.6623H52.6615H52.6606H52.6598H52.659H52.6581H52.6573H52.6564H52.6556H52.6548H52.6539H52.6531H52.6522H52.6514H52.6505H52.6496H52.6488H52.6479H52.6471H52.6462H52.6454H52.6445H52.6436H52.6428H52.6419H52.641H52.6402H52.6393H52.6384H52.6375H52.6367H52.6358H52.6349H52.634H52.6331H52.6323H52.6314H52.6305H52.6296H52.6287H52.6278H52.6269H52.626H52.6251H52.6243H52.6234H52.6225H52.6216H52.6207H52.6198H52.6189H52.6179H52.617H52.6161H52.6152H52.6143H52.6134H52.6125H52.6116H52.6107H52.6097H52.6088H52.6079H52.607H52.606H52.6051H52.6042H52.6033H52.6023H52.6014H52.6005H52.5995H52.5986H52.5977H52.5967H52.5958H52.5949H52.5939H52.593H52.592H52.5911H52.5901H52.5892H52.5882H52.5873H52.5863H52.5854H52.4481M52.4481 42.9387H52.13L52.0876 42.4853L51.5455 36.6897L51.4944 36.1431H52.0231M52.4481 42.9387L52.0231 36.1431M52.0231 36.1431C52.0007 36.1296 51.9794 36.1179 51.9611 36.1085C51.9452 36.1003 51.9327 36.0944 51.9253 36.091L51.9186 36.088L51.9184 36.0879C51.918 36.0877 51.918 36.0877 51.9184 36.0879L51.1646 35.7757L51.7879 35.2464L51.7881 35.2462L51.7881 35.2462L51.7883 35.2461L51.7884 35.246L51.7885 35.2459L51.7912 35.2435L51.8073 35.2293C51.8222 35.216 51.8451 35.1952 51.874 35.1678C51.9321 35.1128 52.0141 35.0317 52.1059 34.9306C52.293 34.7247 52.5058 34.4525 52.6493 34.1603L52.0231 36.1431ZM47.4151 36.1758C47.4148 36.1749 47.4145 36.1738 47.4142 36.1725C47.4139 36.1716 47.4135 36.1706 47.4132 36.1696C47.4125 36.17 47.4118 36.1703 47.4111 36.1707L47.4151 36.1758ZM52.9911 43.2142L53.0052 43.2123C53.1003 43.1908 53.3353 43.0119 53.286 42.7914C53.2258 42.5011 52.9437 42.4387 52.8648 42.4387L52.9911 43.2142ZM53.4087 48.4326C53.4043 48.4137 53.3995 48.3931 53.3944 48.3713C53.3716 48.2757 53.3455 48.1757 53.3237 48.1103L53.4087 48.4326Z"
            fill="#DC3434" stroke="white" />
    </mask>
    <g mask="url(#mask2_12010_27224)">
        <mask id="path-7-inside-3_12010_27224" fill="white">
            <rect x="42.9054" y="28.8252" width="13.7261" height="21.9929" rx="1" />
        </mask>
        <rect x="42.9054" y="28.8252" width="13.7261" height="21.9929" rx="1" fill="#D9D9D9" stroke="#F23939"
            stroke-width="13.7261" mask="url(#path-7-inside-3_12010_27224)" />
    </g>
</svg>