<svg xmlns="http://www.w3.org/2000/svg" width="25" height="25" viewBox="0 0 25 25" fill="none">
    <path
        d="M12.5 22.5C18.0228 22.5 22.5 18.0228 22.5 12.5C22.5 6.97715 18.0228 2.5 12.5 2.5C6.97715 2.5 2.5 6.97715 2.5 12.5C2.5 18.0228 6.97715 22.5 12.5 22.5Z"
        stroke="#344054" stroke-width="2" stroke-linecap="round" stroke-linejoin="round" />
    <path
        d="M10 9.46533C10 8.98805 10 8.74941 10.0997 8.61618C10.1867 8.50007 10.3197 8.42744 10.4644 8.4171C10.6304 8.40525 10.8311 8.53429 11.2326 8.79239L15.9532 11.8271C16.3016 12.051 16.4758 12.163 16.5359 12.3054C16.5885 12.4298 16.5885 12.5702 16.5359 12.6946C16.4758 12.837 16.3016 12.949 15.9532 13.1729L11.2326 16.2076C10.8311 16.4657 10.6304 16.5948 10.4644 16.5829C10.3197 16.5726 10.1867 16.4999 10.0997 16.3838C10 16.2506 10 16.012 10 15.5347V9.46533Z"
        stroke="#344054" stroke-width="2" stroke-linecap="round" stroke-linejoin="round" />
</svg>