<svg xmlns="http://www.w3.org/2000/svg" width="96" height="97" viewBox="0 0 96 97" fill="none">
    <path
        d="M28.3125 6.3125C28.3125 4.76562 27.0469 3.5 25.5 3.5C23.9531 3.5 22.6875 4.76562 22.6875 6.3125V9.125H19.875C18.3281 9.125 17.0625 10.3906 17.0625 11.9375C17.0625 13.4844 18.3281 14.75 19.875 14.75H22.6875V20.375H13.582C11.6309 20.375 10.0312 21.9746 10.0312 23.9258C10.0312 24.3652 10.1191 24.7871 10.2598 25.209L15.9727 40.0625H15.6562C13.3184 40.0625 11.4375 41.9434 11.4375 44.2812C11.4375 46.6191 13.3184 48.5 15.6562 48.5H16.3594L13.5469 71H37.4531L34.6406 48.5H35.3438C37.6816 48.5 39.5625 46.6191 39.5625 44.2812C39.5625 41.9434 37.6816 40.0625 35.3438 40.0625H35.0273L40.7402 25.209C40.8984 24.8047 40.9688 24.3652 40.9688 23.9258C40.9688 21.957 39.3691 20.375 37.418 20.375H28.3125V14.75H31.125C32.6719 14.75 33.9375 13.4844 33.9375 11.9375C33.9375 10.3906 32.6719 9.125 31.125 9.125H28.3125V6.3125ZM11.4375 76.625L3.84375 86.75C3.29883 87.4883 3 88.3672 3 89.2812C3 91.6191 4.88086 93.5 7.21875 93.5H43.7812C46.1191 93.5 48 91.6191 48 89.2812C48 88.3672 47.7012 87.4883 47.1562 86.75L39.5625 76.625H11.4375ZM62.0625 76.625L54.4688 86.75C53.9238 87.4883 53.625 88.3672 53.625 89.2812C53.625 91.6191 55.5059 93.5 57.8438 93.5H88.7812C91.1191 93.5 93 91.6191 93 89.2812C93 88.3672 92.7012 87.4883 92.1562 86.75L84.5625 76.625H62.0625ZM56.4375 40.0625V49.1855C56.4375 50.5566 56.9297 51.875 57.8438 52.8945L62.625 58.3438L62.2383 71H84.2988L83.7188 58.3438L88.6934 52.9297C89.6426 51.8926 90.1875 50.5391 90.1875 49.1152V40.0625C90.1875 38.5156 88.9219 37.25 87.375 37.25H84.5625C83.0156 37.25 81.75 38.5156 81.75 40.0625V42.875H77.5312V40.0625C77.5312 38.5156 76.2656 37.25 74.7188 37.25H71.9062C70.3594 37.25 69.0938 38.5156 69.0938 40.0625V42.875H64.875V40.0625C64.875 38.5156 63.6094 37.25 62.0625 37.25H59.25C57.7031 37.25 56.4375 38.5156 56.4375 40.0625ZM70.5 56.9375C70.5 55.3906 71.7656 54.125 73.3125 54.125C74.8594 54.125 76.125 55.3906 76.125 56.9375V62.5625H70.5V56.9375Z"
        fill="white" />
</svg>