<svg xmlns="http://www.w3.org/2000/svg" width="16" height="16" viewBox="0 0 16 16" fill="none">
    <path
        d="M15.097 7.6681C14.4342 4.67156 13.4368 3.07222 11.9571 2.63535C11.6461 2.54411 11.3234 2.49853 10.9993 2.50004C10.5709 2.50004 10.1977 2.60441 9.80303 2.71503C9.32743 2.84847 8.78713 3.00003 7.99933 3.00003C7.21153 3.00003 6.6709 2.84878 6.19433 2.71535C5.79936 2.60441 5.42653 2.50004 4.99936 2.50004C4.66416 2.49887 4.33046 2.54431 4.0078 2.63503C2.53595 3.07003 1.53909 4.66876 0.866596 7.6662C0.14348 10.8918 0.499413 12.9283 1.86471 13.4008C2.05186 13.4668 2.24877 13.5008 2.4472 13.5014C3.3825 13.5014 4.1325 12.7224 4.645 12.0846C5.22403 11.3627 5.90186 10.9965 7.99933 10.9965C9.87273 10.9965 10.648 11.2505 11.3177 12.0846C11.7386 12.609 12.1365 12.9758 12.5333 13.2068C13.0611 13.5136 13.5886 13.5818 14.1008 13.4058C14.9077 13.1305 15.3702 12.4027 15.4758 11.2421C15.5561 10.3521 15.4324 9.18306 15.097 7.6681ZM6.49933 7.49996H5.49936V8.49996C5.49936 8.63256 5.44666 8.75973 5.3529 8.8535C5.25913 8.94726 5.13196 8.99993 4.99936 8.99993C4.86673 8.99993 4.7396 8.94726 4.6458 8.8535C4.55203 8.75973 4.49936 8.63256 4.49936 8.49996V7.49996H3.4994C3.36676 7.49996 3.2396 7.44726 3.14582 7.35353C3.05206 7.25976 2.99938 7.1326 2.99938 6.99996C2.99938 6.86736 3.05206 6.7402 3.14582 6.6464C3.2396 6.55266 3.36676 6.49996 3.4994 6.49996H4.49936V5.5C4.49936 5.3674 4.55203 5.2402 4.6458 5.14643C4.7396 5.0527 4.86673 5 4.99936 5C5.13196 5 5.25913 5.0527 5.3529 5.14643C5.44666 5.2402 5.49936 5.3674 5.49936 5.5V6.49996H6.49933C6.63193 6.49996 6.75913 6.55266 6.85286 6.6464C6.94666 6.7402 6.99933 6.86736 6.99933 6.99996C6.99933 7.1326 6.94666 7.25976 6.85286 7.35353C6.75913 7.44726 6.63193 7.49996 6.49933 7.49996ZM9.1243 7.62496C9.0007 7.62496 8.87983 7.5883 8.77706 7.51966C8.6743 7.45096 8.5942 7.35333 8.54686 7.23916C8.49956 7.12493 8.4872 6.9993 8.51133 6.87803C8.53543 6.75683 8.59496 6.64543 8.68236 6.55803C8.76976 6.47063 8.88113 6.4111 9.00236 6.38696C9.12363 6.3629 9.24926 6.37526 9.36346 6.42256C9.47766 6.46986 9.5753 6.54996 9.64396 6.65276C9.71263 6.75553 9.7493 6.87636 9.7493 6.99996C9.7493 7.16573 9.68346 7.32473 9.56623 7.4419C9.44903 7.55913 9.29006 7.62496 9.1243 7.62496ZM10.4993 8.99993C10.3756 8.99993 10.2547 8.96326 10.1519 8.8945C10.0491 8.82576 9.969 8.72806 9.9217 8.61376C9.87446 8.4995 9.86216 8.37373 9.88643 8.25246C9.91066 8.13116 9.97033 8.0198 10.0579 7.93246C10.1455 7.84513 10.257 7.7857 10.3783 7.76176C10.4997 7.73783 10.6254 7.75046 10.7395 7.798C10.8537 7.84553 10.9512 7.9259 11.0197 8.02886C11.0882 8.13186 11.1246 8.25283 11.1243 8.37653C11.1239 8.542 11.0578 8.70056 10.9407 8.81743C10.8235 8.93433 10.6648 8.99993 10.4993 8.99993ZM10.4993 6.25C10.3757 6.25 10.2548 6.21333 10.152 6.14466C10.0493 6.076 9.96916 5.97836 9.92186 5.86416C9.87453 5.74996 9.86216 5.6243 9.8863 5.50306C9.91043 5.38183 9.96996 5.27046 10.0574 5.18306C10.1448 5.09566 10.2561 5.03613 10.3774 5.012C10.4986 4.9879 10.6243 5.00026 10.7384 5.0476C10.8527 5.09486 10.9503 5.175 11.0189 5.27776C11.0876 5.38056 11.1243 5.5014 11.1243 5.625C11.1243 5.79076 11.0584 5.94973 10.9412 6.06693C10.824 6.18413 10.665 6.25 10.4993 6.25ZM11.8743 7.62496C11.7506 7.62496 11.6298 7.5883 11.527 7.51966C11.4242 7.45096 11.3442 7.35333 11.2968 7.23916C11.2495 7.12493 11.2372 6.9993 11.2613 6.87803C11.2854 6.75683 11.3449 6.64543 11.4323 6.55803C11.5197 6.47063 11.6311 6.4111 11.7523 6.38696C11.8736 6.3629 11.9992 6.37526 12.1134 6.42256C12.2276 6.46986 12.3253 6.54996 12.3939 6.65276C12.4626 6.75553 12.4993 6.87636 12.4993 6.99996C12.4993 7.16573 12.4334 7.32473 12.3162 7.4419C12.199 7.55913 12.04 7.62496 11.8743 7.62496Z"
        fill="#DC3434" />
</svg>