<svg xmlns="http://www.w3.org/2000/svg" width="131" height="112" viewBox="0 0 131 112" fill="none">
    <g opacity="0.1">
        <path
            d="M128.324 65.1778C122.69 39.7073 114.211 26.1129 101.634 22.3995C98.9903 21.624 96.2477 21.2366 93.4928 21.2493C89.8511 21.2493 86.6795 22.1365 83.3245 23.0768C79.2819 24.211 74.6894 25.4993 67.9931 25.4993C61.2968 25.4993 56.7014 24.2137 52.6506 23.0795C49.2934 22.1365 46.1243 21.2493 42.4934 21.2493C39.6442 21.2394 36.8077 21.6256 34.0651 22.3968C21.5544 26.0943 13.081 39.6835 7.36485 65.1617C1.21836 92.5793 4.24379 109.89 15.8488 113.906C17.4396 114.467 19.1133 114.756 20.8 114.761C28.75 114.761 35.125 108.139 39.4813 102.718C44.403 96.5822 50.1646 93.469 67.9931 93.469C83.917 93.469 90.507 95.6285 96.1995 102.718C99.7771 107.175 103.159 110.294 106.532 112.257C111.018 114.865 115.502 115.444 119.856 113.949C126.714 111.608 130.645 105.422 131.543 95.5568C132.226 87.9918 131.174 78.0551 128.324 65.1778ZM55.2431 63.7487H46.7434V72.2487C46.7434 73.3758 46.2954 74.4567 45.4984 75.2537C44.7014 76.0508 43.6205 76.4984 42.4934 76.4984C41.366 76.4984 40.2854 76.0508 39.4881 75.2537C38.691 74.4567 38.2434 73.3758 38.2434 72.2487V63.7487H29.7436C28.6163 63.7487 27.5354 63.3008 26.7383 62.504C25.9413 61.707 25.4935 60.6261 25.4935 59.4987C25.4935 58.3716 25.9413 57.2907 26.7383 56.4934C27.5354 55.6967 28.6163 55.2487 29.7436 55.2487H38.2434V46.749C38.2434 45.6219 38.691 44.5407 39.4881 43.7437C40.2854 42.9469 41.366 42.499 42.4934 42.499C43.6205 42.499 44.7014 42.9469 45.4984 43.7437C46.2954 44.5407 46.7434 45.6219 46.7434 46.749V55.2487H55.2431C56.3702 55.2487 57.4514 55.6967 58.2481 56.4934C59.0454 57.2907 59.4931 58.3716 59.4931 59.4987C59.4931 60.6261 59.0454 61.707 58.2481 62.504C57.4514 63.3008 56.3702 63.7487 55.2431 63.7487ZM77.5553 64.8112C76.5047 64.8112 75.4773 64.4995 74.6038 63.9162C73.7303 63.3322 73.0495 62.5023 72.6471 61.5319C72.2451 60.5609 72.14 59.493 72.3451 58.4623C72.5499 57.4321 73.056 56.4852 73.7989 55.7423C74.5418 54.9994 75.4884 54.4933 76.5189 54.2882C77.5496 54.0836 78.6175 54.1888 79.5882 54.5908C80.5589 54.9929 81.3888 55.6737 81.9725 56.5475C82.5561 57.421 82.8678 58.4481 82.8678 59.4987C82.8678 60.9077 82.3082 62.2592 81.3117 63.2551C80.3155 64.2516 78.9643 64.8112 77.5553 64.8112ZM89.2428 76.4984C88.1914 76.4984 87.1637 76.1868 86.2899 75.6022C85.4158 75.018 84.7353 74.1876 84.3332 73.216C83.9317 72.2447 83.8272 71.1757 84.0334 70.145C84.2394 69.1139 84.7466 68.1673 85.4909 67.425C86.2352 66.6826 87.183 66.1774 88.2146 65.974C89.2459 65.7706 90.3144 65.878 91.2848 66.282C92.2555 66.686 93.0842 67.3691 93.6662 68.2444C94.2485 69.1199 94.5579 70.1481 94.555 71.1995C94.5516 72.606 93.9903 73.9538 92.9944 74.9472C91.9985 75.9408 90.6493 76.4984 89.2428 76.4984ZM89.2428 53.124C88.1919 53.124 87.1648 52.8123 86.291 52.2287C85.4175 51.645 84.7367 50.8151 84.3346 49.8444C83.9323 48.8737 83.8272 47.8055 84.0323 46.7751C84.2374 45.7446 84.7435 44.798 85.4864 44.0551C86.2293 43.3122 87.1756 42.8061 88.2064 42.601C89.2369 42.3961 90.305 42.5013 91.2754 42.9036C92.2464 43.3054 93.0763 43.9865 93.6597 44.86C94.2436 45.7338 94.555 46.7609 94.555 47.8115C94.555 49.2205 93.9954 50.5717 92.9992 51.5679C92.0028 52.5641 90.6515 53.124 89.2428 53.124ZM100.93 64.8112C99.8791 64.8112 98.8521 64.4995 97.9785 63.9162C97.1047 63.3322 96.4242 62.5023 96.0218 61.5319C95.6198 60.5609 95.5147 59.493 95.7195 58.4623C95.9246 57.4321 96.4307 56.4852 97.1736 55.7423C97.9165 54.9994 98.8631 54.4933 99.8936 54.2882C100.924 54.0836 101.992 54.1888 102.963 54.5908C103.934 54.9929 104.764 55.6737 105.347 56.5475C105.931 57.421 106.243 58.4481 106.243 59.4987C106.243 60.9077 105.683 62.2592 104.686 63.2551C103.69 64.2516 102.339 64.8112 100.93 64.8112Z"
            fill="white" />
    </g>
</svg>