<svg width="72" height="72" viewBox="0 0 72 72" fill="none" xmlns="http://www.w3.org/2000/svg">
<path d="M0 36C0 16.1178 16.1178 0 36 0C55.8823 0 72 16.1178 72 36C72 55.8823 55.8823 72 36 72C16.1178 72 0 55.8823 0 36Z" fill="#F6F6F6"/>
<path d="M35.3994 27.5731L31.1044 29.3755V22.0062L27.6083 34.169L31.1044 32.6223V40.9502L35.3994 27.5731ZM30.0818 21.3927L29.9987 21.6931L29.0272 25.0741C26.4515 26.0647 24.6236 28.5638 24.6236 31.4846C24.6236 34.8273 26.8158 37.614 29.954 38.2275V41.6533C24.9751 40.9822 21.3 36.6552 21.3 31.491C21.3 26.346 25.1221 22.0829 30.0818 21.3927ZM49.9845 49.9749C49.2687 50.6907 48.5081 50.761 48.1566 50.646C47.8114 50.5309 46.4245 49.3741 44.2962 47.8082C42.1679 46.2359 42.1487 45.5265 41.5479 44.1843C40.9471 42.8485 39.6049 41.4616 37.8729 40.8352L37.2529 39.8957C35.6742 40.9758 33.8655 41.6149 32.0567 41.73L32.1909 41.3082L33.2072 38.1444C36.1792 37.3839 38.3778 34.6931 38.3778 31.4846C38.3778 28.0013 35.9235 24.959 32.2421 24.6395V21.3096C37.5597 21.6355 41.7524 26.0711 41.7524 31.491C41.7524 33.6385 41.0366 35.6262 39.8989 37.2688L40.8321 37.8824C41.4584 39.6144 42.8454 40.9503 44.1811 41.551C45.5169 42.1518 46.2392 42.171 47.8114 44.2993C49.3837 46.4213 50.5406 47.8082 50.6556 48.1533C50.7706 48.4985 50.7003 49.259 49.9845 49.9749ZM49.3518 48.8308C49.3518 48.5496 49.1217 48.3195 48.8405 48.3195C48.5592 48.3195 48.3291 48.5496 48.3291 48.8308C48.3291 49.112 48.5592 49.3421 48.8405 49.3421C49.1217 49.3421 49.3518 49.112 49.3518 48.8308Z" fill="#F23939"/>
</svg>
