<svg xmlns="http://www.w3.org/2000/svg" width="92" height="92" viewBox="0 0 92 92" fill="none">
    <path
        d="M47.0781 46.7906C48.9958 45.1307 50.5339 43.0779 51.5879 40.7711C52.642 38.4645 53.1875 35.958 53.1875 33.4219C53.1875 28.6563 51.2943 24.0859 47.9245 20.7161C44.555 17.3462 39.9844 15.4531 35.2188 15.4531C30.4531 15.4531 25.8827 17.3462 22.5129 20.7161C19.1431 24.0859 17.25 28.6563 17.25 33.4219C17.25 35.958 17.7955 38.4645 18.8497 40.7711C19.9038 43.0779 21.4418 45.1307 23.3594 46.7906C18.3286 49.0687 14.0604 52.7473 11.0651 57.3868C8.06977 62.0267 6.47403 67.4306 6.46875 72.9531C6.46875 73.9062 6.84739 74.8204 7.52132 75.4943C8.1953 76.1681 9.10937 76.5469 10.0625 76.5469C11.0156 76.5469 11.9297 76.1681 12.6037 75.4943C13.2776 74.8204 13.6562 73.9062 13.6562 72.9531C13.6562 67.2344 15.928 61.75 19.9718 57.7063C24.0155 53.6622 29.5 51.3906 35.2188 51.3906C40.9375 51.3906 46.4219 53.6622 50.4656 57.7063C54.5096 61.75 56.7812 67.2344 56.7812 72.9531C56.7812 73.9062 57.16 74.8204 57.8339 75.4943C58.5077 76.1681 59.4219 76.5469 60.375 76.5469C61.3281 76.5469 62.2423 76.1681 62.9161 75.4943C63.59 74.8204 63.9688 73.9062 63.9688 72.9531C63.9634 67.4306 62.3677 62.0267 59.3723 57.3868C56.377 52.7473 52.109 49.0687 47.0781 46.7906ZM35.2188 44.2031C33.0864 44.2031 31.002 43.571 29.229 42.3861C27.456 41.2016 26.0742 39.5176 25.2582 37.5477C24.4422 35.5777 24.2287 33.4099 24.6446 31.3186C25.0607 29.2272 26.0875 27.3062 27.5953 25.7984C29.103 24.2906 31.0241 23.2638 33.1154 22.8478C35.2068 22.4318 37.3745 22.6453 39.3447 23.4613C41.3145 24.2773 42.9985 25.6592 44.183 27.4321C45.3679 29.2051 46 31.2896 46 33.4219C46 36.2812 44.864 39.0235 42.8422 41.0453C40.8203 43.0671 38.0781 44.2031 35.2188 44.2031ZM70.2219 45.3531C72.5219 42.7631 74.0241 39.564 74.548 36.14C75.072 32.7161 74.5951 29.2138 73.1752 26.0547C71.755 22.8955 69.4521 20.2141 66.5437 18.3332C63.6349 16.4524 60.2449 15.4522 56.7812 15.4531C55.8282 15.4531 54.9139 15.8318 54.2401 16.5057C53.5663 17.1797 53.1875 18.0937 53.1875 19.0469C53.1875 20 53.5663 20.9141 54.2401 21.5881C54.9139 22.262 55.8282 22.6406 56.7812 22.6406C59.6404 22.6406 62.3828 23.7765 64.4047 25.7984C66.4265 27.8203 67.5625 30.5625 67.5625 33.4219C67.5575 35.3095 67.0569 37.1626 66.111 38.796C65.1647 40.4293 63.8067 41.786 62.1719 42.7297C61.6389 43.037 61.194 43.4761 60.8796 44.0044C60.5648 44.533 60.3912 45.1335 60.375 45.7484C60.3599 46.3587 60.5004 46.9624 60.7836 47.5033C61.0664 48.0438 61.4822 48.5038 61.9922 48.8391L63.3937 49.7734L63.8609 50.025C68.1928 52.0795 71.8473 55.3294 74.3942 59.3914C76.9408 63.4534 78.2737 68.1587 78.2359 72.9531C78.2359 73.9062 78.6147 74.8204 79.2885 75.4943C79.9624 76.1681 80.8766 76.5469 81.8297 76.5469C82.7827 76.5469 83.697 76.1681 84.3708 75.4943C85.0447 74.8204 85.4234 73.9062 85.4234 72.9531C85.4529 67.4382 84.0715 62.0076 81.411 57.1769C78.7502 52.3462 74.8984 48.2759 70.2219 45.3531Z"
        fill="#FCFCFD" />
</svg>