<svg width="32" height="32" viewBox="0 0 32 32" fill="none" xmlns="http://www.w3.org/2000/svg">
    <path
        d="M0 16C0 7.16344 7.16344 0 16 0C24.8366 0 32 7.16344 32 16C32 24.8366 24.8366 32 16 32C7.16344 32 0 24.8366 0 16Z"
        fill="#F6F6F6" />
    <path
        d="M19.75 17.6667H19.7583M8.5 10.1667V21.8333C8.5 22.7538 9.24619 23.5 10.1667 23.5H21.8333C22.7538 23.5 23.5 22.7538 23.5 21.8333V13.5C23.5 12.5795 22.7538 11.8333 21.8333 11.8333L10.1667 11.8333C9.24619 11.8333 8.5 11.0871 8.5 10.1667ZM8.5 10.1667C8.5 9.24619 9.24619 8.5 10.1667 8.5H20.1667M20.1667 17.6667C20.1667 17.8968 19.9801 18.0833 19.75 18.0833C19.5199 18.0833 19.3333 17.8968 19.3333 17.6667C19.3333 17.4365 19.5199 17.25 19.75 17.25C19.9801 17.25 20.1667 17.4365 20.1667 17.6667Z"
        stroke="#F23939" stroke-width="1.66667" stroke-linecap="round" stroke-linejoin="round" />
</svg>